{
.appVersion = "1161";
classes = (
{
code = "zero
one
two
three
four
five
six
seven
eight
nine";
name = figures;
},
{
code = "zero.dnom
one.dnom
two.dnom
three.dnom
four.dnom
five.dnom
six.dnom
seven.dnom
eight.dnom
nine.dnom";
name = dnom;
},
{
code = "zero.numr
one.numr
two.numr
three.numr
four.numr
five.numr
six.numr
seven.numr
eight.numr
nine.numr";
name = numr;
},
{
automatic = 1;

glyphs = (
{
glyphname = A;
layers = (
{
anchors = (
{
name = bottom;
position = "{330, 0}";
},
{
name = ogonek;
position = "{660, 0}";
},
{
name = top;
position = "{332, 686}";
}
);
layerId = "54B1AC83-0CA1-46BD-96DF-6FABA525BA97";
paths = (
{
closed = 1;
nodes = (
"105 0 LINE",
"172 183 LINE",
"490 183 LINE",
"559 0 LINE",
"660 0 LINE",
"394 686 LINE",
"273 686 LINE",
"7 0 LINE"
);
},
{
closed = 1;
nodes = (
"283 482 LINE",
"298 523 OFFCURVE",
"313 563 OFFCURVE",
"328 604 CURVE",
"333 604 LINE",
"348 563 OFFCURVE",
"364 521 OFFCURVE",
"379 480 CURVE",
"459 266 LINE",
"203 266 LINE"
);
}
);
width = 667;
},
{
anchors = (
{
name = bottom;
position = "{338, 0}";
},
{
name = ogonek;
position = "{679, 0}";
},
{
name = top;
position = "{338, 686}";
}
);
layerId = "6BFFA46E-AB79-4C09-B73D-70680E42F436";
paths = (
{
closed = 1;
nodes = (
"120 0 LINE",
"182 167 LINE",
"498 167 LINE",
"561 0 LINE",
"679 0 LINE",
"413 686 LINE",
"273 686 LINE",
"6 0 LINE"
);
},
{
closed = 1;
nodes = (
"293 465 LINE SMOOTH",
"308 504 OFFCURVE",
"327 562 OFFCURVE",
"337 591 CURVE",
"342 591 LINE",
"357 548 OFFCURVE",
"372 506 OFFCURVE",
"387 463 CURVE",
"462 262 LINE",
"217 262 LINE"
);
}
);
width = 684;
},
{
anchors = (
{
name = bottom;
position = "{347, 0}";
},
{
name = ogonek;
position = "{699, 0}";
},
{
name = top;
position = "{347, 686}";
}
);
layerId = "E736C715-D109-4716-A17A-2CB5528FE3B0";
paths = (
{
closed = 1;
nodes = (
"136 0 LINE",
"191 149 LINE",
"505 149 LINE",
"561 0 LINE",
"699 0 LINE",
"432 686 LINE",
"271 686 LINE",
"4 0 LINE"
);
},
{
closed = 1;
nodes = (
"301 445 LINE SMOOTH",
"315 482 OFFCURVE",
"340 562 OFFCURVE",
"345 576 CURVE",
"350 576 LINE",
"355 562 OFFCURVE",
"380 481 OFFCURVE",
"394 445 CURVE SMOOTH",
"464 257 LINE",
"231 257 LINE"
);
}
);
width = 703;
},
{
anchors = (
{
name = bottom;
position = "{357, 0}";
},
{
name = ogonek;
position = "{720, 0}";
},
{
name = top;
position = "{357, 686}";
}
);
layerId = "16ED1D51-D51B-4BA0-89FC-970B5AF72829";
paths = (
{
closed = 1;
nodes = (
"152 0 LINE",
"201 131 LINE",
"513 131 LINE",
"562 0 LINE",
"720 0 LINE",
"452 686 LINE",
"270 686 LINE",
"2 0 LINE"
);
},
{
closed = 1;
nodes = (
"311 426 LINE SMOOTH",
"324 460 OFFCURVE",
"354 561 OFFCURVE",
"354 561 CURVE",
"359 561 LINE",
"359 561 OFFCURVE",
"389 460 OFFCURVE",
"402 426 CURVE SMOOTH",
"467 252 LINE",
"246 252 LINE"
);
}
);
width = 722;
}
);
leftKerningGroup = A;
note = A;
rightKerningGroup = A;
unicode = 0041;
},
{
glyphname = AE;
layers = (
{
anchors = (
{
name = top;
position = "{580, 686}";
}
);
layerId = "54B1AC83-0CA1-46BD-96DF-6FABA525BA97";
paths = (
{
closed = 1;
nodes = (
"94 0 LINE",
"184 183 LINE",
"515 183 LINE",
"566 0 LINE",
"946 0 LINE",
"946 83 LINE",
"641 83 LINE",
"578 309 LINE",
"896 309 LINE",
"896 392 LINE",
"554 392 LINE",
"495 603 LINE",
"940 603 LINE",
"940 686 LINE",
"345 686 LINE",
"-1 0 LINE"
);
},
{
closed = 1;
nodes = (
"393 603 LINE",
"398 603 LINE",
"492 266 LINE",
"225 266 LINE"
);
}
);
width = 1000;
},
{
anchors = (
{
name = top;
position = "{570, 686}";
}
);
layerId = "6BFFA46E-AB79-4C09-B73D-70680E42F436";
paths = (
{
closed = 1;
nodes = (
"110 0 LINE",
"190 167 LINE",
"517 167 LINE",
"563 0 LINE",
"946 0 LINE",
"946 95 LINE",
"650 95 LINE",
"592 303 LINE",
"896 303 LINE",
"896 398 LINE",
"566 398 LINE",
"512 591 LINE",
"940 591 LINE",
"940 686 LINE",
"339 686 LINE",
"-2 0 LINE"
);
},
{
closed = 1;
nodes = (
"397 591 LINE",
"402 591 LINE",
"491 262 LINE",
"236 262 LINE"
);
}
);
width = 1000;
},
{
anchors = (
{
name = top;
position = "{580, 686}";
}
);
layerId = "E736C715-D109-4716-A17A-2CB5528FE3B0";
paths = (
{
closed = 1;
nodes = (
"127 0 LINE",
"198 149 LINE",
"519 149 LINE",
"559 0 LINE",
"945 0 LINE",
"945 109 LINE",
"659 109 LINE",
"609 296 LINE",
"895 296 LINE",
"895 405 LINE",
"579 405 LINE",
"532 577 LINE",
"939 577 LINE",
"939 686 LINE",
"333 686 LINE",
"-4 0 LINE"
);
},
{
closed = 1;
nodes = (
"401 577 LINE",
"406 577 LINE",
"491 257 LINE",
"249 257 LINE"
);
}
);
width = 1000;
},
{
anchors = (
{
name = top;
position = "{590, 686}";
}
);
layerId = "16ED1D51-D51B-4BA0-89FC-970B5AF72829";
paths = (
{
closed = 1;
nodes = (
"145 0 LINE",
"205 131 LINE",
"521 131 LINE",
"555 0 LINE",
"945 0 LINE",
"945 123 LINE",
"669 123 LINE",
"625 289 LINE",
"895 289 LINE",
"895 412 LINE",
"592 412 LINE",
"552 563 LINE",
"939 563 LINE",
"939 686 LINE",
"327 686 LINE",
"-5 0 LINE"
);
},
{
closed = 1;
nodes = (
"405 563 LINE",
"410 563 LINE",
"490 252 LINE",
"261 252 LINE"
);
}
);
width = 1000;
}
);
leftKerningGroup = AE;
note = AE;
rightKerningGroup = AE;
unicode = 00C6;
},
{
glyphname = B;
layers = (
{
layerId = "54B1AC83-0CA1-46BD-96DF-6FABA525BA97";
paths = (
{
closed = 1;
nodes = (
"410 0 LINE SMOOTH",
"530 0 OFFCURVE",
"620 54 OFFCURVE",
"620 182 CURVE SMOOTH",
"620 283 OFFCURVE",
"563 338 OFFCURVE",
"487 356 CURVE",
"487 360 LINE",
"552 381 OFFCURVE",
"601 439 OFFCURVE",
"601 518 CURVE SMOOTH",
"601 619 OFFCURVE",
"524 686 OFFCURVE",
"410 686 CURVE SMOOTH",
"79 686 LINE",
"79 0 LINE"
);
},
{
closed = 1;
nodes = (
"174 310 LINE",
"401 310 LINE SMOOTH",
"481 310 OFFCURVE",
"523 272 OFFCURVE",
"523 194 CURVE SMOOTH",
"523 113 OFFCURVE",
"478 83 OFFCURVE",
"408 83 CURVE SMOOTH",
"174 83 LINE"
);
},
{
closed = 1;
nodes = (
"174 603 LINE",
"399 603 LINE SMOOTH",
"462 603 OFFCURVE",
"504 571 OFFCURVE",
"504 499 CURVE SMOOTH",
"504 436 OFFCURVE",
"459 393 OFFCURVE",
"391 393 CURVE SMOOTH",
"174 393 LINE"
);
}
);
width = 667;
},
{
layerId = "6BFFA46E-AB79-4C09-B73D-70680E42F436";
paths = (
{
closed = 1;
nodes = (
"425 0 LINE SMOOTH",
"544 0 OFFCURVE",
"636 56 OFFCURVE",
"636 185 CURVE SMOOTH",
"636 281 OFFCURVE",
"579 339 OFFCURVE",
"503 356 CURVE",
"503 360 LINE",
"568 381 OFFCURVE",
"617 438 OFFCURVE",
"617 517 CURVE SMOOTH",
"617 618 OFFCURVE",
"538 686 OFFCURVE",
"425 686 CURVE SMOOTH",
"75 686 LINE",
"75 0 LINE"
);
},
{
closed = 1;
nodes = (
"186 304 LINE",
"409 304 LINE SMOOTH",
"484 304 OFFCURVE",
"523 267 OFFCURVE",
"523 198 CURVE SMOOTH",
"523 125 OFFCURVE",
"480 95 OFFCURVE",
"417 95 CURVE SMOOTH",
"186 95 LINE"
);
},
{
closed = 1;
nodes = (
"186 591 LINE",
"407 591 LINE SMOOTH",
"465 591 OFFCURVE",
"504 561 OFFCURVE",
"504 495 CURVE SMOOTH",
"504 439 OFFCURVE",
"464 399 OFFCURVE",
"400 399 CURVE SMOOTH",
"186 399 LINE"
);
}
);
width = 684;
},
{
layerId = "E736C715-D109-4716-A17A-2CB5528FE3B0";
paths = (
{
closed = 1;
nodes = (
"443 0 LINE SMOOTH",
"560 0 OFFCURVE",
"653 59 OFFCURVE",
"653 189 CURVE SMOOTH",
"653 278 OFFCURVE",
"598 340 OFFCURVE",
"522 356 CURVE",
"522 360 LINE",
"585 381 OFFCURVE",
"634 438 OFFCURVE",
"634 517 CURVE SMOOTH",
"634 618 OFFCURVE",
"553 686 OFFCURVE",
"443 686 CURVE SMOOTH",
"71 686 LINE",
"71 0 LINE"
);
},
{
closed = 1;
nodes = (
"199 298 LINE",
"419 298 LINE SMOOTH",
"488 298 OFFCURVE",
"522 261 OFFCURVE",
"522 203 CURVE SMOOTH",
"522 138 OFFCURVE",
"482 109 OFFCURVE",
"426 109 CURVE SMOOTH",
"199 109 LINE"
);
},
{
closed = 1;
nodes = (
"199 577 LINE",
"417 577 LINE SMOOTH",
"469 577 OFFCURVE",
"503 549 OFFCURVE",
"503 490 CURVE SMOOTH",
"503 442 OFFCURVE",
"469 405 OFFCURVE",
"409 405 CURVE SMOOTH",
"199 405 LINE"
);
}
);
width = 703;
},
{
layerId = "16ED1D51-D51B-4BA0-89FC-970B5AF72829";
paths = (
{
closed = 1;
nodes = (
"460 0 LINE SMOOTH",
"576 0 OFFCURVE",
"671 62 OFFCURVE",
"671 192 CURVE SMOOTH",
"671 276 OFFCURVE",
"616 341 OFFCURVE",
"540 356 CURVE",
"540 360 LINE",
"603 381 OFFCURVE",
"652 437 OFFCURVE",
"652 516 CURVE SMOOTH",
"652 617 OFFCURVE",
"569 686 OFFCURVE",
"460 686 CURVE SMOOTH",
"67 686 LINE",
"67 0 LINE"
);
},
{
closed = 1;
nodes = (
"213 291 LINE",
"428 291 LINE SMOOTH",
"492 291 OFFCURVE",
"522 255 OFFCURVE",
"522 208 CURVE SMOOTH",
"522 152 OFFCURVE",
"484 123 OFFCURVE",
"436 123 CURVE SMOOTH",
"213 123 LINE"
);
},
{
closed = 1;
nodes = (
"213 563 LINE",
"426 563 LINE SMOOTH",
"472 563 OFFCURVE",
"503 537 OFFCURVE",
"503 485 CURVE SMOOTH",
"503 445 OFFCURVE",
"475 412 OFFCURVE",
"419 412 CURVE SMOOTH",
"213 412 LINE"
);
}
);
width = 722;
}
);
leftKerningGroup = H;
note = B;
rightKerningGroup = B;
unicode = 0042;
},
{
glyphname = C;
layers = (
{
anchors = (
{
name = bottom;
position = "{379, 0}";
},
{
name = top;
position = "{374, 686}";
}
);
layerId = "54B1AC83-0CA1-46BD-96DF-6FABA525BA97";
paths = (
{
closed = 1;
nodes = (
"553 -12 OFFCURVE",
"676 69 OFFCURVE",
"676 246 CURVE",
"583 246 LINE",
"583 127 OFFCURVE",
"504 69 OFFCURVE",
"381 69 CURVE SMOOTH",
"221 69 OFFCURVE",
"145 147 OFFCURVE",
"145 343 CURVE SMOOTH",
"145 345 LINE SMOOTH",
"146 540 OFFCURVE",
"222 617 OFFCURVE",
"381 617 CURVE SMOOTH",
"502 617 OFFCURVE",
"579 558 OFFCURVE",
"579 438 CURVE",
"676 438 LINE",
"676 613 OFFCURVE",
"553 698 OFFCURVE",
"381 698 CURVE SMOOTH",
"161 698 OFFCURVE",
"47 581 OFFCURVE",
"47 343 CURVE SMOOTH",
"47 105 OFFCURVE",
"161 -12 OFFCURVE",
"381 -12 CURVE SMOOTH"
);
}
);
width = 722;
},
{
anchors = (
{
name = bottom;
position = "{376, 0}";
},
{
name = top;
position = "{375, 686}";
}
);
layerId = "6BFFA46E-AB79-4C09-B73D-70680E42F436";
paths = (
{
closed = 1;
nodes = (
"551 -12 OFFCURVE",
"678 70 OFFCURVE",
"678 248 CURVE",
"569 248 LINE",
"569 138 OFFCURVE",
"495 82 OFFCURVE",
"380 82 CURVE SMOOTH",
"230 82 OFFCURVE",
"159 159 OFFCURVE",
"159 338 CURVE SMOOTH",
"159 349 LINE SMOOTH",
"160 526 OFFCURVE",
"230 604 OFFCURVE",
"380 604 CURVE SMOOTH",
"491 604 OFFCURVE",
"565 547 OFFCURVE",
"565 436 CURVE",
"678 436 LINE",
"678 613 OFFCURVE",
"550 698 OFFCURVE",
"379 698 CURVE SMOOTH",
"163 698 OFFCURVE",
"45 582 OFFCURVE",
"45 343 CURVE SMOOTH",
"45 101 OFFCURVE",
"163 -12 OFFCURVE",
"379 -12 CURVE SMOOTH"
);
}
);
width = 722;
},
{
anchors = (
{
name = bottom;
position = "{378, 0}";
},
{
name = top;
position = "{374, 686}";
}
);
layerId = "E736C715-D109-4716-A17A-2CB5528FE3B0";
paths = (
{
closed = 1;
nodes = (
"549 -12 OFFCURVE",
"679 72 OFFCURVE",
"679 251 CURVE",
"553 251 LINE",
"553 151 OFFCURVE",
"484 96 OFFCURVE",
"378 96 CURVE SMOOTH",
"239 96 OFFCURVE",
"175 173 OFFCURVE",
"175 333 CURVE SMOOTH",
"175 353 LINE SMOOTH",
"175 510 OFFCURVE",
"240 590 OFFCURVE",
"378 590 CURVE SMOOTH",
"478 590 OFFCURVE",
"548 535 OFFCURVE",
"548 433 CURVE",
"679 433 LINE",
"679 612 OFFCURVE",
"547 698 OFFCURVE",
"376 698 CURVE SMOOTH",
"166 698 OFFCURVE",
"44 584 OFFCURVE",
"44 343 CURVE SMOOTH",
"44 96 OFFCURVE",
"166 -12 OFFCURVE",
"376 -12 CURVE SMOOTH"
);
}
);
width = 722;
},
{
anchors = (
{
name = bottom;
position = "{367, 0}";
},
{
name = top;
position = "{371, 686}";
}
);
layerId = "16ED1D51-D51B-4BA0-89FC-970B5AF72829";
paths = (
{
closed = 1;
nodes = (
"547 -12 OFFCURVE",
"681 73 OFFCURVE",
"681 254 CURVE",
"537 254 LINE",
"537 163 OFFCURVE",
"473 111 OFFCURVE",
"377 111 CURVE SMOOTH",
"249 111 OFFCURVE",
"191 187 OFFCURVE",
"191 328 CURVE SMOOTH",
"191 358 LINE SMOOTH",
"191 494 OFFCURVE",
"249 575 OFFCURVE",
"377 575 CURVE SMOOTH",
"466 575 OFFCURVE",
"532 523 OFFCURVE",
"532 431 CURVE",
"681 431 LINE",
"681 612 OFFCURVE",
"544 698 OFFCURVE",
"374 698 CURVE SMOOTH",
"168 698 OFFCURVE",
"42 585 OFFCURVE",
"42 343 CURVE SMOOTH",
"42 91 OFFCURVE",
"168 -12 OFFCURVE",
"374 -12 CURVE SMOOTH"
);
}
);
width = 722;
}
);
leftKerningGroup = C;
note = C;
rightKerningGroup = C;
unicode = 0043;
},
{
glyphname = Ccedilla;
layers = (
{
background = {
paths = (
{
closed = 1;
nodes = (
"221 69 OFFCURVE",
"145 147 OFFCURVE",
"145 343 CURVE SMOOTH",
"145 345 LINE SMOOTH",
"146 540 OFFCURVE",
"222 617 OFFCURVE",
"381 617 CURVE SMOOTH",
"502 617 OFFCURVE",
"579 558 OFFCURVE",
"579 438 CURVE",
"676 438 LINE",
"676 613 OFFCURVE",
"553 698 OFFCURVE",
"381 698 CURVE SMOOTH",
"161 698 OFFCURVE",
"47 581 OFFCURVE",
"47 343 CURVE SMOOTH",
"47 119 OFFCURVE",
"148 2 OFFCURVE",
"344 -11 CURVE",
"332 -77 LINE",
"383 -77 LINE SMOOTH",
"413 -77 OFFCURVE",
"422 -85 OFFCURVE",
"422 -101 CURVE SMOOTH",
"422 -120 OFFCURVE",
"406 -125 OFFCURVE",
"381 -125 CURVE SMOOTH",
"281 -125 LINE",
"281 -174 LINE",
"308 -179 OFFCURVE",
"344 -182 OFFCURVE",
"376 -182 CURVE SMOOTH",
"423 -182 OFFCURVE",
"494 -168 OFFCURVE",
"494 -101 CURVE SMOOTH",
"494 -55 OFFCURVE",
"451 -39 OFFCURVE",
"402 -36 CURVE",
"406 -11 LINE",
"565 -4 OFFCURVE",
"676 78 OFFCURVE",
"676 246 CURVE",
"583 246 LINE",
"583 127 OFFCURVE",
"504 69 OFFCURVE",
"381 69 CURVE SMOOTH"
);
}
);
};
components = (
{
alignment = -1;
name = C;
},
{
name = cedillacomb;
transform = "{1, 0, 0, 1, 280, 0}";
}
);
layerId = "54B1AC83-0CA1-46BD-96DF-6FABA525BA97";
width = 722;
},
{
background = {
paths = (
{
closed = 1;
nodes = (
"230 82 OFFCURVE",
"159 159 OFFCURVE",
"159 338 CURVE SMOOTH",
"159 349 LINE SMOOTH",
"160 526 OFFCURVE",
"230 604 OFFCURVE",
"380 604 CURVE SMOOTH",
"491 604 OFFCURVE",
"565 547 OFFCURVE",
"565 436 CURVE",
"678 436 LINE",
"678 613 OFFCURVE",
"550 698 OFFCURVE",
"379 698 CURVE SMOOTH",
"163 698 OFFCURVE",
"45 582 OFFCURVE",
"45 343 CURVE SMOOTH",
"45 117 OFFCURVE",
"148 3 OFFCURVE",
"338 -11 CURVE",
"327 -77 LINE",
"375 -77 LINE SMOOTH",
"405 -77 OFFCURVE",
"415 -85 OFFCURVE",
"415 -101 CURVE SMOOTH",
"415 -120 OFFCURVE",
"398 -125 OFFCURVE",
"372 -125 CURVE SMOOTH",
"276 -125 LINE",
"276 -174 LINE",
"304 -179 OFFCURVE",
"341 -182 OFFCURVE",
"374 -182 CURVE SMOOTH",
"423 -182 OFFCURVE",
"497 -168 OFFCURVE",
"497 -101 CURVE SMOOTH",
"497 -55 OFFCURVE",
"454 -38 OFFCURVE",
"404 -35 CURVE",
"407 -11 LINE",
"565 -3 OFFCURVE",
"678 80 OFFCURVE",
"678 248 CURVE",
"569 248 LINE",
"569 138 OFFCURVE",
"495 82 OFFCURVE",
"380 82 CURVE SMOOTH"
);
}
);
};
components = (
{
name = C;
},
{
name = cedillacomb;
transform = "{1, 0, 0, 1, 274, 0}";
}
);
layerId = "6BFFA46E-AB79-4C09-B73D-70680E42F436";
width = 722;
},
{
background = {
paths = (
{
closed = 1;
nodes = (
"239 96 OFFCURVE",
"175 173 OFFCURVE",
"175 333 CURVE SMOOTH",
"175 353 LINE SMOOTH",
"175 510 OFFCURVE",
"240 590 OFFCURVE",
"378 590 CURVE SMOOTH",
"478 590 OFFCURVE",
"548 535 OFFCURVE",
"548 433 CURVE",
"679 433 LINE",
"679 612 OFFCURVE",
"547 698 OFFCURVE",
"376 698 CURVE SMOOTH",
"166 698 OFFCURVE",
"44 584 OFFCURVE",
"44 343 CURVE SMOOTH",
"44 114 OFFCURVE",
"149 5 OFFCURVE",
"331 -10 CURVE",
"321 -77 LINE",
"365 -77 LINE SMOOTH",
"397 -77 OFFCURVE",
"406 -85 OFFCURVE",
"406 -101 CURVE SMOOTH",
"406 -120 OFFCURVE",
"390 -125 OFFCURVE",
"363 -125 CURVE SMOOTH",
"271 -125 LINE",
"271 -174 LINE",
"300 -179 OFFCURVE",
"338 -182 OFFCURVE",
"371 -182 CURVE SMOOTH",
"423 -182 OFFCURVE",
"501 -168 OFFCURVE",
"501 -101 CURVE SMOOTH",
"501 -55 OFFCURVE",
"457 -37 OFFCURVE",
"405 -34 CURVE",
"409 -11 LINE",
"565 -1 OFFCURVE",
"679 83 OFFCURVE",
"679 251 CURVE",
"553 251 LINE",
"553 151 OFFCURVE",
"484 96 OFFCURVE",
"378 96 CURVE SMOOTH"
);
}
);
};
components = (
{
name = C;
},
{
name = cedillacomb;
transform = "{1, 0, 0, 1, 273, 0}";
}
);
layerId = "E736C715-D109-4716-A17A-2CB5528FE3B0";
width = 722;
},
{
background = {
paths = (
{
closed = 1;
nodes = (
"249 111 OFFCURVE",
"191 187 OFFCURVE",
"191 328 CURVE SMOOTH",
"191 358 LINE SMOOTH",
"191 494 OFFCURVE",
"249 575 OFFCURVE",
"377 575 CURVE SMOOTH",
"466 575 OFFCURVE",
"532 523 OFFCURVE",
"532 431 CURVE",
"681 431 LINE",
"681 612 OFFCURVE",
"544 698 OFFCURVE",
"374 698 CURVE SMOOTH",
"168 698 OFFCURVE",
"42 585 OFFCURVE",
"42 343 CURVE SMOOTH",
"42 112 OFFCURVE",
"148 6 OFFCURVE",
"325 -10 CURVE",
"315 -77 LINE",
"356 -77 LINE SMOOTH",
"388 -77 OFFCURVE",
"398 -85 OFFCURVE",
"398 -101 CURVE SMOOTH",
"398 -120 OFFCURVE",
"381 -125 OFFCURVE",
"353 -125 CURVE SMOOTH",
"265 -125 LINE",
"265 -174 LINE",
"295 -179 OFFCURVE",
"335 -182 OFFCURVE",
"369 -182 CURVE SMOOTH",
"423 -182 OFFCURVE",
"505 -168 OFFCURVE",
"505 -101 CURVE SMOOTH",
"505 -55 OFFCURVE",
"460 -36 OFFCURVE",
"407 -33 CURVE",
"410 -11 LINE",
"565 0 OFFCURVE",
"681 86 OFFCURVE",
"681 254 CURVE",
"537 254 LINE",
"537 163 OFFCURVE",
"473 111 OFFCURVE",
"377 111 CURVE SMOOTH"
);
}
);
};
components = (
{
name = C;
},
{
name = cedillacomb;
transform = "{1, 0, 0, 1, 262, 0}";
}
);
layerId = "16ED1D51-D51B-4BA0-89FC-970B5AF72829";
width = 722;
}
);
leftKerningGroup = C;
note = Ccedilla;
rightKerningGroup = C;
unicode = 00C7;
},
{
glyphname = D;
layers = (
{
anchors = (
{
name = center;
position = "{162, 348}";
},
{
name = top;
position = "{348, 686}";
}
);
layerId = "54B1AC83-0CA1-46BD-96DF-6FABA525BA97";
paths = (
{
closed = 1;
nodes = (
"333 0 LINE SMOOTH",
"547 0 OFFCURVE",
"676 105 OFFCURVE",
"676 343 CURVE SMOOTH",
"676 581 OFFCURVE",
"547 686 OFFCURVE",
"333 686 CURVE SMOOTH",
"79 686 LINE",
"79 0 LINE"
);
},
{
closed = 1;
nodes = (
"174 603 LINE",
"333 603 LINE SMOOTH",
"485 603 OFFCURVE",
"578 536 OFFCURVE",
"578 343 CURVE SMOOTH",
"578 341 LINE SMOOTH",
"577 150 OFFCURVE",
"484 83 OFFCURVE",
"333 83 CURVE SMOOTH",
"174 83 LINE"
);
}
);
width = 722;
},
{
anchors = (
{
name = center;
position = "{162, 348}";
},
{
name = top;
position = "{346, 686}";
}
);
layerId = "6BFFA46E-AB79-4C09-B73D-70680E42F436";
paths = (
{
closed = 1;
nodes = (
"339 0 LINE SMOOTH",
"549 0 OFFCURVE",
"677 106 OFFCURVE",
"677 343 CURVE SMOOTH",
"677 580 OFFCURVE",
"549 686 OFFCURVE",
"339 686 CURVE SMOOTH",
"75 686 LINE",
"75 0 LINE"
);
},
{
closed = 1;
nodes = (
"186 591 LINE",
"339 591 LINE SMOOTH",
"480 591 OFFCURVE",
"563 521 OFFCURVE",
"563 348 CURVE SMOOTH",
"563 337 LINE SMOOTH",
"563 165 OFFCURVE",
"480 95 OFFCURVE",
"339 95 CURVE SMOOTH",
"186 95 LINE"
);
}
);
width = 722;
},
{
anchors = (
{
name = center;
position = "{162, 348}";
},
{
name = top;
position = "{340, 686}";
}
);
layerId = "E736C715-D109-4716-A17A-2CB5528FE3B0";
paths = (
{
closed = 1;
nodes = (
"345 0 LINE SMOOTH",
"552 0 OFFCURVE",
"678 108 OFFCURVE",
"678 343 CURVE SMOOTH",
"678 578 OFFCURVE",
"552 686 OFFCURVE",
"345 686 CURVE SMOOTH",
"71 686 LINE",
"71 0 LINE"
);
},
{
closed = 1;
nodes = (
"199 577 LINE",
"345 577 LINE SMOOTH",
"475 577 OFFCURVE",
"547 503 OFFCURVE",
"547 353 CURVE SMOOTH",
"547 333 LINE SMOOTH",
"546 183 OFFCURVE",
"475 109 OFFCURVE",
"345 109 CURVE SMOOTH",
"199 109 LINE"
);
}
);
width = 722;
},
{
anchors = (
{
name = center;
position = "{164, 348}";
},
{
name = top;
position = "{342, 686}";
}
);
layerId = "16ED1D51-D51B-4BA0-89FC-970B5AF72829";
paths = (
{
closed = 1;
nodes = (
"351 0 LINE SMOOTH",
"555 0 OFFCURVE",
"679 109 OFFCURVE",
"679 343 CURVE SMOOTH",
"679 577 OFFCURVE",
"555 686 OFFCURVE",
"351 686 CURVE SMOOTH",
"67 686 LINE",
"67 0 LINE"
);
},
{
closed = 1;
nodes = (
"212 563 LINE",
"351 563 LINE SMOOTH",
"470 563 OFFCURVE",
"530 486 OFFCURVE",
"530 358 CURVE SMOOTH",
"530 328 LINE SMOOTH",
"530 200 OFFCURVE",
"470 123 OFFCURVE",
"351 123 CURVE SMOOTH",
"212 123 LINE"
);
}
);
width = 722;
}
);
leftKerningGroup = D;
note = D;
rightKerningGroup = D;
unicode = 0044;
},
{
glyphname = Eth;
layers = (
{
background = {
paths = (
{
closed = 1;
nodes = (
"79 686 LINE",
"79 387 LINE",
"5 387 LINE",
"5 324 LINE",
"79 324 LINE",
"79 0 LINE",
"333 0 LINE SMOOTH",
"547 0 OFFCURVE",
"676 105 OFFCURVE",
"676 343 CURVE SMOOTH",
"676 581 OFFCURVE",
"547 686 OFFCURVE",
"333 686 CURVE SMOOTH"
);
},
{
closed = 1;
nodes = (
"578 341 LINE SMOOTH",
"577 150 OFFCURVE",
"484 83 OFFCURVE",
"333 83 CURVE SMOOTH",
"174 83 LINE",
"174 324 LINE",
"347 324 LINE",
"347 387 LINE",
"174 387 LINE",
"174 603 LINE",
"333 603 LINE SMOOTH",
"485 603 OFFCURVE",
"578 536 OFFCURVE",
"578 343 CURVE SMOOTH"
);
}
);
};
layerId = "54B1AC83-0CA1-46BD-96DF-6FABA525BA97";
paths = (
{
closed = 1;
nodes = (
"333 0 LINE SMOOTH",
"547 0 OFFCURVE",
"676 105 OFFCURVE",
"676 343 CURVE SMOOTH",
"676 581 OFFCURVE",
"547 686 OFFCURVE",
"333 686 CURVE SMOOTH",
"79 686 LINE",
"79 386 LINE",
"7 386 LINE",
"7 308 LINE",
"79 308 LINE",
"79 0 LINE"
);
},
{
closed = 1;
nodes = (
"174 308 LINE",
"369 308 LINE",
"369 386 LINE",
"174 386 LINE",
"174 603 LINE",
"333 603 LINE SMOOTH",
"485 603 OFFCURVE",
"578 536 OFFCURVE",
"578 343 CURVE SMOOTH",
"578 341 LINE SMOOTH",
"577 150 OFFCURVE",
"484 83 OFFCURVE",
"333 83 CURVE SMOOTH",
"174 83 LINE"
);
}
);
width = 722;
},
{
layerId = "6BFFA46E-AB79-4C09-B73D-70680E42F436";
paths = (
{
closed = 1;
nodes = (
"339 0 LINE SMOOTH",
"549 0 OFFCURVE",
"677 106 OFFCURVE",
"677 343 CURVE SMOOTH",
"677 580 OFFCURVE",
"549 686 OFFCURVE",
"339 686 CURVE SMOOTH",
"75 686 LINE",
"75 393 LINE",
"7 393 LINE",
"7 301 LINE",
"75 301 LINE",
"75 0 LINE"
);
},
{
closed = 1;
nodes = (
"186 301 LINE",
"367 301 LINE",
"367 393 LINE",
"186 393 LINE",
"186 591 LINE",
"339 591 LINE SMOOTH",
"480 591 OFFCURVE",
"563 521 OFFCURVE",
"563 348 CURVE SMOOTH",
"563 337 LINE SMOOTH",
"563 165 OFFCURVE",
"480 95 OFFCURVE",
"339 95 CURVE SMOOTH",
"186 95 LINE"
);
}
);
width = 722;
},
{
layerId = "E736C715-D109-4716-A17A-2CB5528FE3B0";
paths = (
{
closed = 1;
nodes = (
"345 0 LINE SMOOTH",
"552 0 OFFCURVE",
"678 108 OFFCURVE",
"678 343 CURVE SMOOTH",
"678 578 OFFCURVE",
"552 686 OFFCURVE",
"345 686 CURVE SMOOTH",
"71 686 LINE",
"71 398 LINE",
"2 398 LINE",
"2 296 LINE",
"71 296 LINE",
"71 0 LINE"
);
},
{
closed = 1;
nodes = (
"199 296 LINE",
"364 296 LINE",
"364 398 LINE",
"199 398 LINE",
"199 577 LINE",
"345 577 LINE SMOOTH",
"475 577 OFFCURVE",
"547 503 OFFCURVE",
"547 353 CURVE SMOOTH",
"547 333 LINE SMOOTH",
"546 183 OFFCURVE",
"475 109 OFFCURVE",
"345 109 CURVE SMOOTH",
"199 109 LINE"
);
}
);
width = 722;
},
{
layerId = "16ED1D51-D51B-4BA0-89FC-970B5AF72829";
paths = (
{
closed = 1;
nodes = (
"351 0 LINE SMOOTH",
"555 0 OFFCURVE",
"679 109 OFFCURVE",
"679 343 CURVE SMOOTH",
"679 577 OFFCURVE",
"555 686 OFFCURVE",
"351 686 CURVE SMOOTH",
"67 686 LINE",
"67 401 LINE",
"-8 401 LINE",
"-8 293 LINE",
"67 293 LINE",
"67 0 LINE"
);
},
{
closed = 1;
nodes = (
"212 293 LINE",
"357 293 LINE",
"357 401 LINE",
"212 401 LINE",
"212 563 LINE",
"351 563 LINE SMOOTH",
"470 563 OFFCURVE",
"530 486 OFFCURVE",
"530 358 CURVE SMOOTH",
"530 328 LINE SMOOTH",
"530 200 OFFCURVE",
"470 123 OFFCURVE",
"351 123 CURVE SMOOTH",
"212 123 LINE"
);
}
);
width = 722;
}
);
leftKerningGroup = D;
note = Eth;
rightKerningGroup = D;
unicode = 00D0;
},
{
glyphname = E;
layers = (
{
anchors = (
{
name = bottom;
position = "{358, 0}";
},
{
name = ogonek;
position = "{613, 0}";
},
{
name = top;
position = "{358, 686}";
}
);
layerId = "54B1AC83-0CA1-46BD-96DF-6FABA525BA97";
paths = (
{
closed = 1;
nodes = (
"613 0 LINE",
"613 83 LINE",
"174 83 LINE",
"174 309 LINE",
"563 309 LINE",
"563 392 LINE",
"174 392 LINE",
"174 603 LINE",
"607 603 LINE",
"607 686 LINE",
"79 686 LINE",
"79 0 LINE"
);
}
);
width = 667;
},
{
anchors = (
{
name = bottom;
position = "{347, 0}";
},
{
name = ogonek;
position = "{613, 0}";
},
{
name = top;
position = "{347, 686}";
}
);
layerId = "6BFFA46E-AB79-4C09-B73D-70680E42F436";
paths = (
{
closed = 1;
nodes = (
"613 0 LINE",
"613 95 LINE",
"186 95 LINE",
"186 303 LINE",
"563 303 LINE",
"563 398 LINE",
"186 398 LINE",
"186 591 LINE",
"607 591 LINE",
"607 686 LINE",
"75 686 LINE",
"75 0 LINE"
);
}
);
width = 667;
},
{
anchors = (
{
name = bottom;
position = "{348, 0}";
},
{
name = ogonek;
position = "{612, 0}";
},
{
name = top;
position = "{348, 686}";
}
);
layerId = "E736C715-D109-4716-A17A-2CB5528FE3B0";
paths = (
{
closed = 1;
nodes = (
"612 0 LINE",
"612 109 LINE",
"199 109 LINE",
"199 296 LINE",
"562 296 LINE",
"562 405 LINE",
"199 405 LINE",
"199 577 LINE",
"606 577 LINE",
"606 686 LINE",
"71 686 LINE",
"71 0 LINE"
);
}
);
width = 667;
},
{
anchors = (
{
name = bottom;
position = "{321, 0}";
},
{
name = ogonek;
position = "{612, 0}";
},
{
name = top;
position = "{321, 686}";
}
);
layerId = "16ED1D51-D51B-4BA0-89FC-970B5AF72829";
paths = (
{
closed = 1;
nodes = (
"612 0 LINE",
"612 123 LINE",
"212 123 LINE",
"212 289 LINE",
"562 289 LINE",
"562 412 LINE",
"212 412 LINE",
"212 563 LINE",
"606 563 LINE",
"606 686 LINE",
"67 686 LINE",
"67 0 LINE"
);
}
);
width = 667;
}
);
leftKerningGroup = E;
note = E;
rightKerningGroup = E;
unicode = 0045;
},
{
glyphname = F;
layers = (
{
layerId = "54B1AC83-0CA1-46BD-96DF-6FABA525BA97";
paths = (
{
closed = 1;
nodes = (
"174 0 LINE",
"174 302 LINE",
"529 302 LINE",
"529 385 LINE",
"174 385 LINE",
"174 603 LINE",
"565 603 LINE",
"565 686 LINE",
"79 686 LINE",
"79 0 LINE"
);
}
);
width = 611;
},
{
layerId = "6BFFA46E-AB79-4C09-B73D-70680E42F436";
paths = (
{
closed = 1;
nodes = (
"186 0 LINE",
"186 293 LINE",
"528 293 LINE",
"528 388 LINE",
"186 388 LINE",
"186 591 LINE",
"565 591 LINE",
"565 686 LINE",
"75 686 LINE",
"75 0 LINE"
);
}
);
width = 611;
},
{
layerId = "E736C715-D109-4716-A17A-2CB5528FE3B0";
paths = (
{
closed = 1;
nodes = (
"199 0 LINE",
"199 282 LINE",
"528 282 LINE",
"528 391 LINE",
"199 391 LINE",
"199 577 LINE",
"564 577 LINE",
"564 686 LINE",
"71 686 LINE",
"71 0 LINE"
);
}
);
width = 611;
},
{
layerId = "16ED1D51-D51B-4BA0-89FC-970B5AF72829";
paths = (
{
closed = 1;
nodes = (
"212 0 LINE",
"212 271 LINE",
"527 271 LINE",
"527 394 LINE",
"212 394 LINE",
"212 563 LINE",
"564 563 LINE",
"564 686 LINE",
"67 686 LINE",
"67 0 LINE"
);
}
);
width = 611;
}
);
leftKerningGroup = H;
note = F;
rightKerningGroup = F;
unicode = 0046;
},
{
glyphname = Fhook;
layers = (
{
layerId = "54B1AC83-0CA1-46BD-96DF-6FABA525BA97";
paths = (
{
closed = 1;
nodes = (
"142 -182 OFFCURVE",
"174 -121 OFFCURVE",
"174 -61 CURVE SMOOTH",
"174 302 LINE",
"529 302 LINE",
"529 385 LINE",
"174 385 LINE",
"174 603 LINE",
"565 603 LINE",
"565 686 LINE",
"79 686 LINE",
"79 -65 LINE SMOOTH",
"79 -96 OFFCURVE",
"63 -113 OFFCURVE",
"32 -113 CURVE SMOOTH",
"-12 -113 LINE",
"-12 -170 LINE",
"5 -176 OFFCURVE",
"33 -182 OFFCURVE",
"57 -182 CURVE SMOOTH"
);
}
);
width = 611;
},
{
layerId = "6BFFA46E-AB79-4C09-B73D-70680E42F436";
paths = (
{
closed = 1;
nodes = (
"151 -182 OFFCURVE",
"186 -118 OFFCURVE",
"186 -55 CURVE SMOOTH",
"186 293 LINE",
"528 293 LINE",
"528 388 LINE",
"186 388 LINE",
"186 591 LINE",
"565 591 LINE",
"565 686 LINE",
"75 686 LINE",
"75 -53 LINE SMOOTH",
"75 -83 OFFCURVE",
"60 -100 OFFCURVE",
"29 -100 CURVE SMOOTH",
"-17 -100 LINE",
"-17 -169 LINE",
"2 -175 OFFCURVE",
"34 -182 OFFCURVE",
"60 -182 CURVE SMOOTH"
);
}
);
width = 611;
},
{
layerId = "E736C715-D109-4716-A17A-2CB5528FE3B0";
paths = (
{
closed = 1;
nodes = (
"162 -182 OFFCURVE",
"199 -114 OFFCURVE",
"199 -48 CURVE SMOOTH",
"199 282 LINE",
"528 282 LINE",
"528 391 LINE",
"199 391 LINE",
"199 577 LINE",
"564 577 LINE",
"564 686 LINE",
"71 686 LINE",
"71 -40 LINE SMOOTH",
"71 -69 OFFCURVE",
"55 -85 OFFCURVE",
"26 -85 CURVE SMOOTH",
"-23 -85 LINE",
"-23 -167 LINE",
"-3 -175 OFFCURVE",
"34 -182 OFFCURVE",
"62 -182 CURVE SMOOTH"
);
}
);
width = 611;
},
{
layerId = "16ED1D51-D51B-4BA0-89FC-970B5AF72829";
paths = (
{
closed = 1;
nodes = (
"173 -182 OFFCURVE",
"212 -111 OFFCURVE",
"212 -41 CURVE SMOOTH",
"212 271 LINE",
"527 271 LINE",
"527 394 LINE",
"212 394 LINE",
"212 563 LINE",
"564 563 LINE",
"564 686 LINE",
"67 686 LINE",
"67 -27 LINE SMOOTH",
"67 -55 OFFCURVE",
"52 -70 OFFCURVE",
"24 -70 CURVE SMOOTH",
"-28 -70 LINE",
"-28 -166 LINE",
"-6 -174 OFFCURVE",
"35 -182 OFFCURVE",
"66 -182 CURVE SMOOTH"
);
}
);
width = 611;
}
);
leftKerningGroup = j;
rightKerningGroup = F;
unicode = 0191;
},
{
glyphname = G;
layers = (
{
anchors = (
{
name = bottom;
position = "{390, 0}";
},
{
name = top;
position = "{392, 686}";
}
);
layerId = "54B1AC83-0CA1-46BD-96DF-6FABA525BA97";
paths = (
{
closed = 1;
nodes = (
"486 -12 OFFCURVE",
"571 14 OFFCURVE",
"626 76 CURVE",
"633 0 LINE",
"707 0 LINE",
"707 357 LINE",
"370 357 LINE",
"370 274 LINE",
"612 274 LINE",
"612 264 LINE SMOOTH",
"612 133 OFFCURVE",
"542 69 OFFCURVE",
"387 69 CURVE SMOOTH",
"230 69 OFFCURVE",
"147 143 OFFCURVE",
"146 341 CURVE",
"146 343 LINE SMOOTH",
"146 542 OFFCURVE",
"230 617 OFFCURVE",
"393 617 CURVE SMOOTH",
"522 617 OFFCURVE",
"610 566 OFFCURVE",
"610 452 CURVE",
"707 452 LINE",
"707 618 OFFCURVE",
"574 698 OFFCURVE",
"393 698 CURVE SMOOTH",
"165 698 OFFCURVE",
"47 581 OFFCURVE",
"47 343 CURVE SMOOTH",
"47 105 OFFCURVE",
"164 -12 OFFCURVE",
"387 -12 CURVE SMOOTH"
);
}
);
width = 778;
},
{
anchors = (
{
name = bottom;
position = "{391, 0}";
},
{
name = top;
position = "{393, 686}";
}
);
layerId = "6BFFA46E-AB79-4C09-B73D-70680E42F436";
paths = (
{
closed = 1;
nodes = (
"484 -12 OFFCURVE",
"562 15 OFFCURVE",
"619 76 CURVE",
"628 0 LINE",
"710 0 LINE",
"710 362 LINE",
"368 362 LINE",
"368 268 LINE",
"600 268 LINE",
"600 262 LINE SMOOTH",
"600 143 OFFCURVE",
"526 82 OFFCURVE",
"386 82 CURVE SMOOTH",
"237 82 OFFCURVE",
"160 155 OFFCURVE",
"160 337 CURVE SMOOTH",
"160 348 LINE SMOOTH",
"160 528 OFFCURVE",
"238 604 OFFCURVE",
"395 604 CURVE SMOOTH",
"511 604 OFFCURVE",
"597 555 OFFCURVE",
"597 452 CURVE",
"710 452 LINE",
"710 618 OFFCURVE",
"572 698 OFFCURVE",
"393 698 CURVE SMOOTH",
"168 698 OFFCURVE",
"45 582 OFFCURVE",
"45 343 CURVE SMOOTH",
"45 102 OFFCURVE",
"165 -12 OFFCURVE",
"383 -12 CURVE SMOOTH"
);
}
);
width = 778;
},
{
anchors = (
{
name = bottom;
position = "{384, 0}";
},
{
name = top;
position = "{390, 686}";
}
);
layerId = "E736C715-D109-4716-A17A-2CB5528FE3B0";
paths = (
{
closed = 1;
nodes = (
"481 -12 OFFCURVE",
"552 16 OFFCURVE",
"612 76 CURVE",
"623 0 LINE",
"714 0 LINE",
"714 367 LINE",
"366 367 LINE",
"366 261 LINE",
"586 261 LINE",
"586 260 LINE SMOOTH",
"586 154 OFFCURVE",
"508 96 OFFCURVE",
"385 96 CURVE SMOOTH",
"245 96 OFFCURVE",
"176 168 OFFCURVE",
"175 333 CURVE",
"175 353 LINE SMOOTH",
"175 512 OFFCURVE",
"248 590 OFFCURVE",
"397 590 CURVE SMOOTH",
"498 590 OFFCURVE",
"582 542 OFFCURVE",
"582 452 CURVE",
"714 452 LINE",
"714 619 OFFCURVE",
"569 698 OFFCURVE",
"394 698 CURVE SMOOTH",
"172 698 OFFCURVE",
"44 584 OFFCURVE",
"44 343 CURVE SMOOTH",
"44 98 OFFCURVE",
"167 -12 OFFCURVE",
"379 -12 CURVE SMOOTH"
);
}
);
width = 778;
},
{
anchors = (
{
name = bottom;
position = "{373, 0}";
},
{
name = top;
position = "{385, 686}";
}
);
layerId = "16ED1D51-D51B-4BA0-89FC-970B5AF72829";
paths = (
{
closed = 1;
nodes = (
"479 -12 OFFCURVE",
"542 17 OFFCURVE",
"604 76 CURVE",
"617 0 LINE",
"717 0 LINE",
"717 373 LINE",
"364 373 LINE",
"364 254 LINE",
"572 254 LINE",
"570 163 OFFCURVE",
"488 111 OFFCURVE",
"384 111 CURVE SMOOTH",
"253 111 OFFCURVE",
"191 182 OFFCURVE",
"191 328 CURVE SMOOTH",
"191 358 LINE SMOOTH",
"191 496 OFFCURVE",
"257 575 OFFCURVE",
"399 575 CURVE SMOOTH",
"486 575 OFFCURVE",
"567 530 OFFCURVE",
"567 452 CURVE",
"717 452 LINE",
"717 619 OFFCURVE",
"566 698 OFFCURVE",
"394 698 CURVE SMOOTH",
"176 698 OFFCURVE",
"42 585 OFFCURVE",
"42 343 CURVE SMOOTH",
"42 95 OFFCURVE",
"168 -12 OFFCURVE",
"374 -12 CURVE SMOOTH"
);
}
);
width = 778;
}
);
leftKerningGroup = O;
note = G;
rightKerningGroup = G;
unicode = 0047;
},
{
glyphname = H;
layers = (
{
anchors = (
{
name = bottom;
position = "{359, 0}";
},
{
name = center;
position = "{361, 540}";
},
{
name = top;
position = "{361, 686}";
}
);
layerId = "54B1AC83-0CA1-46BD-96DF-6FABA525BA97";
paths = (
{
closed = 1;
nodes = (
"174 0 LINE",
"174 309 LINE",
"548 309 LINE",
"548 0 LINE",
"643 0 LINE",
"643 686 LINE",
"548 686 LINE",
"548 392 LINE",
"174 392 LINE",
"174 686 LINE",
"79 686 LINE",
"79 0 LINE"
);
}
);
width = 722;
},
{
anchors = (
{
name = bottom;
position = "{359, 0}";
},
{
name = center;
position = "{361, 540}";
},
{
name = top;
position = "{361, 686}";
}
);
layerId = "6BFFA46E-AB79-4C09-B73D-70680E42F436";
paths = (
{
closed = 1;
nodes = (
"186 0 LINE",
"186 303 LINE",
"536 303 LINE",
"536 0 LINE",
"647 0 LINE",
"647 686 LINE",
"536 686 LINE",
"536 399 LINE",
"186 399 LINE",
"186 686 LINE",
"75 686 LINE",
"75 0 LINE"
);
}
);
width = 722;
},
{
anchors = (
{
name = bottom;
position = "{358, 0}";
},
{
name = center;
position = "{361, 540}";
},
{
name = top;
position = "{360, 686}";
}
);
layerId = "E736C715-D109-4716-A17A-2CB5528FE3B0";
paths = (
{
closed = 1;
nodes = (
"199 0 LINE",
"199 296 LINE",
"523 296 LINE",
"523 0 LINE",
"651 0 LINE",
"651 686 LINE",
"523 686 LINE",
"523 406 LINE",
"199 406 LINE",
"199 686 LINE",
"71 686 LINE",
"71 0 LINE"
);
}
);
width = 722;
},
{
anchors = (
{
name = bottom;
position = "{358, 0}";
},
{
name = center;
position = "{361, 540}";
},
{
name = top;
position = "{360, 686}";
}
);
layerId = "16ED1D51-D51B-4BA0-89FC-970B5AF72829";
paths = (
{
closed = 1;
nodes = (
"212 0 LINE",
"212 289 LINE",
"510 289 LINE",
"510 0 LINE",
"655 0 LINE",
"655 686 LINE",
"510 686 LINE",
"510 414 LINE",
"212 414 LINE",
"212 686 LINE",
"67 686 LINE",
"67 0 LINE"
);
}
);
width = 722;
}
);
leftKerningGroup = H;
note = H;
rightKerningGroup = H;
unicode = 0048;
},
{
glyphname = I;
layers = (
{
anchors = (
{
name = bottom;
position = "{139, 0}";
},
{
name = ogonek;
position = "{170, 0}";
},
{
name = top;
position = "{140, 686}";
}
);
guideLines = (
{
angle = 90;
position = "{139, 274}";
}
);
layerId = "54B1AC83-0CA1-46BD-96DF-6FABA525BA97";
paths = (
{
closed = 1;
nodes = (
"187 0 LINE",
"187 686 LINE",
"92 686 LINE",
"92 0 LINE"
);
}
);
width = 278;
},
{
anchors = (
{
name = bottom;
position = "{139, 0}";
},
{
name = ogonek;
position = "{172, 0}";
},
{
name = top;
position = "{140, 686}";
}
);
guideLines = (
{
angle = 90;
position = "{139, 274}";
}
);
layerId = "6BFFA46E-AB79-4C09-B73D-70680E42F436";
paths = (
{
closed = 1;
nodes = (
"195 0 LINE",
"195 686 LINE",
"84 686 LINE",
"84 0 LINE"
);
}
);
width = 278;
},
{
anchors = (
{
name = bottom;
position = "{139, 0}";
},
{
name = ogonek;
position = "{175, 0}";
},
{
name = top;
position = "{140, 686}";
}
);
layerId = "E736C715-D109-4716-A17A-2CB5528FE3B0";
paths = (
{
closed = 1;
nodes = (
"203 0 LINE",
"203 686 LINE",
"76 686 LINE",
"76 0 LINE"
);
}
);
width = 278;
},
{
anchors = (
{
name = bottom;
position = "{139, 0}";
},
{
name = ogonek;
position = "{181, 0}";
},
{
name = top;
position = "{140, 686}";
}
);
guideLines = (
{
angle = 90;
position = "{139, 274}";
}
);
layerId = "16ED1D51-D51B-4BA0-89FC-970B5AF72829";
paths = (
{
closed = 1;
nodes = (
"212 0 LINE",
"212 686 LINE",
"67 686 LINE",
"67 0 LINE"
);
}
);
width = 278;
}
);
leftKerningGroup = H;
note = I;
rightKerningGroup = H;
unicode = 0049;
},
{
glyphname = J;
layers = (
{
anchors = (
{
name = top;
position = "{375, 686}";
}
);
layerId = "54B1AC83-0CA1-46BD-96DF-6FABA525BA97";
paths = (
{
closed = 1;
nodes = (
"350 -12 OFFCURVE",
"422 57 OFFCURVE",
"422 199 CURVE SMOOTH",
"422 686 LINE",
"327 686 LINE",
"327 194 LINE SMOOTH",
"327 111 OFFCURVE",
"291 69 OFFCURVE",
"225 69 CURVE SMOOTH",
"160 69 OFFCURVE",
"124 106 OFFCURVE",
"124 178 CURVE SMOOTH",
"124 208 LINE",
"29 208 LINE",
"29 183 LINE SMOOTH",
"29 55 OFFCURVE",
"101 -12 OFFCURVE",
"225 -12 CURVE SMOOTH"
);
}
);
width = 500;
},
{
anchors = (
{
name = top;
position = "{388, 686}";
}
);
layerId = "6BFFA46E-AB79-4C09-B73D-70680E42F436";
paths = (
{
closed = 1;
nodes = (
"369 -12 OFFCURVE",
"444 57 OFFCURVE",
"444 197 CURVE SMOOTH",
"444 686 LINE",
"334 686 LINE",
"334 194 LINE SMOOTH",
"334 120 OFFCURVE",
"300 82 OFFCURVE",
"236 82 CURVE SMOOTH",
"172 82 OFFCURVE",
"138 117 OFFCURVE",
"138 183 CURVE SMOOTH",
"138 217 LINE",
"28 217 LINE",
"28 186 LINE SMOOTH",
"28 56 OFFCURVE",
"104 -12 OFFCURVE",
"236 -12 CURVE SMOOTH"
);
}
);
width = 517;
},
{
anchors = (
{
name = top;
position = "{405, 686}";
}
);
layerId = "E736C715-D109-4716-A17A-2CB5528FE3B0";
paths = (
{
closed = 1;
nodes = (
"390 -12 OFFCURVE",
"470 58 OFFCURVE",
"470 195 CURVE SMOOTH",
"470 686 LINE",
"341 686 LINE",
"341 195 LINE SMOOTH",
"341 131 OFFCURVE",
"310 96 OFFCURVE",
"249 96 CURVE SMOOTH",
"186 96 OFFCURVE",
"153 129 OFFCURVE",
"153 189 CURVE SMOOTH",
"153 226 LINE",
"26 226 LINE",
"26 190 LINE SMOOTH",
"26 57 OFFCURVE",
"107 -12 OFFCURVE",
"249 -12 CURVE SMOOTH"
);
}
);
width = 537;
},
{
anchors = (
{
name = top;
position = "{419, 686}";
}
);
layerId = "16ED1D51-D51B-4BA0-89FC-970B5AF72829";
paths = (
{
closed = 1;
nodes = (
"412 -12 OFFCURVE",
"495 58 OFFCURVE",
"495 193 CURVE SMOOTH",
"495 686 LINE",
"349 686 LINE",
"349 195 LINE SMOOTH",
"349 141 OFFCURVE",
"320 110 OFFCURVE",
"261 110 CURVE SMOOTH",
"200 110 OFFCURVE",
"169 141 OFFCURVE",
"169 195 CURVE SMOOTH",
"169 236 LINE",
"25 236 LINE",
"25 193 LINE SMOOTH",
"25 58 OFFCURVE",
"110 -12 OFFCURVE",
"261 -12 CURVE SMOOTH"
);
}
);
width = 556;
}
);
leftKerningGroup = J;
note = J;
rightKerningGroup = J;
unicode = 004A;
},
{
glyphname = Jacute;
layers = (
{
background = {
paths = (
{
closed = 1;
nodes = (
"628 -12 OFFCURVE",
"700 57 OFFCURVE",
"700 199 CURVE SMOOTH",
"700 686 LINE",
"605 686 LINE",
"605 194 LINE SMOOTH",
"605 111 OFFCURVE",
"569 69 OFFCURVE",
"503 69 CURVE SMOOTH",
"438 69 OFFCURVE",
"402 106 OFFCURVE",
"402 178 CURVE SMOOTH",
"402 208 LINE",
"307 208 LINE",
"307 183 LINE SMOOTH",
"307 55 OFFCURVE",
"379 -12 OFFCURVE",
"503 -12 CURVE SMOOTH"
);
},
{
closed = 1;
nodes = (
"187 0 LINE",
"187 686 LINE",
"92 686 LINE",
"92 0 LINE"
);
},
{
closed = 1;
nodes = (
"181 738 LINE",
"289 867 LINE",
"288 870 LINE",
"192 870 LINE",
"106 738 LINE"
);
},
{
closed = 1;
nodes = (
"691 738 LINE",
"799 867 LINE",
"798 870 LINE",
"702 870 LINE",
"616 738 LINE"
);
}
);
};
components = (
{
name = I;
},
{
name = acutecomb.case;
transform = "{1, 0, 0, 1, 66, 160}";
},
{
name = J;
transform = "{1, 0, 0, 1, 278, 0}";
},
{
name = acutecomb.case;
transform = "{1, 0, 0, 1, 579, 160}";
}
);
layerId = "54B1AC83-0CA1-46BD-96DF-6FABA525BA97";
width = 778;
},
{
background = {
paths = (
{
closed = 1;
nodes = (
"690 -12 OFFCURVE",
"773 58 OFFCURVE",
"773 193 CURVE SMOOTH",
"773 686 LINE",
"627 686 LINE",
"627 195 LINE SMOOTH",
"627 141 OFFCURVE",
"598 110 OFFCURVE",
"539 110 CURVE SMOOTH",
"478 110 OFFCURVE",
"447 141 OFFCURVE",
"447 195 CURVE SMOOTH",
"447 236 LINE",
"303 236 LINE",
"303 193 LINE SMOOTH",
"303 58 OFFCURVE",
"388 -12 OFFCURVE",
"539 -12 CURVE SMOOTH"
);
},
{
closed = 1;
nodes = (
"212 0 LINE",
"212 686 LINE",
"67 686 LINE",
"67 0 LINE"
);
},
{
closed = 1;
nodes = (
"193 738 LINE",
"301 867 LINE",
"300 870 LINE",
"167 870 LINE",
"88 738 LINE"
);
},
{
closed = 1;
nodes = (
"753 736 LINE",
"861 865 LINE",
"860 868 LINE",
"727 868 LINE",
"648 736 LINE"
);
}
);
};
components = (
{
name = I;
},
{
name = acutecomb.case;
transform = "{1, 0, 0, 1, 83, 160}";
},
{
name = J;
transform = "{1, 0, 0, 1, 278, 0}";
},
{
name = acutecomb.case;
transform = "{1, 0, 0, 1, 640, 160}";
}
);
layerId = "16ED1D51-D51B-4BA0-89FC-970B5AF72829";
width = 834;
},
{
background = {
paths = (
{
closed = 1;
nodes = (
"668 -12 OFFCURVE",
"748 58 OFFCURVE",
"748 195 CURVE SMOOTH",
"748 686 LINE",
"619 686 LINE",
"619 195 LINE SMOOTH",
"619 131 OFFCURVE",
"588 96 OFFCURVE",
"527 96 CURVE SMOOTH",
"464 96 OFFCURVE",
"431 129 OFFCURVE",
"431 189 CURVE SMOOTH",
"431 226 LINE",
"304 226 LINE",
"304 190 LINE SMOOTH",
"304 57 OFFCURVE",
"385 -12 OFFCURVE",
"527 -12 CURVE SMOOTH"
);
},
{
closed = 1;
nodes = (
"203 0 LINE",
"203 686 LINE",
"76 686 LINE",
"76 0 LINE"
);
},
{
closed = 1;
nodes = (
"189 738 LINE",
"297 867 LINE",
"296 870 LINE",
"175 870 LINE",
"94 738 LINE"
);
},
{
closed = 1;
nodes = (
"735 736 LINE",
"843 865 LINE",
"842 868 LINE",
"721 868 LINE",
"640 736 LINE"
);
}
);
};
components = (
{
name = I;
},
{
name = acutecomb.case;
transform = "{1, 0, 0, 1, 77, 160}";
},
{
name = J;
transform = "{1, 0, 0, 1, 278, 0}";
},
{
name = acutecomb.case;
transform = "{1, 0, 0, 1, 620, 160}";
}
);
layerId = "E736C715-D109-4716-A17A-2CB5528FE3B0";
width = 815;
},
{
background = {
paths = (
{
closed = 1;
nodes = (
"647 -12 OFFCURVE",
"722 57 OFFCURVE",
"722 197 CURVE SMOOTH",
"722 686 LINE",
"612 686 LINE",
"612 194 LINE SMOOTH",
"612 120 OFFCURVE",
"578 82 OFFCURVE",
"514 82 CURVE SMOOTH",
"450 82 OFFCURVE",
"416 117 OFFCURVE",
"416 183 CURVE SMOOTH",
"416 217 LINE",
"306 217 LINE",
"306 186 LINE SMOOTH",
"306 56 OFFCURVE",
"382 -12 OFFCURVE",
"514 -12 CURVE SMOOTH"
);
},
{
closed = 1;
nodes = (
"195 0 LINE",
"195 686 LINE",
"84 686 LINE",
"84 0 LINE"
);
},
{
closed = 1;
nodes = (
"181 738 LINE",
"289 867 LINE",
"288 870 LINE",
"181 870 LINE",
"97 738 LINE"
);
},
{
closed = 1;
nodes = (
"708 738 LINE",
"816 867 LINE",
"815 870 LINE",
"708 870 LINE",
"624 738 LINE"
);
}
);
};
components = (
{
name = I;
},
{
name = acutecomb.case;
transform = "{1, 0, 0, 1, 84, 160}";
},
{
name = J;
transform = "{1, 0, 0, 1, 278, 0}";
},
{
name = acutecomb.case;
transform = "{1, 0, 0, 1, 610, 160}";
}
);
layerId = "6BFFA46E-AB79-4C09-B73D-70680E42F436";
width = 795;
}
);
leftKerningGroup = H;
rightKerningGroup = J;
},
{
glyphname = K;
layers = (
{
anchors = (
{
name = bottom;
position = "{346, 0}";
}
);
layerId = "54B1AC83-0CA1-46BD-96DF-6FABA525BA97";
paths = (
{
closed = 1;
nodes = (
"174 0 LINE",
"174 200 LINE",
"328 344 LINE",
"551 0 LINE",
"664 0 LINE",
"394 412 LINE",
"655 686 LINE",
"537 686 LINE",
"174 308 LINE",
"174 686 LINE",
"79 686 LINE",
"79 0 LINE"
);
}
);
width = 667;
},
{
anchors = (
{
name = bottom;
position = "{345, 0}";
}
);
layerId = "6BFFA46E-AB79-4C09-B73D-70680E42F436";
paths = (
{
closed = 1;
nodes = (
"186 0 LINE",
"186 200 LINE",
"332 332 LINE",
"547 0 LINE",
"678 0 LINE",
"407 410 LINE",
"670 686 LINE",
"535 686 LINE",
"186 322 LINE",
"186 686 LINE",
"75 686 LINE",
"75 0 LINE"
);
}
);
width = 684;
},
{
anchors = (
{
name = bottom;
position = "{357, 0}";
}
);
layerId = "E736C715-D109-4716-A17A-2CB5528FE3B0";
paths = (
{
closed = 1;
nodes = (
"199 0 LINE",
"199 199 LINE",
"336 319 LINE",
"542 0 LINE",
"693 0 LINE",
"422 409 LINE",
"688 686 LINE",
"532 686 LINE",
"199 339 LINE",
"199 686 LINE",
"71 686 LINE",
"71 0 LINE"
);
}
);
width = 703;
},
{
anchors = (
{
name = bottom;
position = "{356, 0}";
}
);
layerId = "16ED1D51-D51B-4BA0-89FC-970B5AF72829";
paths = (
{
closed = 1;
nodes = (
"212 0 LINE",
"212 199 LINE",
"340 305 LINE",
"537 0 LINE",
"709 0 LINE",
"437 407 LINE",
"705 686 LINE",
"529 686 LINE",
"212 355 LINE",
"212 686 LINE",
"67 686 LINE",
"67 0 LINE"
);
}
);
width = 722;
}
);
leftKerningGroup = H;
note = K;
rightKerningGroup = K;
unicode = 004B;
},
{
glyphname = L;
layers = (
{
anchors = (
{
name = bottom;
position = "{307, 0}";
},
{
name = center;
position = "{404, 360}";
},
{
name = top;
position = "{128, 686}";
},
{
name = topright;
position = "{274, 526}";
}
);
layerId = "54B1AC83-0CA1-46BD-96DF-6FABA525BA97";
paths = (
{
closed = 1;
nodes = (
"526 0 LINE",
"526 83 LINE",
"174 83 LINE",
"174 686 LINE",
"79 686 LINE",
"79 0 LINE"
);
}
);
width = 556;
},
{
anchors = (
{
name = bottom;
position = "{314, 0}";
},
{
name = center;
position = "{418, 360}";
},
{
name = top;
position = "{130, 686}";
},
{
name = topright;
position = "{286, 526}";
}
);
layerId = "6BFFA46E-AB79-4C09-B73D-70680E42F436";
paths = (
{
closed = 1;
nodes = (
"543 0 LINE",
"543 96 LINE",
"186 96 LINE",
"186 686 LINE",
"75 686 LINE",
"75 0 LINE"
);
}
);
width = 573;
},
{
anchors = (
{
name = bottom;
position = "{326, 0}";
},
{
name = center;
position = "{430, 370}";
},
{
name = top;
position = "{133, 686}";
},
{
name = topright;
position = "{299, 526}";
}
);
layerId = "E736C715-D109-4716-A17A-2CB5528FE3B0";
paths = (
{
closed = 1;
nodes = (
"563 0 LINE",
"563 111 LINE",
"199 111 LINE",
"199 686 LINE",
"71 686 LINE",
"71 0 LINE"
);
}
);
width = 592;
},
{
anchors = (
{
name = bottom;
position = "{332, 0}";
},
{
name = center;
position = "{443, 370}";
},
{
name = top;
position = "{139, 686}";
},
{
name = topright;
position = "{312, 526}";
}
);
layerId = "16ED1D51-D51B-4BA0-89FC-970B5AF72829";
paths = (
{
closed = 1;
nodes = (
"582 0 LINE",
"582 126 LINE",
"212 126 LINE",
"212 686 LINE",
"67 686 LINE",
"67 0 LINE"
);
}
);
width = 611;
}
);
leftKerningGroup = H;
note = L;
rightKerningGroup = L;
unicode = 004C;
},
{
glyphname = Lslash;
layers = (
{
background = {
paths = (
{
closed = 1;
nodes = (
"341 438 LINE",
"341 520 LINE",
"5 297 LINE",
"5 216 LINE"
);
}
);
};
layerId = "54B1AC83-0CA1-46BD-96DF-6FABA525BA97";
paths = (
{
closed = 1;
nodes = (
"526 0 LINE",
"526 83 LINE",
"174 83 LINE",
"174 328 LINE",
"371 458 LINE",
"371 540 LINE",
"174 409 LINE",
"174 686 LINE",
"79 686 LINE",
"79 346 LINE",
"5 297 LINE",
"5 216 LINE",
"79 265 LINE",
"79 0 LINE"
);
}
);
width = 556;
},
{
background = {
paths = (
{
closed = 1;
nodes = (
"75 259 LINE",
"75 0 LINE",
"543 0 LINE",
"543 96 LINE",
"186 96 LINE",
"186 332 LINE",
"345 437 LINE",
"345 525 LINE",
"186 420 LINE",
"186 686 LINE",
"75 686 LINE",
"75 347 LINE",
"3 299 LINE",
"3 212 LINE"
);
}
);
};
layerId = "6BFFA46E-AB79-4C09-B73D-70680E42F436";
paths = (
{
closed = 1;
nodes = (
"543 0 LINE",
"543 96 LINE",
"186 96 LINE",
"186 332 LINE",
"366 451 LINE",
"366 539 LINE",
"186 419 LINE",
"186 686 LINE",
"75 686 LINE",
"75 345 LINE",
"4 298 LINE",
"4 211 LINE",
"75 258 LINE",
"75 0 LINE"
);
}
);
width = 573;
},
{
background = {
paths = (
{
closed = 1;
nodes = (
"349 435 LINE",
"349 530 LINE",
"2 301 LINE",
"2 206 LINE"
);
}
);
};
layerId = "E736C715-D109-4716-A17A-2CB5528FE3B0";
paths = (
{
closed = 1;
nodes = (
"563 0 LINE",
"563 111 LINE",
"199 111 LINE",
"199 334 LINE",
"369 445 LINE",
"369 540 LINE",
"199 429 LINE",
"199 686 LINE",
"71 686 LINE",
"71 346 LINE",
"2 301 LINE",
"2 206 LINE",
"71 251 LINE",
"71 0 LINE"
);
}
);
width = 592;
},
{
layerId = "16ED1D51-D51B-4BA0-89FC-970B5AF72829";
paths = (
{
closed = 1;
nodes = (
"582 0 LINE",
"582 126 LINE",
"212 126 LINE",
"212 325 LINE",
"373 434 LINE",
"373 536 LINE",
"212 427 LINE",
"212 686 LINE",
"67 686 LINE",
"67 328 LINE",
"0 283 LINE",
"0 181 LINE",
"67 226 LINE",
"67 0 LINE"
);
}
);
width = 611;
}
);
leftKerningGroup = H;
note = Lslash;
rightKerningGroup = L;
unicode = 0141;
},
{
glyphname = M;
layers = (
{
layerId = "54B1AC83-0CA1-46BD-96DF-6FABA525BA97";
paths = (
{
closed = 1;
nodes = (
"168 0 LINE",
"168 453 LINE SMOOTH",
"168 481 OFFCURVE",
"166 581 OFFCURVE",
"166 581 CURVE",
"172 581 LINE",
"172 581 OFFCURVE",
"181 537 OFFCURVE",
"189 515 CURVE SMOOTH",
"372 0 LINE",
"451 0 LINE",
"637 515 LINE SMOOTH",
"646 541 OFFCURVE",
"654 581 OFFCURVE",
"654 581 CURVE",
"661 581 LINE",
"660 538 OFFCURVE",
"660 496 OFFCURVE",
"659 453 CURVE",
"659 0 LINE",
"754 0 LINE",
"754 686 LINE",
"614 686 LINE",
"449 218 LINE SMOOTH",
"436 183 OFFCURVE",
"419 115 OFFCURVE",
"419 115 CURVE SMOOTH",
"415 115 LINE SMOOTH",
"415 115 OFFCURVE",
"399 176 OFFCURVE",
"384 218 CURVE SMOOTH",
"220 686 LINE",
"79 686 LINE",
"79 0 LINE"
);
}
);
width = 833;
},
{
layerId = "6BFFA46E-AB79-4C09-B73D-70680E42F436";
paths = (
{
closed = 1;
nodes = (
"180 0 LINE",
"180 448 LINE SMOOTH",
"180 476 OFFCURVE",
"177 571 OFFCURVE",
"177 571 CURVE",
"182 571 LINE",
"185 562 OFFCURVE",
"193 524 OFFCURVE",
"201 500 CURVE SMOOTH",
"364 0 LINE",
"461 0 LINE",
"626 500 LINE SMOOTH",
"634 526 OFFCURVE",
"642 562 OFFCURVE",
"644 571 CURVE",
"651 571 LINE",
"651 571 OFFCURVE",
"647 469 OFFCURVE",
"647 448 CURVE SMOOTH",
"647 0 LINE",
"758 0 LINE",
"758 686 LINE",
"594 686 LINE",
"451 246 LINE SMOOTH",
"438 209 OFFCURVE",
"421 127 OFFCURVE",
"421 127 CURVE SMOOTH",
"417 127 LINE SMOOTH",
"417 127 OFFCURVE",
"400 203 OFFCURVE",
"386 246 CURVE SMOOTH",
"242 686 LINE",
"75 686 LINE",
"75 0 LINE"
);
}
);
width = 833;
},
{
layerId = "E736C715-D109-4716-A17A-2CB5528FE3B0";
paths = (
{
closed = 1;
nodes = (
"193 0 LINE",
"193 443 LINE SMOOTH",
"193 470 OFFCURVE",
"189 559 OFFCURVE",
"189 559 CURVE",
"194 559 LINE",
"199 541 OFFCURVE",
"206 508 OFFCURVE",
"214 483 CURVE SMOOTH",
"354 0 LINE",
"472 0 LINE",
"613 483 LINE SMOOTH",
"621 510 OFFCURVE",
"629 541 OFFCURVE",
"633 559 CURVE",
"639 559 LINE",
"639 559 OFFCURVE",
"634 469 OFFCURVE",
"634 443 CURVE SMOOTH",
"634 0 LINE",
"762 0 LINE",
"762 686 LINE",
"572 686 LINE",
"452 277 LINE SMOOTH",
"441 239 OFFCURVE",
"424 140 OFFCURVE",
"424 140 CURVE SMOOTH",
"419 140 LINE SMOOTH",
"419 140 OFFCURVE",
"400 233 OFFCURVE",
"387 277 CURVE SMOOTH",
"268 686 LINE",
"71 686 LINE",
"71 0 LINE"
);
}
);
width = 833;
},
{
layerId = "16ED1D51-D51B-4BA0-89FC-970B5AF72829";
paths = (
{
closed = 1;
nodes = (
"207 0 LINE",
"207 437 LINE SMOOTH",
"207 464 OFFCURVE",
"201 547 OFFCURVE",
"201 547 CURVE",
"206 547 LINE",
"227 466 LINE",
"345 0 LINE",
"483 0 LINE",
"601 466 LINE",
"622 547 LINE",
"627 547 LINE",
"627 547 OFFCURVE",
"621 468 OFFCURVE",
"621 437 CURVE SMOOTH",
"621 0 LINE",
"766 0 LINE",
"766 686 LINE",
"550 686 LINE",
"454 308 LINE SMOOTH",
"444 268 OFFCURVE",
"426 153 OFFCURVE",
"426 153 CURVE SMOOTH",
"421 153 LINE SMOOTH",
"421 153 OFFCURVE",
"401 263 OFFCURVE",
"389 308 CURVE SMOOTH",
"293 686 LINE",
"67 686 LINE",
"67 0 LINE"
);
}
);
width = 833;
}
);
leftKerningGroup = H;
note = M;
rightKerningGroup = H;
unicode = 004D;
},
{
glyphname = N;
layers = (
{
anchors = (
{
name = bottom;
position = "{363, 0}";
},
{
name = top;
position = "{369, 686}";
}
);
layerId = "54B1AC83-0CA1-46BD-96DF-6FABA525BA97";
paths = (
{
closed = 1;
nodes = (
"168 0 LINE",
"168 477 LINE SMOOTH",
"168 491 OFFCURVE",
"168 504 OFFCURVE",
"168 518 CURVE",
"172 519 LINE",
"181 507 OFFCURVE",
"188 497 OFFCURVE",
"198 484 CURVE SMOOTH",
"562 0 LINE",
"643 0 LINE",
"643 686 LINE",
"554 686 LINE",
"554 223 LINE SMOOTH",
"554 208 OFFCURVE",
"554 192 OFFCURVE",
"554 177 CURVE",
"550 176 LINE",
"542 187 OFFCURVE",
"534 197 OFFCURVE",
"526 208 CURVE SMOOTH",
"164 686 LINE",
"79 686 LINE",
"79 0 LINE"
);
}
);
width = 722;
},
{
anchors = (
{
name = bottom;
position = "{363, 0}";
},
{
name = top;
position = "{366, 686}";
}
);
layerId = "6BFFA46E-AB79-4C09-B73D-70680E42F436";
paths = (
{
closed = 1;
nodes = (
"180 0 LINE",
"180 443 LINE SMOOTH",
"180 459 OFFCURVE",
"179 483 OFFCURVE",
"179 494 CURVE",
"184 495 LINE",
"190 487 OFFCURVE",
"201 468 OFFCURVE",
"214 451 CURVE SMOOTH",
"547 0 LINE",
"647 0 LINE",
"647 686 LINE",
"542 686 LINE",
"542 249 LINE",
"543 199 LINE",
"538 197 LINE",
"533 205 OFFCURVE",
"519 227 OFFCURVE",
"509 240 CURVE SMOOTH",
"177 686 LINE",
"75 686 LINE",
"75 0 LINE"
);
}
);
width = 722;
},
{
anchors = (
{
name = bottom;
position = "{363, 0}";
},
{
name = top;
position = "{368, 686}";
}
);
layerId = "E736C715-D109-4716-A17A-2CB5528FE3B0";
paths = (
{
closed = 1;
nodes = (
"194 0 LINE",
"194 411 LINE SMOOTH",
"194 428 OFFCURVE",
"192 461 OFFCURVE",
"192 466 CURVE",
"197 469 LINE",
"200 465 OFFCURVE",
"215 436 OFFCURVE",
"231 413 CURVE SMOOTH",
"531 0 LINE",
"651 0 LINE",
"651 686 LINE",
"528 686 LINE",
"528 278 LINE SMOOTH",
"528 265 OFFCURVE",
"530 230 OFFCURVE",
"530 224 CURVE",
"525 222 LINE",
"522 226 OFFCURVE",
"502 261 OFFCURVE",
"491 277 CURVE SMOOTH",
"193 686 LINE",
"71 686 LINE",
"71 0 LINE"
);
}
);
width = 722;
},
{
anchors = (
{
name = bottom;
position = "{363, 0}";
},
{
name = top;
position = "{367, 686}";
}
);
layerId = "16ED1D51-D51B-4BA0-89FC-970B5AF72829";
paths = (
{
closed = 1;
nodes = (
"208 0 LINE",
"208 379 LINE SMOOTH",
"208 397 OFFCURVE",
"205 439 OFFCURVE",
"205 439 CURVE",
"210 442 LINE",
"210 442 OFFCURVE",
"229 404 OFFCURVE",
"249 376 CURVE SMOOTH",
"514 0 LINE",
"655 0 LINE",
"655 686 LINE",
"514 686 LINE",
"514 307 LINE SMOOTH",
"514 296 OFFCURVE",
"517 249 OFFCURVE",
"517 249 CURVE",
"512 246 LINE",
"512 246 OFFCURVE",
"485 295 OFFCURVE",
"472 313 CURVE SMOOTH",
"208 686 LINE",
"67 686 LINE",
"67 0 LINE"
);
}
);
width = 722;
}
);
leftKerningGroup = H;
note = N;
rightKerningGroup = H;
unicode = 004E;
},
{
glyphname = Eng;
layers = (
{
layerId = "54B1AC83-0CA1-46BD-96DF-6FABA525BA97";
paths = (
{
closed = 1;
nodes = (
"618 -182 OFFCURVE",
"643 -121 OFFCURVE",
"643 -61 CURVE SMOOTH",
"643 686 LINE",
"554 686 LINE",
"554 217 LINE",
"554 204 OFFCURVE",
"554 190 OFFCURVE",
"554 177 CURVE",
"550 176 LINE",
"542 187 OFFCURVE",
"534 197 OFFCURVE",
"526 208 CURVE",
"164 686 LINE",
"79 686 LINE",
"79 0 LINE",
"168 0 LINE",
"170 470 LINE SMOOTH",
"170 486 OFFCURVE",
"169 501 OFFCURVE",
"168 517 CURVE",
"172 518 LINE",
"182 508 OFFCURVE",
"191 498 OFFCURVE",
"200 485 CURVE SMOOTH",
"554 0 LINE",
"554 -65 LINE SMOOTH",
"554 -96 OFFCURVE",
"538 -113 OFFCURVE",
"507 -113 CURVE SMOOTH",
"464 -113 LINE",
"464 -170 LINE",
"481 -176 OFFCURVE",
"509 -182 OFFCURVE",
"533 -182 CURVE SMOOTH"
);
}
);
width = 722;
},
{
layerId = "6BFFA46E-AB79-4C09-B73D-70680E42F436";
paths = (
{
closed = 1;
nodes = (
"620 -182 OFFCURVE",
"647 -118 OFFCURVE",
"647 -55 CURVE SMOOTH",
"647 686 LINE",
"542 686 LINE",
"542 250 LINE",
"543 200 LINE",
"538 198 LINE",
"533 206 OFFCURVE",
"519 228 OFFCURVE",
"509 241 CURVE SMOOTH",
"177 686 LINE",
"75 686 LINE",
"75 0 LINE",
"180 0 LINE",
"182 441 LINE SMOOTH",
"182 458 OFFCURVE",
"180 481 OFFCURVE",
"179 492 CURVE",
"184 494 LINE",
"191 486 OFFCURVE",
"202 467 OFFCURVE",
"215 451 CURVE",
"542 0 LINE",
"542 -53 LINE SMOOTH",
"542 -83 OFFCURVE",
"526 -100 OFFCURVE",
"496 -100 CURVE SMOOTH",
"450 -100 LINE",
"450 -169 LINE",
"469 -175 OFFCURVE",
"502 -182 OFFCURVE",
"528 -182 CURVE SMOOTH"
);
}
);
width = 722;
},
{
layerId = "E736C715-D109-4716-A17A-2CB5528FE3B0";
paths = (
{
closed = 1;
nodes = (
"622 -182 OFFCURVE",
"651 -114 OFFCURVE",
"651 -48 CURVE SMOOTH",
"651 686 LINE",
"528 686 LINE",
"528 280 LINE SMOOTH",
"528 267 OFFCURVE",
"530 232 OFFCURVE",
"530 226 CURVE",
"525 224 LINE",
"522 227 OFFCURVE",
"502 263 OFFCURVE",
"491 279 CURVE SMOOTH",
"193 686 LINE",
"71 686 LINE",
"71 0 LINE",
"194 0 LINE",
"195 409 LINE SMOOTH",
"195 426 OFFCURVE",
"193 459 OFFCURVE",
"192 464 CURVE",
"197 466 LINE",
"200 463 OFFCURVE",
"215 434 OFFCURVE",
"232 412 CURVE SMOOTH",
"528 0 LINE",
"528 -40 LINE SMOOTH",
"528 -69 OFFCURVE",
"513 -85 OFFCURVE",
"483 -85 CURVE SMOOTH",
"435 -85 LINE",
"435 -167 LINE",
"456 -175 OFFCURVE",
"493 -182 OFFCURVE",
"523 -182 CURVE SMOOTH"
);
}
);
width = 722;
},
{
layerId = "16ED1D51-D51B-4BA0-89FC-970B5AF72829";
paths = (
{
closed = 1;
nodes = (
"624 -182 OFFCURVE",
"655 -111 OFFCURVE",
"655 -41 CURVE SMOOTH",
"655 686 LINE",
"514 686 LINE",
"514 310 LINE SMOOTH",
"514 299 OFFCURVE",
"517 252 OFFCURVE",
"517 252 CURVE",
"512 249 LINE",
"512 249 OFFCURVE",
"485 298 OFFCURVE",
"472 316 CURVE SMOOTH",
"208 686 LINE",
"67 686 LINE",
"67 0 LINE",
"208 0 LINE",
"208 376 LINE SMOOTH",
"208 394 OFFCURVE",
"205 436 OFFCURVE",
"205 436 CURVE",
"210 439 LINE",
"210 439 OFFCURVE",
"229 401 OFFCURVE",
"249 373 CURVE SMOOTH",
"514 0 LINE",
"514 -27 LINE SMOOTH",
"514 -55 OFFCURVE",
"499 -70 OFFCURVE",
"471 -70 CURVE SMOOTH",
"419 -70 LINE",
"419 -166 LINE",
"442 -174 OFFCURVE",
"485 -182 OFFCURVE",
"517 -182 CURVE SMOOTH"
);
}
);
width = 722;
}
);
leftKerningGroup = H;
note = Eng;
rightKerningGroup = H;
unicode = 014A;
},
{
glyphname = Nhookleft;
layers = (
{
layerId = "54B1AC83-0CA1-46BD-96DF-6FABA525BA97";
paths = (
{
closed = 1;
nodes = (
"143 -182 OFFCURVE",
"168 -121 OFFCURVE",
"168 -61 CURVE SMOOTH",
"168 447 LINE SMOOTH",
"168 471 OFFCURVE",
"168 494 OFFCURVE",
"168 518 CURVE",
"172 519 LINE",
"185 501 OFFCURVE",
"199 484 OFFCURVE",
"212 466 CURVE SMOOTH",
"562 0 LINE",
"643 0 LINE",
"643 686 LINE",
"554 686 LINE",
"554 216 LINE",
"554 203 OFFCURVE",
"554 190 OFFCURVE",
"554 177 CURVE",
"550 176 LINE",
"542 187 OFFCURVE",
"534 197 OFFCURVE",
"526 208 CURVE SMOOTH",
"164 686 LINE",
"79 686 LINE",
"79 -65 LINE SMOOTH",
"79 -96 OFFCURVE",
"63 -113 OFFCURVE",
"32 -113 CURVE SMOOTH",
"-11 -113 LINE",
"-11 -170 LINE",
"6 -176 OFFCURVE",
"34 -182 OFFCURVE",
"58 -182 CURVE SMOOTH"
);
}
);
width = 722;
},
{
layerId = "6BFFA46E-AB79-4C09-B73D-70680E42F436";
paths = (
{
closed = 1;
nodes = (
"153 -182 OFFCURVE",
"180 -118 OFFCURVE",
"180 -55 CURVE SMOOTH",
"180 425 LINE SMOOTH",
"180 448 OFFCURVE",
"179 477 OFFCURVE",
"179 494 CURVE",
"184 495 LINE",
"193 483 OFFCURVE",
"208 460 OFFCURVE",
"223 438 CURVE",
"547 0 LINE",
"647 0 LINE",
"647 686 LINE",
"542 686 LINE",
"542 249 LINE",
"543 199 LINE",
"538 197 LINE",
"533 205 OFFCURVE",
"519 227 OFFCURVE",
"509 240 CURVE SMOOTH",
"177 686 LINE",
"75 686 LINE",
"75 -53 LINE SMOOTH",
"75 -83 OFFCURVE",
"60 -100 OFFCURVE",
"30 -100 CURVE SMOOTH",
"-16 -100 LINE",
"-16 -169 LINE",
"3 -175 OFFCURVE",
"35 -182 OFFCURVE",
"62 -182 CURVE SMOOTH"
);
}
);
width = 722;
},
{
layerId = "E736C715-D109-4716-A17A-2CB5528FE3B0";
paths = (
{
closed = 1;
nodes = (
"165 -182 OFFCURVE",
"194 -114 OFFCURVE",
"194 -48 CURVE SMOOTH",
"194 402 LINE SMOOTH",
"194 422 OFFCURVE",
"192 458 OFFCURVE",
"192 466 CURVE",
"197 469 LINE",
"201 462 OFFCURVE",
"219 432 OFFCURVE",
"236 407 CURVE SMOOTH",
"531 0 LINE",
"651 0 LINE",
"651 686 LINE",
"528 686 LINE",
"528 278 LINE SMOOTH",
"528 265 OFFCURVE",
"530 230 OFFCURVE",
"530 224 CURVE",
"525 222 LINE",
"522 226 OFFCURVE",
"502 261 OFFCURVE",
"491 277 CURVE SMOOTH",
"193 686 LINE",
"71 686 LINE",
"71 -40 LINE SMOOTH",
"71 -69 OFFCURVE",
"56 -85 OFFCURVE",
"27 -85 CURVE SMOOTH",
"-22 -85 LINE",
"-22 -167 LINE",
"-1 -175 OFFCURVE",
"37 -182 OFFCURVE",
"66 -182 CURVE SMOOTH"
);
}
);
width = 722;
},
{
layerId = "16ED1D51-D51B-4BA0-89FC-970B5AF72829";
paths = (
{
closed = 1;
nodes = (
"177 -182 OFFCURVE",
"208 -111 OFFCURVE",
"208 -41 CURVE SMOOTH",
"208 379 LINE SMOOTH",
"208 397 OFFCURVE",
"205 439 OFFCURVE",
"205 439 CURVE",
"210 442 LINE",
"210 442 OFFCURVE",
"229 404 OFFCURVE",
"249 376 CURVE SMOOTH",
"514 0 LINE",
"655 0 LINE",
"655 686 LINE",
"514 686 LINE",
"514 307 LINE SMOOTH",
"514 296 OFFCURVE",
"517 249 OFFCURVE",
"517 249 CURVE",
"512 246 LINE",
"512 246 OFFCURVE",
"485 295 OFFCURVE",
"472 313 CURVE SMOOTH",
"208 686 LINE",
"67 686 LINE",
"67 -27 LINE SMOOTH",
"67 -55 OFFCURVE",
"52 -70 OFFCURVE",
"24 -70 CURVE SMOOTH",
"-28 -70 LINE",
"-28 -166 LINE",
"-5 -174 OFFCURVE",
"38 -182 OFFCURVE",
"70 -182 CURVE SMOOTH"
);
}
);
width = 722;
}
);
leftKerningGroup = H;
note = uni019D;
rightKerningGroup = H;
unicode = 019D;
},
{
glyphname = O;
layers = (
{
anchors = (
{
name = bottom;
position = "{403, 0}";
},
{
name = center;
position = "{389, 343}";
},
{
name = ogonek;
position = "{428, 0}";
},
{
name = top;
position = "{389, 686}";
},
{
name = topleft;
position = "{20, 686}";
},
{
name = topright;
position = "{497, 686}";
}
);
layerId = "54B1AC83-0CA1-46BD-96DF-6FABA525BA97";
paths = (
{
closed = 1;
nodes = (
"603 -12 OFFCURVE",
"732 105 OFFCURVE",
"732 343 CURVE SMOOTH",
"732 581 OFFCURVE",
"603 698 OFFCURVE",
"389 698 CURVE SMOOTH",
"175 698 OFFCURVE",
"47 581 OFFCURVE",
"47 343 CURVE SMOOTH",
"47 105 OFFCURVE",
"175 -12 OFFCURVE",
"389 -12 CURVE SMOOTH"
);
},
{
closed = 1;
nodes = (
"238 69 OFFCURVE",
"145 144 OFFCURVE",
"145 339 CURVE SMOOTH",
"145 343 LINE SMOOTH",
"146 541 OFFCURVE",
"239 617 OFFCURVE",
"389 617 CURVE SMOOTH",
"540 617 OFFCURVE",
"633 541 OFFCURVE",
"634 343 CURVE SMOOTH",
"634 339 LINE SMOOTH",
"634 144 OFFCURVE",
"541 69 OFFCURVE",
"389 69 CURVE SMOOTH"
);
}
);
width = 778;
},
{
anchors = (
{
name = bottom;
position = "{403, 0}";
},
{
name = center;
position = "{389, 343}";
},
{
name = ogonek;
position = "{425, 0}";
},
{
name = top;
position = "{389, 686}";
},
{
name = topleft;
position = "{20, 686}";
},
{
name = topright;
position = "{499, 686}";
}
);
layerId = "6BFFA46E-AB79-4C09-B73D-70680E42F436";
paths = (
{
closed = 1;
nodes = (
"604 -12 OFFCURVE",
"734 104 OFFCURVE",
"734 343 CURVE SMOOTH",
"734 582 OFFCURVE",
"604 698 OFFCURVE",
"389 698 CURVE SMOOTH",
"175 698 OFFCURVE",
"45 582 OFFCURVE",
"45 343 CURVE SMOOTH",
"45 104 OFFCURVE",
"175 -12 OFFCURVE",
"389 -12 CURVE SMOOTH"
);
},
{
closed = 1;
nodes = (
"244 82 OFFCURVE",
"159 159 OFFCURVE",
"159 336 CURVE SMOOTH",
"159 348 LINE SMOOTH",
"160 527 OFFCURVE",
"245 604 OFFCURVE",
"389 604 CURVE SMOOTH",
"534 604 OFFCURVE",
"619 527 OFFCURVE",
"620 348 CURVE SMOOTH",
"620 336 LINE SMOOTH",
"620 159 OFFCURVE",
"535 82 OFFCURVE",
"389 82 CURVE SMOOTH"
);
}
);
width = 778;
},
{
anchors = (
{
name = bottom;
position = "{403, 0}";
},
{
name = center;
position = "{389, 343}";
},
{
name = ogonek;
position = "{429, 0}";
},
{
name = top;
position = "{389, 686}";
},
{
name = topleft;
position = "{20, 686}";
},
{
name = topright;
position = "{499, 686}";
}
);
layerId = "E736C715-D109-4716-A17A-2CB5528FE3B0";
paths = (
{
closed = 1;
nodes = (
"604 -12 OFFCURVE",
"735 102 OFFCURVE",
"735 343 CURVE SMOOTH",
"735 584 OFFCURVE",
"604 698 OFFCURVE",
"389 698 CURVE SMOOTH",
"174 698 OFFCURVE",
"44 584 OFFCURVE",
"44 343 CURVE SMOOTH",
"44 102 OFFCURVE",
"174 -12 OFFCURVE",
"389 -12 CURVE SMOOTH"
);
},
{
closed = 1;
nodes = (
"250 96 OFFCURVE",
"175 175 OFFCURVE",
"175 332 CURVE SMOOTH",
"175 353 LINE SMOOTH",
"175 510 OFFCURVE",
"251 590 OFFCURVE",
"389 590 CURVE SMOOTH",
"528 590 OFFCURVE",
"604 510 OFFCURVE",
"604 353 CURVE SMOOTH",
"604 332 LINE SMOOTH",
"604 175 OFFCURVE",
"529 96 OFFCURVE",
"389 96 CURVE SMOOTH"
);
}
);
width = 778;
},
{
anchors = (
{
name = bottom;
position = "{403, 0}";
},
{
name = center;
position = "{389, 343}";
},
{
name = ogonek;
position = "{436, 0}";
},
{
name = top;
position = "{389, 686}";
},
{
name = topleft;
position = "{20, 686}";
},
{
name = topright;
position = "{500, 686}";
}
);
layerId = "16ED1D51-D51B-4BA0-89FC-970B5AF72829";
paths = (
{
closed = 1;
nodes = (
"605 -12 OFFCURVE",
"737 101 OFFCURVE",
"737 343 CURVE SMOOTH",
"737 585 OFFCURVE",
"605 698 OFFCURVE",
"389 698 CURVE SMOOTH",
"174 698 OFFCURVE",
"42 585 OFFCURVE",
"42 343 CURVE SMOOTH",
"42 101 OFFCURVE",
"174 -12 OFFCURVE",
"389 -12 CURVE SMOOTH"
);
},
{
closed = 1;
nodes = (
"257 111 OFFCURVE",
"191 192 OFFCURVE",
"191 328 CURVE SMOOTH",
"191 358 LINE SMOOTH",
"191 494 OFFCURVE",
"257 575 OFFCURVE",
"389 575 CURVE SMOOTH",
"522 575 OFFCURVE",
"588 494 OFFCURVE",
"588 358 CURVE SMOOTH",
"588 328 LINE SMOOTH",
"588 192 OFFCURVE",
"522 111 OFFCURVE",
"389 111 CURVE SMOOTH"
);
}
);
width = 778;
}
);
leftKerningGroup = O;
note = O;
rightKerningGroup = O;
unicode = 004F;
},
{
glyphname = Ohorn;
layers = (
{
background = {
paths = (
{
closed = 1;
nodes = (
"778 828 LINE",
"658 828 LINE",
"658 720 LINE",
"711 720 LINE",
"699 676 OFFCURVE",
"665 649 OFFCURVE",
"609 637 CURVE",
"553 678 OFFCURVE",
"478 698 OFFCURVE",
"389 698 CURVE SMOOTH",
"175 698 OFFCURVE",
"47 581 OFFCURVE",
"47 343 CURVE SMOOTH",
"47 105 OFFCURVE",
"175 -12 OFFCURVE",
"389 -12 CURVE SMOOTH",
"603 -12 OFFCURVE",
"732 105 OFFCURVE",
"732 343 CURVE SMOOTH",
"732 452 OFFCURVE",
"705 535 OFFCURVE",
"656 594 CURVE",
"737 625 OFFCURVE",
"778 687 OFFCURVE",
"778 774 CURVE SMOOTH"
);
},
{
closed = 1;
nodes = (
"634 339 LINE SMOOTH",
"634 144 OFFCURVE",
"541 69 OFFCURVE",
"389 69 CURVE SMOOTH",
"238 69 OFFCURVE",
"145 144 OFFCURVE",
"145 339 CURVE SMOOTH",
"145 343 LINE SMOOTH",
"146 541 OFFCURVE",
"239 617 OFFCURVE",
"389 617 CURVE SMOOTH",
"540 617 OFFCURVE",
"633 541 OFFCURVE",
"634 343 CURVE SMOOTH"
);
}
);
};
components = (
{
name = O;
},
{
name = horncomb.case;
transform = "{1, 0, 0, 1, 497, 160}";
}
);
layerId = "54B1AC83-0CA1-46BD-96DF-6FABA525BA97";
width = 778;
},
{
background = {
paths = (
{
closed = 1;
nodes = (
"784 828 LINE",
"652 828 LINE",
"652 711 LINE",
"711 711 LINE",
"698 671 OFFCURVE",
"666 646 OFFCURVE",
"615 633 CURVE",
"558 677 OFFCURVE",
"481 698 OFFCURVE",
"389 698 CURVE SMOOTH",
"175 698 OFFCURVE",
"45 582 OFFCURVE",
"45 343 CURVE SMOOTH",
"45 104 OFFCURVE",
"175 -12 OFFCURVE",
"389 -12 CURVE SMOOTH",
"604 -12 OFFCURVE",
"734 104 OFFCURVE",
"734 343 CURVE SMOOTH",
"734 448 OFFCURVE",
"709 529 OFFCURVE",
"663 587 CURVE",
"744 619 OFFCURVE",
"784 681 OFFCURVE",
"784 774 CURVE SMOOTH"
);
},
{
closed = 1;
nodes = (
"620 336 LINE SMOOTH",
"620 159 OFFCURVE",
"535 82 OFFCURVE",
"389 82 CURVE SMOOTH",
"244 82 OFFCURVE",
"159 159 OFFCURVE",
"159 336 CURVE SMOOTH",
"159 348 LINE SMOOTH",
"160 527 OFFCURVE",
"245 604 OFFCURVE",
"389 604 CURVE SMOOTH",
"534 604 OFFCURVE",
"619 527 OFFCURVE",
"620 348 CURVE SMOOTH"
);
}
);
};
components = (
{
name = O;
},
{
name = horncomb.case;
transform = "{1, 0, 0, 1, 499, 160}";
}
);
layerId = "6BFFA46E-AB79-4C09-B73D-70680E42F436";
width = 778;
},
{
background = {
paths = (
{
closed = 1;
nodes = (
"790 828 LINE",
"645 828 LINE",
"645 701 LINE",
"709 701 LINE",
"696 665 OFFCURVE",
"667 642 OFFCURVE",
"621 630 CURVE",
"563 676 OFFCURVE",
"484 698 OFFCURVE",
"389 698 CURVE SMOOTH",
"174 698 OFFCURVE",
"44 584 OFFCURVE",
"44 343 CURVE SMOOTH",
"44 102 OFFCURVE",
"174 -12 OFFCURVE",
"389 -12 CURVE SMOOTH",
"604 -12 OFFCURVE",
"735 102 OFFCURVE",
"735 343 CURVE SMOOTH",
"735 444 OFFCURVE",
"712 522 OFFCURVE",
"670 580 CURVE",
"751 612 OFFCURVE",
"790 673 OFFCURVE",
"790 774 CURVE SMOOTH"
);
},
{
closed = 1;
nodes = (
"604 332 LINE SMOOTH",
"604 175 OFFCURVE",
"529 96 OFFCURVE",
"389 96 CURVE SMOOTH",
"250 96 OFFCURVE",
"175 175 OFFCURVE",
"175 332 CURVE SMOOTH",
"175 353 LINE SMOOTH",
"175 510 OFFCURVE",
"251 590 OFFCURVE",
"389 590 CURVE SMOOTH",
"528 590 OFFCURVE",
"604 510 OFFCURVE",
"604 353 CURVE SMOOTH"
);
}
);
};
components = (
{
name = O;
},
{
name = horncomb.case;
transform = "{1, 0, 0, 1, 499, 160}";
}
);
layerId = "E736C715-D109-4716-A17A-2CB5528FE3B0";
width = 778;
},
{
background = {
paths = (
{
closed = 1;
nodes = (
"797 828 LINE",
"639 828 LINE",
"639 691 LINE",
"708 691 LINE",
"695 659 OFFCURVE",
"669 638 OFFCURVE",
"628 626 CURVE",
"569 674 OFFCURVE",
"488 698 OFFCURVE",
"389 698 CURVE SMOOTH",
"174 698 OFFCURVE",
"42 585 OFFCURVE",
"42 343 CURVE SMOOTH",
"42 101 OFFCURVE",
"174 -12 OFFCURVE",
"389 -12 CURVE SMOOTH",
"605 -12 OFFCURVE",
"737 101 OFFCURVE",
"737 343 CURVE SMOOTH",
"737 439 OFFCURVE",
"716 515 OFFCURVE",
"677 572 CURVE",
"759 604 OFFCURVE",
"797 665 OFFCURVE",
"797 774 CURVE SMOOTH"
);
},
{
closed = 1;
nodes = (
"588 328 LINE SMOOTH",
"588 192 OFFCURVE",
"522 111 OFFCURVE",
"389 111 CURVE SMOOTH",
"257 111 OFFCURVE",
"191 192 OFFCURVE",
"191 328 CURVE SMOOTH",
"191 358 LINE SMOOTH",
"191 494 OFFCURVE",
"257 575 OFFCURVE",
"389 575 CURVE SMOOTH",
"522 575 OFFCURVE",
"588 494 OFFCURVE",
"588 358 CURVE SMOOTH"
);
}
);
};
components = (
{
name = O;
},
{
name = horncomb.case;
transform = "{1, 0, 0, 1, 500, 160}";
}
);
layerId = "16ED1D51-D51B-4BA0-89FC-970B5AF72829";
width = 778;
}
);
leftKerningGroup = O;
note = Ohorn;
rightKerningGroup = O;
unicode = 01A0;
},
{
glyphname = Oslash;
layers = (
{
anchors = (
{
name = bottom;
position = "{389, 0}";
},
{
name = top;
position = "{389, 686}";
}
);
background = {
paths = (
{
closed = 1;
nodes = (
"47 -49 LINE",
"132 -49 LINE",
"194 32 LINE",
"247 2 OFFCURVE",
"312 -12 OFFCURVE",
"389 -12 CURVE SMOOTH",
"603 -12 OFFCURVE",
"732 105 OFFCURVE",
"732 343 CURVE SMOOTH",
"732 463 OFFCURVE",
"699 553 OFFCURVE",
"638 612 CURVE",
"732 735 LINE",
"648 735 LINE",
"585 652 LINE",
"532 683 OFFCURVE",
"466 698 OFFCURVE",
"389 698 CURVE SMOOTH",
"175 698 OFFCURVE",
"47 581 OFFCURVE",
"47 343 CURVE SMOOTH",
"47 222 OFFCURVE",
"80 132 OFFCURVE",
"141 73 CURVE"
);
},
{
closed = 1;
nodes = (
"197 147 LINE",
"163 191 OFFCURVE",
"145 254 OFFCURVE",
"145 343 CURVE SMOOTH",
"145 347 LINE SMOOTH",
"145 542 OFFCURVE",
"238 617 OFFCURVE",
"389 617 CURVE SMOOTH",
"445 617 OFFCURVE",
"493 606 OFFCURVE",
"532 583 CURVE"
);
},
{
closed = 1;
nodes = (
"333 69 OFFCURVE",
"286 79 OFFCURVE",
"248 102 CURVE",
"582 538 LINE",
"615 494 OFFCURVE",
"634 431 OFFCURVE",
"634 343 CURVE SMOOTH",
"634 339 LINE SMOOTH",
"634 144 OFFCURVE",
"541 69 OFFCURVE",
"389 69 CURVE SMOOTH"
);
}
);
};
components = (
{
name = O;
}
);
layerId = "54B1AC83-0CA1-46BD-96DF-6FABA525BA97";
paths = (
{
closed = 1;
nodes = (
"136 -43 LINE",
"723 723 LINE",
"639 723 LINE",
"51 -43 LINE"
);
}
);
width = 778;
},
{
anchors = (
{
name = bottom;
position = "{389, 0}";
},
{
name = top;
position = "{389, 686}";
}
);
background = {
paths = (
{
closed = 1;
nodes = (
"47 -49 LINE",
"135 -49 LINE",
"196 31 LINE",
"249 2 OFFCURVE",
"313 -12 OFFCURVE",
"389 -12 CURVE SMOOTH",
"604 -12 OFFCURVE",
"734 104 OFFCURVE",
"734 343 CURVE SMOOTH",
"734 464 OFFCURVE",
"700 554 OFFCURVE",
"639 613 CURVE",
"732 735 LINE",
"645 735 LINE",
"583 654 LINE",
"530 684 OFFCURVE",
"465 698 OFFCURVE",
"389 698 CURVE SMOOTH",
"175 698 OFFCURVE",
"45 582 OFFCURVE",
"45 343 CURVE SMOOTH",
"45 221 OFFCURVE",
"79 131 OFFCURVE",
"140 73 CURVE"
);
},
{
closed = 1;
nodes = (
"206 160 LINE",
"175 201 OFFCURVE",
"159 259 OFFCURVE",
"159 338 CURVE SMOOTH",
"159 350 LINE SMOOTH",
"159 527 OFFCURVE",
"244 604 OFFCURVE",
"389 604 CURVE SMOOTH",
"441 604 OFFCURVE",
"486 594 OFFCURVE",
"522 573 CURVE"
);
},
{
closed = 1;
nodes = (
"337 82 OFFCURVE",
"293 91 OFFCURVE",
"258 112 CURVE",
"573 526 LINE",
"603 484 OFFCURVE",
"620 426 OFFCURVE",
"620 348 CURVE SMOOTH",
"620 336 LINE SMOOTH",
"620 159 OFFCURVE",
"535 82 OFFCURVE",
"389 82 CURVE SMOOTH"
);
}
);
};
components = (
{
name = O;
}
);
layerId = "6BFFA46E-AB79-4C09-B73D-70680E42F436";
paths = (
{
closed = 1;
nodes = (
"136 -49 LINE",
"722 723 LINE",
"635 723 LINE",
"48 -49 LINE"
);
}
);
width = 778;
},
{
anchors = (
{
name = bottom;
position = "{389, 0}";
},
{
name = top;
position = "{389, 686}";
}
);
background = {
paths = (
{
closed = 1;
nodes = (
"47 -49 LINE",
"139 -49 LINE",
"198 29 LINE",
"250 1 OFFCURVE",
"314 -12 OFFCURVE",
"389 -12 CURVE SMOOTH",
"604 -12 OFFCURVE",
"735 102 OFFCURVE",
"735 343 CURVE SMOOTH",
"735 465 OFFCURVE",
"702 555 OFFCURVE",
"640 613 CURVE",
"732 735 LINE",
"641 735 LINE",
"582 655 LINE",
"529 684 OFFCURVE",
"464 698 OFFCURVE",
"389 698 CURVE SMOOTH",
"174 698 OFFCURVE",
"44 584 OFFCURVE",
"44 343 CURVE SMOOTH",
"44 221 OFFCURVE",
"77 131 OFFCURVE",
"139 72 CURVE"
);
},
{
closed = 1;
nodes = (
"215 174 LINE",
"188 213 OFFCURVE",
"175 265 OFFCURVE",
"175 333 CURVE SMOOTH",
"175 354 LINE SMOOTH",
"175 511 OFFCURVE",
"250 590 OFFCURVE",
"389 590 CURVE SMOOTH",
"437 590 OFFCURVE",
"477 580 OFFCURVE",
"510 561 CURVE"
);
},
{
closed = 1;
nodes = (
"341 96 OFFCURVE",
"302 105 OFFCURVE",
"270 124 CURVE",
"563 512 LINE",
"590 473 OFFCURVE",
"604 421 OFFCURVE",
"604 353 CURVE SMOOTH",
"604 332 LINE SMOOTH",
"604 175 OFFCURVE",
"529 96 OFFCURVE",
"389 96 CURVE SMOOTH"
);
}
);
};
components = (
{
name = O;
}
);
layerId = "E736C715-D109-4716-A17A-2CB5528FE3B0";
paths = (
{
closed = 1;
nodes = (
"139 -48 LINE",
"723 723 LINE",
"632 723 LINE",
"47 -48 LINE"
);
}
);
width = 778;
},
{
anchors = (
{
name = bottom;
position = "{389, 0}";
},
{
name = top;
position = "{385, 686}";
}
);
background = {
paths = (
{
closed = 1;
nodes = (
"47 -49 LINE",
"142 -49 LINE",
"200 28 LINE",
"252 1 OFFCURVE",
"315 -12 OFFCURVE",
"389 -12 CURVE SMOOTH",
"605 -12 OFFCURVE",
"737 101 OFFCURVE",
"737 343 CURVE SMOOTH",
"737 466 OFFCURVE",
"703 556 OFFCURVE",
"641 614 CURVE",
"732 735 LINE",
"638 735 LINE",
"580 657 LINE",
"527 685 OFFCURVE",
"463 698 OFFCURVE",
"389 698 CURVE SMOOTH",
"174 698 OFFCURVE",
"42 585 OFFCURVE",
"42 343 CURVE SMOOTH",
"42 220 OFFCURVE",
"76 130 OFFCURVE",
"138 72 CURVE"
);
},
{
closed = 1;
nodes = (
"225 188 LINE",
"202 224 OFFCURVE",
"191 271 OFFCURVE",
"191 328 CURVE SMOOTH",
"191 358 LINE SMOOTH",
"191 494 OFFCURVE",
"257 575 OFFCURVE",
"389 575 CURVE SMOOTH",
"433 575 OFFCURVE",
"469 566 OFFCURVE",
"498 549 CURVE"
);
},
{
closed = 1;
nodes = (
"346 111 OFFCURVE",
"310 119 OFFCURVE",
"281 136 CURVE",
"553 498 LINE",
"576 462 OFFCURVE",
"588 415 OFFCURVE",
"588 358 CURVE SMOOTH",
"588 328 LINE SMOOTH",
"588 192 OFFCURVE",
"522 111 OFFCURVE",
"389 111 CURVE SMOOTH"
);
}
);
};
components = (
{
name = O;
}
);
layerId = "16ED1D51-D51B-4BA0-89FC-970B5AF72829";
paths = (
{
closed = 1;
nodes = (
"142 -48 LINE",
"722 723 LINE",
"628 723 LINE",
"47 -48 LINE"
);
}
);
width = 778;
}
);
leftKerningGroup = O;
note = Oslash;
rightKerningGroup = O;
unicode = 00D8;
},
{
glyphname = OE;
layers = (
{
layerId = "54B1AC83-0CA1-46BD-96DF-6FABA525BA97";
paths = (
{
closed = 1;
nodes = (
"400 -12 OFFCURVE",
"462 17 OFFCURVE",
"507 76 CURVE",
"507 0 LINE",
"946 0 LINE",
"946 80 LINE",
"602 80 LINE",
"602 311 LINE",
"884 311 LINE",
"884 391 LINE",
"602 391 LINE",
"602 606 LINE",
"939 606 LINE",
"939 686 LINE",
"507 686 LINE",
"507 610 LINE",
"462 668 OFFCURVE",
"400 698 OFFCURVE",
"321 698 CURVE SMOOTH",
"149 698 OFFCURVE",
"47 581 OFFCURVE",
"47 343 CURVE SMOOTH",
"47 105 OFFCURVE",
"149 -12 OFFCURVE",
"321 -12 CURVE SMOOTH"
);
},
{
closed = 1;
nodes = (
"211 69 OFFCURVE",
"145 142 OFFCURVE",
"145 343 CURVE SMOOTH",
"145 544 OFFCURVE",
"211 617 OFFCURVE",
"334 617 CURVE SMOOTH",
"441 617 OFFCURVE",
"507 544 OFFCURVE",
"507 343 CURVE SMOOTH",
"507 142 OFFCURVE",
"441 69 OFFCURVE",
"334 69 CURVE SMOOTH"
);
}
);
width = 1000;
},
{
layerId = "6BFFA46E-AB79-4C09-B73D-70680E42F436";
paths = (
{
closed = 1;
nodes = (
"394 -12 OFFCURVE",
"456 15 OFFCURVE",
"502 69 CURVE",
"502 0 LINE",
"946 0 LINE",
"946 93 LINE",
"612 93 LINE",
"612 304 LINE",
"887 304 LINE",
"887 397 LINE",
"612 397 LINE",
"612 593 LINE",
"939 593 LINE",
"939 686 LINE",
"502 686 LINE",
"502 617 LINE",
"456 671 OFFCURVE",
"396 698 OFFCURVE",
"319 698 CURVE SMOOTH",
"147 698 OFFCURVE",
"45 579 OFFCURVE",
"45 343 CURVE SMOOTH",
"45 107 OFFCURVE",
"147 -12 OFFCURVE",
"319 -12 CURVE SMOOTH"
);
},
{
closed = 1;
nodes = (
"218 82 OFFCURVE",
"159 156 OFFCURVE",
"159 343 CURVE SMOOTH",
"159 530 OFFCURVE",
"218 604 OFFCURVE",
"337 604 CURVE SMOOTH",
"439 604 OFFCURVE",
"502 535 OFFCURVE",
"502 343 CURVE SMOOTH",
"502 151 OFFCURVE",
"439 82 OFFCURVE",
"337 82 CURVE SMOOTH"
);
}
);
width = 1000;
},
{
layerId = "E736C715-D109-4716-A17A-2CB5528FE3B0";
paths = (
{
closed = 1;
nodes = (
"388 -12 OFFCURVE",
"448 12 OFFCURVE",
"496 61 CURVE",
"496 0 LINE",
"945 0 LINE",
"945 108 LINE",
"624 108 LINE",
"624 297 LINE",
"891 297 LINE",
"891 405 LINE",
"624 405 LINE",
"624 578 LINE",
"939 578 LINE",
"939 686 LINE",
"496 686 LINE",
"496 624 LINE",
"450 674 OFFCURVE",
"391 698 OFFCURVE",
"316 698 CURVE SMOOTH",
"146 698 OFFCURVE",
"44 577 OFFCURVE",
"44 343 CURVE SMOOTH",
"44 109 OFFCURVE",
"146 -12 OFFCURVE",
"316 -12 CURVE SMOOTH"
);
},
{
closed = 1;
nodes = (
"227 96 OFFCURVE",
"175 171 OFFCURVE",
"175 343 CURVE SMOOTH",
"175 515 OFFCURVE",
"227 590 OFFCURVE",
"340 590 CURVE SMOOTH",
"436 590 OFFCURVE",
"496 524 OFFCURVE",
"496 343 CURVE SMOOTH",
"496 162 OFFCURVE",
"436 96 OFFCURVE",
"340 96 CURVE SMOOTH"
);
}
);
width = 1000;
},
{
layerId = "16ED1D51-D51B-4BA0-89FC-970B5AF72829";
paths = (
{
closed = 1;
nodes = (
"382 -12 OFFCURVE",
"441 9 OFFCURVE",
"490 53 CURVE",
"490 0 LINE",
"945 0 LINE",
"945 123 LINE",
"635 123 LINE",
"635 289 LINE",
"895 289 LINE",
"895 412 LINE",
"635 412 LINE",
"635 563 LINE",
"939 563 LINE",
"939 686 LINE",
"490 686 LINE",
"490 632 LINE",
"443 677 OFFCURVE",
"386 698 OFFCURVE",
"313 698 CURVE SMOOTH",
"144 698 OFFCURVE",
"42 575 OFFCURVE",
"42 343 CURVE SMOOTH",
"42 111 OFFCURVE",
"144 -12 OFFCURVE",
"313 -12 CURVE SMOOTH"
);
},
{
closed = 1;
nodes = (
"235 111 OFFCURVE",
"191 187 OFFCURVE",
"191 343 CURVE SMOOTH",
"191 499 OFFCURVE",
"235 575 OFFCURVE",
"343 575 CURVE SMOOTH",
"434 575 OFFCURVE",
"490 513 OFFCURVE",
"490 343 CURVE SMOOTH",
"490 173 OFFCURVE",
"434 111 OFFCURVE",
"343 111 CURVE SMOOTH"
);
}
);
width = 1000;
}
);
leftKerningGroup = O;
note = OE;
rightKerningGroup = E;
unicode = 0152;
},
{
glyphname = P;
layers = (
{
layerId = "54B1AC83-0CA1-46BD-96DF-6FABA525BA97";
paths = (
{
closed = 1;
nodes = (
"174 0 LINE",
"174 263 LINE",
"413 263 LINE SMOOTH",
"544 263 OFFCURVE",
"626 349 OFFCURVE",
"626 477 CURVE SMOOTH",
"626 600 OFFCURVE",
"554 686 OFFCURVE",
"413 686 CURVE SMOOTH",
"79 686 LINE",
"79 0 LINE"
);
},
{
closed = 1;
nodes = (
"174 603 LINE",
"408 603 LINE SMOOTH",
"489 603 OFFCURVE",
"530 556 OFFCURVE",
"530 476 CURVE SMOOTH",
"530 395 OFFCURVE",
"482 346 OFFCURVE",
"408 346 CURVE SMOOTH",
"174 346 LINE"
);
}
);
width = 667;
},
{
layerId = "6BFFA46E-AB79-4C09-B73D-70680E42F436";
paths = (
{
closed = 1;
nodes = (
"186 0 LINE",
"186 255 LINE",
"404 255 LINE SMOOTH",
"545 255 OFFCURVE",
"626 341 OFFCURVE",
"626 472 CURVE SMOOTH",
"626 600 OFFCURVE",
"553 686 OFFCURVE",
"407 686 CURVE SMOOTH",
"75 686 LINE",
"75 0 LINE"
);
},
{
closed = 1;
nodes = (
"186 591 LINE",
"400 591 LINE SMOOTH",
"475 591 OFFCURVE",
"514 547 OFFCURVE",
"514 472 CURVE SMOOTH",
"514 396 OFFCURVE",
"470 350 OFFCURVE",
"400 350 CURVE SMOOTH",
"186 350 LINE"
);
}
);
width = 667;
},
{
layerId = "E736C715-D109-4716-A17A-2CB5528FE3B0";
paths = (
{
closed = 1;
nodes = (
"199 0 LINE",
"199 245 LINE",
"394 245 LINE SMOOTH",
"546 245 OFFCURVE",
"625 332 OFFCURVE",
"625 467 CURVE SMOOTH",
"625 601 OFFCURVE",
"551 686 OFFCURVE",
"401 686 CURVE SMOOTH",
"71 686 LINE",
"71 0 LINE"
);
},
{
closed = 1;
nodes = (
"199 577 LINE",
"390 577 LINE SMOOTH",
"460 577 OFFCURVE",
"496 536 OFFCURVE",
"496 467 CURVE SMOOTH",
"496 397 OFFCURVE",
"457 354 OFFCURVE",
"390 354 CURVE SMOOTH",
"199 354 LINE"
);
}
);
width = 667;
},
{
layerId = "16ED1D51-D51B-4BA0-89FC-970B5AF72829";
paths = (
{
closed = 1;
nodes = (
"212 0 LINE",
"212 236 LINE",
"384 236 LINE SMOOTH",
"547 236 OFFCURVE",
"625 323 OFFCURVE",
"625 462 CURVE SMOOTH",
"625 601 OFFCURVE",
"550 686 OFFCURVE",
"394 686 CURVE SMOOTH",
"67 686 LINE",
"67 0 LINE"
);
},
{
closed = 1;
nodes = (
"212 563 LINE",
"381 563 LINE SMOOTH",
"444 563 OFFCURVE",
"478 526 OFFCURVE",
"478 462 CURVE SMOOTH",
"478 398 OFFCURVE",
"444 359 OFFCURVE",
"381 359 CURVE SMOOTH",
"212 359 LINE"
);
}
);
width = 667;
}
);
leftKerningGroup = H;
note = P;
rightKerningGroup = P;
unicode = 0050;
},
{
glyphname = Thorn;
layers = (
{
layerId = "54B1AC83-0CA1-46BD-96DF-6FABA525BA97";
paths = (
{
closed = 1;
nodes = (
"174 0 LINE",
"174 144 LINE",
"413 144 LINE SMOOTH",
"544 144 OFFCURVE",
"626 230 OFFCURVE",
"626 358 CURVE SMOOTH",
"626 481 OFFCURVE",
"554 567 OFFCURVE",
"413 567 CURVE SMOOTH",
"174 567 LINE",
"174 686 LINE",
"79 686 LINE",
"79 0 LINE"
);
},
{
closed = 1;
nodes = (
"174 484 LINE",
"408 484 LINE SMOOTH",
"489 484 OFFCURVE",
"530 437 OFFCURVE",
"530 357 CURVE SMOOTH",
"530 276 OFFCURVE",
"482 227 OFFCURVE",
"408 227 CURVE SMOOTH",
"174 227 LINE"
);
}
);
width = 667;
},
{
layerId = "6BFFA46E-AB79-4C09-B73D-70680E42F436";
paths = (
{
closed = 1;
nodes = (
"186 0 LINE",
"186 139 LINE",
"404 139 LINE SMOOTH",
"545 139 OFFCURVE",
"626 226 OFFCURVE",
"626 357 CURVE SMOOTH",
"626 485 OFFCURVE",
"553 571 OFFCURVE",
"407 571 CURVE SMOOTH",
"186 571 LINE",
"186 686 LINE",
"75 686 LINE",
"75 0 LINE"
);
},
{
closed = 1;
nodes = (
"186 475 LINE",
"400 475 LINE SMOOTH",
"475 475 OFFCURVE",
"514 431 OFFCURVE",
"514 356 CURVE SMOOTH",
"514 281 OFFCURVE",
"470 235 OFFCURVE",
"400 235 CURVE SMOOTH",
"186 235 LINE"
);
}
);
width = 667;
},
{
layerId = "E736C715-D109-4716-A17A-2CB5528FE3B0";
paths = (
{
closed = 1;
nodes = (
"199 0 LINE",
"199 134 LINE",
"394 134 LINE SMOOTH",
"546 134 OFFCURVE",
"625 221 OFFCURVE",
"625 356 CURVE SMOOTH",
"625 489 OFFCURVE",
"551 575 OFFCURVE",
"401 575 CURVE SMOOTH",
"199 575 LINE",
"199 686 LINE",
"71 686 LINE",
"71 0 LINE"
);
},
{
closed = 1;
nodes = (
"199 466 LINE",
"390 466 LINE SMOOTH",
"460 466 OFFCURVE",
"496 425 OFFCURVE",
"496 356 CURVE SMOOTH",
"496 286 OFFCURVE",
"457 243 OFFCURVE",
"390 243 CURVE SMOOTH",
"199 243 LINE"
);
}
);
width = 667;
},
{
layerId = "16ED1D51-D51B-4BA0-89FC-970B5AF72829";
paths = (
{
closed = 1;
nodes = (
"212 0 LINE",
"212 129 LINE",
"384 129 LINE SMOOTH",
"547 129 OFFCURVE",
"625 216 OFFCURVE",
"625 355 CURVE SMOOTH",
"625 494 OFFCURVE",
"550 579 OFFCURVE",
"394 579 CURVE SMOOTH",
"212 579 LINE",
"212 686 LINE",
"67 686 LINE",
"67 0 LINE"
);
},
{
closed = 1;
nodes = (
"212 456 LINE",
"381 456 LINE SMOOTH",
"444 456 OFFCURVE",
"478 419 OFFCURVE",
"478 355 CURVE SMOOTH",
"478 291 OFFCURVE",
"444 252 OFFCURVE",
"381 252 CURVE SMOOTH",
"212 252 LINE"
);
}
);
width = 667;
}
);
leftKerningGroup = H;
note = Thorn;
rightKerningGroup = P;
unicode = 00DE;
},
{
glyphname = Q;
layers = (
{
layerId = "54B1AC83-0CA1-46BD-96DF-6FABA525BA97";
paths = (
{
closed = 1;
nodes = (
"693 -130 LINE",
"545 14 LINE",
"664 61 OFFCURVE",
"732 170 OFFCURVE",
"732 343 CURVE SMOOTH",
"732 581 OFFCURVE",
"603 698 OFFCURVE",
"389 698 CURVE SMOOTH",
"175 698 OFFCURVE",
"47 581 OFFCURVE",
"47 343 CURVE SMOOTH",
"47 105 OFFCURVE",
"175 -12 OFFCURVE",
"389 -12 CURVE SMOOTH",
"405 -12 OFFCURVE",
"421 -11 OFFCURVE",
"436 -10 CURVE",
"559 -130 LINE"
);
},
{
closed = 1;
nodes = (
"238 69 OFFCURVE",
"145 144 OFFCURVE",
"145 339 CURVE SMOOTH",
"145 343 LINE SMOOTH",
"146 541 OFFCURVE",
"239 617 OFFCURVE",
"389 617 CURVE SMOOTH",
"540 617 OFFCURVE",
"633 541 OFFCURVE",
"634 343 CURVE SMOOTH",
"634 339 LINE SMOOTH",
"634 144 OFFCURVE",
"541 69 OFFCURVE",
"389 69 CURVE SMOOTH"
);
}
);
width = 778;
},
{
layerId = "6BFFA46E-AB79-4C09-B73D-70680E42F436";
paths = (
{
closed = 1;
nodes = (
"701 -130 LINE",
"550 16 LINE",
"667 63 OFFCURVE",
"734 172 OFFCURVE",
"734 343 CURVE SMOOTH",
"734 582 OFFCURVE",
"604 698 OFFCURVE",
"389 698 CURVE SMOOTH",
"175 698 OFFCURVE",
"45 582 OFFCURVE",
"45 343 CURVE SMOOTH",
"45 104 OFFCURVE",
"175 -12 OFFCURVE",
"389 -12 CURVE SMOOTH",
"403 -12 OFFCURVE",
"417 -11 OFFCURVE",
"430 -10 CURVE",
"549 -130 LINE"
);
},
{
closed = 1;
nodes = (
"244 82 OFFCURVE",
"159 159 OFFCURVE",
"159 336 CURVE SMOOTH",
"159 348 LINE SMOOTH",
"160 527 OFFCURVE",
"245 604 OFFCURVE",
"389 604 CURVE SMOOTH",
"534 604 OFFCURVE",
"619 527 OFFCURVE",
"620 348 CURVE SMOOTH",
"620 336 LINE SMOOTH",
"620 159 OFFCURVE",
"535 82 OFFCURVE",
"389 82 CURVE SMOOTH"
);
}
);
width = 778;
},
{
layerId = "E736C715-D109-4716-A17A-2CB5528FE3B0";
paths = (
{
closed = 1;
nodes = (
"709 -130 LINE",
"556 18 LINE",
"670 66 OFFCURVE",
"735 173 OFFCURVE",
"735 343 CURVE SMOOTH",
"735 584 OFFCURVE",
"604 698 OFFCURVE",
"389 698 CURVE SMOOTH",
"174 698 OFFCURVE",
"44 584 OFFCURVE",
"44 343 CURVE SMOOTH",
"44 102 OFFCURVE",
"174 -12 OFFCURVE",
"389 -12 CURVE SMOOTH",
"400 -12 OFFCURVE",
"412 -12 OFFCURVE",
"423 -11 CURVE",
"538 -130 LINE"
);
},
{
closed = 1;
nodes = (
"250 96 OFFCURVE",
"175 175 OFFCURVE",
"175 332 CURVE SMOOTH",
"175 353 LINE SMOOTH",
"175 510 OFFCURVE",
"251 590 OFFCURVE",
"389 590 CURVE SMOOTH",
"528 590 OFFCURVE",
"604 510 OFFCURVE",
"604 353 CURVE SMOOTH",
"604 332 LINE SMOOTH",
"604 175 OFFCURVE",
"529 96 OFFCURVE",
"389 96 CURVE SMOOTH"
);
}
);
width = 778;
},
{
layerId = "16ED1D51-D51B-4BA0-89FC-970B5AF72829";
paths = (
{
closed = 1;
nodes = (
"718 -130 LINE",
"562 20 LINE",
"673 69 OFFCURVE",
"737 175 OFFCURVE",
"737 343 CURVE SMOOTH",
"737 585 OFFCURVE",
"605 698 OFFCURVE",
"389 698 CURVE SMOOTH",
"174 698 OFFCURVE",
"42 585 OFFCURVE",
"42 343 CURVE SMOOTH",
"42 101 OFFCURVE",
"174 -12 OFFCURVE",
"389 -12 CURVE SMOOTH",
"398 -12 OFFCURVE",
"407 -12 OFFCURVE",
"416 -11 CURVE",
"527 -130 LINE"
);
},
{
closed = 1;
nodes = (
"257 111 OFFCURVE",
"191 192 OFFCURVE",
"191 328 CURVE SMOOTH",
"191 358 LINE SMOOTH",
"191 494 OFFCURVE",
"257 575 OFFCURVE",
"389 575 CURVE SMOOTH",
"522 575 OFFCURVE",
"588 494 OFFCURVE",
"588 358 CURVE SMOOTH",
"588 328 LINE SMOOTH",
"588 192 OFFCURVE",
"522 111 OFFCURVE",
"389 111 CURVE SMOOTH"
);
}
);
width = 778;
}
);
leftKerningGroup = O;
note = Q;
rightKerningGroup = O;
unicode = 0051;
},
{
glyphname = R;
layers = (
{
anchors = (
{
name = bottom;
position = "{366, 0}";
},
{
name = top;
position = "{348, 686}";
}
);
layerId = "54B1AC83-0CA1-46BD-96DF-6FABA525BA97";
paths = (
{
closed = 1;
nodes = (
"174 0 LINE",
"174 283 LINE",
"426 283 LINE",
"575 0 LINE",
"681 0 LINE",
"523 297 LINE",
"602 326 OFFCURVE",
"649 397 OFFCURVE",
"649 491 CURVE SMOOTH",
"649 606 OFFCURVE",
"577 686 OFFCURVE",
"436 686 CURVE SMOOTH",
"79 686 LINE",
"79 0 LINE"
);
},
{
closed = 1;
nodes = (
"174 603 LINE",
"431 603 LINE SMOOTH",
"512 603 OFFCURVE",
"553 561 OFFCURVE",
"553 490 CURVE SMOOTH",
"553 412 OFFCURVE",
"505 366 OFFCURVE",
"431 366 CURVE SMOOTH",
"174 366 LINE"
);
}
);
width = 722;
},
{
anchors = (
{
name = bottom;
position = "{362, 0}";
},
{
name = top;
position = "{337, 686}";
}
);
layerId = "6BFFA46E-AB79-4C09-B73D-70680E42F436";
paths = (
{
closed = 1;
nodes = (
"186 0 LINE",
"186 275 LINE",
"419 275 LINE",
"560 0 LINE",
"681 0 LINE",
"529 291 LINE",
"609 322 OFFCURVE",
"653 391 OFFCURVE",
"653 485 CURVE SMOOTH",
"653 605 OFFCURVE",
"580 686 OFFCURVE",
"434 686 CURVE SMOOTH",
"75 686 LINE",
"75 0 LINE"
);
},
{
closed = 1;
nodes = (
"186 591 LINE",
"427 591 LINE SMOOTH",
"503 591 OFFCURVE",
"541 551 OFFCURVE",
"541 484 CURVE SMOOTH",
"541 412 OFFCURVE",
"498 369 OFFCURVE",
"427 369 CURVE SMOOTH",
"186 369 LINE"
);
}
);
width = 722;
},
{
anchors = (
{
name = bottom;
position = "{362, 0}";
},
{
name = top;
position = "{336, 686}";
}
);
layerId = "E736C715-D109-4716-A17A-2CB5528FE3B0";
paths = (
{
closed = 1;
nodes = (
"199 0 LINE",
"199 265 LINE",
"412 265 LINE",
"542 0 LINE",
"682 0 LINE",
"535 285 LINE",
"616 317 OFFCURVE",
"657 385 OFFCURVE",
"657 478 CURVE SMOOTH",
"657 605 OFFCURVE",
"584 686 OFFCURVE",
"433 686 CURVE SMOOTH",
"71 686 LINE",
"71 0 LINE"
);
},
{
closed = 1;
nodes = (
"199 577 LINE",
"423 577 LINE SMOOTH",
"492 577 OFFCURVE",
"528 540 OFFCURVE",
"528 478 CURVE SMOOTH",
"528 413 OFFCURVE",
"489 373 OFFCURVE",
"423 373 CURVE SMOOTH",
"199 373 LINE"
);
}
);
width = 722;
},
{
anchors = (
{
name = bottom;
position = "{360, 0}";
},
{
name = top;
position = "{332, 686}";
}
);
layerId = "16ED1D51-D51B-4BA0-89FC-970B5AF72829";
paths = (
{
closed = 1;
nodes = (
"212 0 LINE",
"212 256 LINE",
"404 256 LINE",
"525 0 LINE",
"682 0 LINE",
"542 279 LINE",
"624 312 OFFCURVE",
"662 379 OFFCURVE",
"662 471 CURVE SMOOTH",
"662 604 OFFCURVE",
"587 686 OFFCURVE",
"431 686 CURVE SMOOTH",
"67 686 LINE",
"67 0 LINE"
);
},
{
closed = 1;
nodes = (
"212 563 LINE",
"418 563 LINE SMOOTH",
"481 563 OFFCURVE",
"515 529 OFFCURVE",
"515 471 CURVE SMOOTH",
"515 413 OFFCURVE",
"481 377 OFFCURVE",
"418 377 CURVE SMOOTH",
"212 377 LINE"
);
}
);
width = 722;
}
);
leftKerningGroup = H;
note = R;
rightKerningGroup = R;
unicode = 0052;
},
{
glyphname = S;
layers = (
{
anchors = (
{
name = bottom;
position = "{341, 0}";
},
{
name = top;
position = "{336, 686}";
}
);
layerId = "54B1AC83-0CA1-46BD-96DF-6FABA525BA97";
paths = (
{
closed = 1;
nodes = (
"495 -12 OFFCURVE",
"616 44 OFFCURVE",
"616 198 CURVE SMOOTH",
"616 442 OFFCURVE",
"162 357 OFFCURVE",
"162 521 CURVE SMOOTH",
"162 587 OFFCURVE",
"235 617 OFFCURVE",
"336 617 CURVE SMOOTH",
"432 617 OFFCURVE",
"503 578 OFFCURVE",
"503 508 CURVE SMOOTH",
"503 493 LINE",
"596 493 LINE",
"596 505 LINE SMOOTH",
"596 642 OFFCURVE",
"479 698 OFFCURVE",
"333 698 CURVE SMOOTH",
"186 698 OFFCURVE",
"66 640 OFFCURVE",
"66 514 CURVE SMOOTH",
"66 266 OFFCURVE",
"521 359 OFFCURVE",
"521 183 CURVE SMOOTH",
"521 109 OFFCURVE",
"452 69 OFFCURVE",
"327 69 CURVE SMOOTH",
"219 69 OFFCURVE",
"142 109 OFFCURVE",
"142 193 CURVE SMOOTH",
"142 199 OFFCURVE",
"143 207 OFFCURVE",
"144 214 CURVE",
"50 214 LINE",
"50 211 OFFCURVE",
"49 201 OFFCURVE",
"49 194 CURVE SMOOTH",
"49 43 OFFCURVE",
"179 -12 OFFCURVE",
"332 -12 CURVE SMOOTH"
);
}
);
width = 667;
},
{
anchors = (
{
name = bottom;
position = "{341, 0}";
},
{
name = top;
position = "{336, 686}";
}
);
layerId = "6BFFA46E-AB79-4C09-B73D-70680E42F436";
paths = (
{
closed = 1;
nodes = (
"497 -12 OFFCURVE",
"618 45 OFFCURVE",
"618 199 CURVE SMOOTH",
"618 444 OFFCURVE",
"175 367 OFFCURVE",
"175 518 CURVE SMOOTH",
"175 576 OFFCURVE",
"240 604 OFFCURVE",
"336 604 CURVE SMOOTH",
"426 604 OFFCURVE",
"491 568 OFFCURVE",
"491 503 CURVE SMOOTH",
"491 490 LINE",
"599 490 LINE",
"599 502 LINE SMOOTH",
"599 640 OFFCURVE",
"481 698 OFFCURVE",
"334 698 CURVE SMOOTH",
"183 698 OFFCURVE",
"64 639 OFFCURVE",
"64 512 CURVE SMOOTH",
"64 261 OFFCURVE",
"508 349 OFFCURVE",
"508 183 CURVE SMOOTH",
"508 119 OFFCURVE",
"449 82 OFFCURVE",
"330 82 CURVE SMOOTH",
"226 82 OFFCURVE",
"156 121 OFFCURVE",
"156 197 CURVE SMOOTH",
"156 203 OFFCURVE",
"157 210 OFFCURVE",
"158 217 CURVE",
"48 217 LINE",
"48 213 OFFCURVE",
"47 203 OFFCURVE",
"47 196 CURVE SMOOTH",
"47 48 OFFCURVE",
"178 -12 OFFCURVE",
"331 -12 CURVE SMOOTH"
);
}
);
width = 667;
},
{
anchors = (
{
name = bottom;
position = "{340, 0}";
},
{
name = top;
position = "{336, 686}";
}
);
layerId = "E736C715-D109-4716-A17A-2CB5528FE3B0";
paths = (
{
closed = 1;
nodes = (
"499 -12 OFFCURVE",
"621 47 OFFCURVE",
"621 201 CURVE SMOOTH",
"621 447 OFFCURVE",
"190 378 OFFCURVE",
"190 514 CURVE SMOOTH",
"190 563 OFFCURVE",
"245 590 OFFCURVE",
"335 590 CURVE SMOOTH",
"420 590 OFFCURVE",
"477 556 OFFCURVE",
"477 498 CURVE SMOOTH",
"477 487 LINE",
"603 487 LINE",
"603 499 LINE SMOOTH",
"603 639 OFFCURVE",
"483 698 OFFCURVE",
"336 698 CURVE SMOOTH",
"179 698 OFFCURVE",
"61 637 OFFCURVE",
"61 509 CURVE SMOOTH",
"61 256 OFFCURVE",
"492 338 OFFCURVE",
"492 183 CURVE SMOOTH",
"492 131 OFFCURVE",
"445 96 OFFCURVE",
"334 96 CURVE SMOOTH",
"234 96 OFFCURVE",
"173 135 OFFCURVE",
"173 202 CURVE",
"173 208 OFFCURVE",
"173 214 OFFCURVE",
"174 220 CURVE",
"45 220 LINE",
"45 216 OFFCURVE",
"44 206 OFFCURVE",
"44 199 CURVE SMOOTH",
"44 54 OFFCURVE",
"178 -12 OFFCURVE",
"331 -12 CURVE SMOOTH"
);
}
);
width = 667;
},
{
anchors = (
{
name = bottom;
position = "{343, 0}";
},
{
name = top;
position = "{336, 686}";
}
);
layerId = "16ED1D51-D51B-4BA0-89FC-970B5AF72829";
paths = (
{
closed = 1;
nodes = (
"501 -12 OFFCURVE",
"623 48 OFFCURVE",
"623 202 CURVE SMOOTH",
"623 450 OFFCURVE",
"205 389 OFFCURVE",
"205 511 CURVE SMOOTH",
"205 551 OFFCURVE",
"250 575 OFFCURVE",
"335 575 CURVE SMOOTH",
"414 575 OFFCURVE",
"463 544 OFFCURVE",
"463 493 CURVE SMOOTH",
"463 484 LINE",
"607 484 LINE",
"607 496 LINE SMOOTH",
"607 637 OFFCURVE",
"485 698 OFFCURVE",
"337 698 CURVE SMOOTH",
"176 698 OFFCURVE",
"59 636 OFFCURVE",
"59 506 CURVE SMOOTH",
"59 251 OFFCURVE",
"477 327 OFFCURVE",
"477 183 CURVE SMOOTH",
"477 142 OFFCURVE",
"441 111 OFFCURVE",
"337 111 CURVE SMOOTH",
"242 111 OFFCURVE",
"189 149 OFFCURVE",
"189 207 CURVE SMOOTH",
"189 212 OFFCURVE",
"190 221 OFFCURVE",
"190 223 CURVE",
"43 223 LINE",
"43 218 OFFCURVE",
"42 209 OFFCURVE",
"42 201 CURVE SMOOTH",
"42 60 OFFCURVE",
"177 -12 OFFCURVE",
"330 -12 CURVE SMOOTH"
);
}
);
width = 667;
}
);
leftKerningGroup = S;
note = S;
rightKerningGroup = S;
unicode = 0053;
},
{
glyphname = Germandbls;
layers = (
{
layerId = "54B1AC83-0CA1-46BD-96DF-6FABA525BA97";
paths = (
{
closed = 1;
nodes = (
"174 0 LINE",
"174 414 LINE SMOOTH",
"174 552 OFFCURVE",
"258 617 OFFCURVE",
"401 617 CURVE SMOOTH",
"525 617 OFFCURVE",
"578 568 OFFCURVE",
"578 494 CURVE SMOOTH",
"578 426 OFFCURVE",
"533 381 OFFCURVE",
"470 381 CURVE SMOOTH",
"284 381 LINE",
"284 298 LINE",
"473 298 LINE SMOOTH",
"561 298 OFFCURVE",
"612 254 OFFCURVE",
"612 192 CURVE SMOOTH",
"612 137 OFFCURVE",
"571 83 OFFCURVE",
"493 83 CURVE SMOOTH",
"284 83 LINE",
"284 0 LINE",
"506 0 LINE SMOOTH",
"633 0 OFFCURVE",
"709 82 OFFCURVE",
"709 187 CURVE SMOOTH",
"709 271 OFFCURVE",
"661 327 OFFCURVE",
"584 347 CURVE",
"584 351 LINE",
"634 371 OFFCURVE",
"675 431 OFFCURVE",
"675 503 CURVE SMOOTH",
"675 621 OFFCURVE",
"564 698 OFFCURVE",
"392 698 CURVE SMOOTH",
"204 698 OFFCURVE",
"79 605 OFFCURVE",
"79 421 CURVE SMOOTH",
"79 0 LINE"
);
}
);
width = 756;
},
{
layerId = "6BFFA46E-AB79-4C09-B73D-70680E42F436";
paths = (
{
closed = 1;
nodes = (
"186 0 LINE",
"186 405 LINE SMOOTH",
"186 540 OFFCURVE",
"266 604 OFFCURVE",
"408 604 CURVE SMOOTH",
"522 604 OFFCURVE",
"574 559 OFFCURVE",
"574 492 CURVE SMOOTH",
"574 432 OFFCURVE",
"534 387 OFFCURVE",
"476 387 CURVE SMOOTH",
"288 387 LINE",
"288 292 LINE",
"479 292 LINE SMOOTH",
"560 292 OFFCURVE",
"608 252 OFFCURVE",
"608 195 CURVE SMOOTH",
"608 145 OFFCURVE",
"570 96 OFFCURVE",
"499 96 CURVE SMOOTH",
"288 96 LINE",
"288 0 LINE",
"512 0 LINE SMOOTH",
"642 0 OFFCURVE",
"721 82 OFFCURVE",
"721 188 CURVE SMOOTH",
"721 271 OFFCURVE",
"673 327 OFFCURVE",
"596 347 CURVE",
"596 351 LINE",
"646 371 OFFCURVE",
"687 431 OFFCURVE",
"687 502 CURVE SMOOTH",
"687 621 OFFCURVE",
"572 698 OFFCURVE",
"398 698 CURVE SMOOTH",
"202 698 OFFCURVE",
"75 602 OFFCURVE",
"75 412 CURVE SMOOTH",
"75 0 LINE"
);
}
);
width = 769;
},
{
layerId = "E736C715-D109-4716-A17A-2CB5528FE3B0";
paths = (
{
closed = 1;
nodes = (
"199 0 LINE",
"199 394 LINE SMOOTH",
"199 527 OFFCURVE",
"274 590 OFFCURVE",
"416 590 CURVE SMOOTH",
"519 590 OFFCURVE",
"569 550 OFFCURVE",
"569 489 CURVE SMOOTH",
"569 440 OFFCURVE",
"536 395 OFFCURVE",
"482 395 CURVE SMOOTH",
"292 395 LINE",
"292 284 LINE",
"485 284 LINE SMOOTH",
"560 284 OFFCURVE",
"603 249 OFFCURVE",
"603 199 CURVE SMOOTH",
"603 154 OFFCURVE",
"569 110 OFFCURVE",
"505 110 CURVE SMOOTH",
"292 110 LINE",
"292 0 LINE",
"518 0 LINE SMOOTH",
"653 0 OFFCURVE",
"734 81 OFFCURVE",
"734 188 CURVE SMOOTH",
"734 270 OFFCURVE",
"686 327 OFFCURVE",
"609 347 CURVE",
"609 351 LINE",
"659 371 OFFCURVE",
"700 430 OFFCURVE",
"700 500 CURVE SMOOTH",
"700 620 OFFCURVE",
"580 698 OFFCURVE",
"406 698 CURVE SMOOTH",
"199 698 OFFCURVE",
"71 598 OFFCURVE",
"71 401 CURVE SMOOTH",
"71 0 LINE"
);
}
);
width = 784;
},
{
layerId = "16ED1D51-D51B-4BA0-89FC-970B5AF72829";
paths = (
{
closed = 1;
nodes = (
"212 0 LINE",
"212 384 LINE SMOOTH",
"212 514 OFFCURVE",
"283 575 OFFCURVE",
"424 575 CURVE SMOOTH",
"516 575 OFFCURVE",
"564 540 OFFCURVE",
"564 486 CURVE SMOOTH",
"564 447 OFFCURVE",
"537 402 OFFCURVE",
"488 402 CURVE SMOOTH",
"297 402 LINE",
"297 277 LINE",
"491 277 LINE SMOOTH",
"559 277 OFFCURVE",
"598 246 OFFCURVE",
"598 202 CURVE SMOOTH",
"598 163 OFFCURVE",
"568 125 OFFCURVE",
"511 125 CURVE SMOOTH",
"297 125 LINE",
"297 0 LINE",
"524 0 LINE SMOOTH",
"663 0 OFFCURVE",
"747 81 OFFCURVE",
"747 189 CURVE SMOOTH",
"747 270 OFFCURVE",
"699 327 OFFCURVE",
"622 347 CURVE",
"622 351 LINE",
"672 371 OFFCURVE",
"713 430 OFFCURVE",
"713 499 CURVE SMOOTH",
"713 620 OFFCURVE",
"589 698 OFFCURVE",
"413 698 CURVE SMOOTH",
"197 698 OFFCURVE",
"67 595 OFFCURVE",
"67 391 CURVE SMOOTH",
"67 0 LINE"
);
}
);
width = 798;
}
);
leftKerningGroup = H;
note = uni1E9E;
rightKerningGroup = B;
rightMetricsKey = B;
unicode = 1E9E;
},
{
glyphname = Schwa;
layers = (
{
layerId = "54B1AC83-0CA1-46BD-96DF-6FABA525BA97";
paths = (
{
closed = 1;
nodes = (
"600 -12 OFFCURVE",
"708 97 OFFCURVE",
"708 338 CURVE SMOOTH",
"708 585 OFFCURVE",
"595 698 OFFCURVE",
"371 698 CURVE SMOOTH",
"180 698 OFFCURVE",
"47 616 OFFCURVE",
"47 454 CURVE",
"138 454 LINE",
"138 573 OFFCURVE",
"241 617 OFFCURVE",
"361 617 CURVE SMOOTH",
"520 617 OFFCURVE",
"600 539 OFFCURVE",
"610 371 CURVE",
"47 371 LINE",
"47 309 LINE SMOOTH",
"47 79 OFFCURVE",
"164 -12 OFFCURVE",
"372 -12 CURVE SMOOTH"
);
},
{
closed = 1;
nodes = (
"239 69 OFFCURVE",
"145 128 OFFCURVE",
"145 283 CURVE",
"607 283 LINE",
"591 129 OFFCURVE",
"522 69 OFFCURVE",
"380 69 CURVE SMOOTH"
);
}
);
width = 754;
},
{
layerId = "6BFFA46E-AB79-4C09-B73D-70680E42F436";
paths = (
{
closed = 1;
nodes = (
"600 -12 OFFCURVE",
"709 98 OFFCURVE",
"709 338 CURVE SMOOTH",
"709 585 OFFCURVE",
"595 698 OFFCURVE",
"370 698 CURVE SMOOTH",
"179 698 OFFCURVE",
"45 617 OFFCURVE",
"45 452 CURVE",
"152 452 LINE",
"152 563 OFFCURVE",
"247 606 OFFCURVE",
"362 606 CURVE SMOOTH",
"512 606 OFFCURVE",
"586 532 OFFCURVE",
"595 373 CURVE",
"45 373 LINE",
"45 316 LINE SMOOTH",
"45 83 OFFCURVE",
"162 -12 OFFCURVE",
"373 -12 CURVE SMOOTH"
);
},
{
closed = 1;
nodes = (
"248 80 OFFCURVE",
"160 135 OFFCURVE",
"160 280 CURVE",
"592 280 LINE",
"577 138 OFFCURVE",
"513 80 OFFCURVE",
"379 80 CURVE SMOOTH"
);
}
);
width = 753;
},
{
layerId = "E736C715-D109-4716-A17A-2CB5528FE3B0";
paths = (
{
closed = 1;
nodes = (
"601 -12 OFFCURVE",
"709 98 OFFCURVE",
"709 339 CURVE SMOOTH",
"709 586 OFFCURVE",
"595 698 OFFCURVE",
"369 698 CURVE SMOOTH",
"178 698 OFFCURVE",
"44 618 OFFCURVE",
"44 449 CURVE",
"169 449 LINE",
"169 552 OFFCURVE",
"254 594 OFFCURVE",
"363 594 CURVE SMOOTH",
"504 594 OFFCURVE",
"570 523 OFFCURVE",
"577 376 CURVE",
"44 376 LINE",
"44 323 LINE SMOOTH",
"44 87 OFFCURVE",
"161 -12 OFFCURVE",
"375 -12 CURVE SMOOTH"
);
},
{
closed = 1;
nodes = (
"259 93 OFFCURVE",
"177 144 OFFCURVE",
"177 276 CURVE",
"575 276 LINE",
"561 147 OFFCURVE",
"503 93 OFFCURVE",
"379 93 CURVE SMOOTH"
);
}
);
width = 752;
},
{
layerId = "16ED1D51-D51B-4BA0-89FC-970B5AF72829";
paths = (
{
closed = 1;
nodes = (
"601 -12 OFFCURVE",
"710 99 OFFCURVE",
"710 339 CURVE SMOOTH",
"710 586 OFFCURVE",
"595 698 OFFCURVE",
"368 698 CURVE SMOOTH",
"177 698 OFFCURVE",
"42 619 OFFCURVE",
"42 446 CURVE",
"185 446 LINE",
"185 541 OFFCURVE",
"261 582 OFFCURVE",
"364 582 CURVE SMOOTH",
"495 582 OFFCURVE",
"554 515 OFFCURVE",
"560 379 CURVE",
"42 379 LINE",
"42 331 LINE SMOOTH",
"42 92 OFFCURVE",
"159 -12 OFFCURVE",
"376 -12 CURVE SMOOTH"
);
},
{
closed = 1;
nodes = (
"269 105 OFFCURVE",
"194 152 OFFCURVE",
"194 273 CURVE",
"558 273 LINE",
"545 157 OFFCURVE",
"493 105 OFFCURVE",
"378 105 CURVE SMOOTH"
);
}
);
width = 751;
}
);
leftKerningGroup = O;
note = uni018F;
rightKerningGroup = O;
rightMetricsKey = O;
unicode = 018F;
},
{
glyphname = T;
layers = (
{
anchors = (
{
name = bottom;
position = "{306, 0}";
},
{
name = center;
position = "{306, 334}";
},
{
name = top;
position = "{306, 686}";
}
);
guideLines = (
{
angle = 90;
position = "{306, 739}";
}
);
layerId = "54B1AC83-0CA1-46BD-96DF-6FABA525BA97";
paths = (
{
closed = 1;
nodes = (
"353 0 LINE",
"353 603 LINE",
"589 603 LINE",
"589 686 LINE",
"22 686 LINE",
"22 603 LINE",
"258 603 LINE",
"258 0 LINE"
);
}
);
width = 611;
},
{
anchors = (
{
name = bottom;
position = "{306, 0}";
},
{
name = center;
position = "{306, 334}";
},
{
name = top;
position = "{306, 686}";
}
);
guideLines = (
{
angle = 90;
position = "{306, 739}";
}
);
layerId = "6BFFA46E-AB79-4C09-B73D-70680E42F436";
paths = (
{
closed = 1;
nodes = (
"361 0 LINE",
"361 590 LINE",
"589 590 LINE",
"589 686 LINE",
"22 686 LINE",
"22 590 LINE",
"250 590 LINE",
"250 0 LINE"
);
}
);
width = 611;
},
{
anchors = (
{
name = bottom;
position = "{306, 0}";
},
{
name = center;
position = "{306, 334}";
},
{
name = top;
position = "{306, 686}";
}
);
guideLines = (
{
angle = 90;
position = "{306, 739}";
}
);
layerId = "E736C715-D109-4716-A17A-2CB5528FE3B0";
paths = (
{
closed = 1;
nodes = (
"369 0 LINE",
"369 576 LINE",
"590 576 LINE",
"590 686 LINE",
"21 686 LINE",
"21 576 LINE",
"242 576 LINE",
"242 0 LINE"
);
}
);
width = 611;
},
{
anchors = (
{
name = bottom;
position = "{306, 0}";
},
{
name = center;
position = "{306, 334}";
},
{
name = top;
position = "{306, 686}";
}
);
guideLines = (
{
angle = 90;
position = "{306, 739}";
}
);
layerId = "16ED1D51-D51B-4BA0-89FC-970B5AF72829";
paths = (
{
closed = 1;
nodes = (
"378 0 LINE",
"378 561 LINE",
"590 561 LINE",
"590 686 LINE",
"21 686 LINE",
"21 561 LINE",
"233 561 LINE",
"233 0 LINE"
);
}
);
width = 611;
}
);
leftKerningGroup = T;
note = T;
rightKerningGroup = T;
unicode = 0054;
},
{
glyphname = Tbar;
layers = (
{
layerId = "54B1AC83-0CA1-46BD-96DF-6FABA525BA97";
paths = (
{
closed = 1;
nodes = (
"353 0 LINE",
"353 321 LINE",
"500 321 LINE",
"500 393 LINE",
"353 393 LINE",
"353 603 LINE",
"589 603 LINE",
"589 686 LINE",
"22 686 LINE",
"22 603 LINE",
"258 603 LINE",
"258 393 LINE",
"111 393 LINE",
"111 321 LINE",
"258 321 LINE",
"258 0 LINE"
);
}
);
width = 611;
},
{
layerId = "6BFFA46E-AB79-4C09-B73D-70680E42F436";
paths = (
{
closed = 1;
nodes = (
"361 0 LINE",
"361 315 LINE",
"511 315 LINE",
"511 393 LINE",
"361 393 LINE",
"361 590 LINE",
"589 590 LINE",
"589 686 LINE",
"22 686 LINE",
"22 590 LINE",
"250 590 LINE",
"250 393 LINE",
"100 393 LINE",
"100 315 LINE",
"250 315 LINE",
"250 0 LINE"
);
}
);
width = 611;
},
{
layerId = "E736C715-D109-4716-A17A-2CB5528FE3B0";
paths = (
{
closed = 1;
nodes = (
"369 0 LINE",
"369 306 LINE",
"521 306 LINE",
"521 393 LINE",
"369 393 LINE",
"369 576 LINE",
"590 576 LINE",
"590 686 LINE",
"21 686 LINE",
"21 576 LINE",
"242 576 LINE",
"242 393 LINE",
"90 393 LINE",
"90 306 LINE",
"242 306 LINE",
"242 0 LINE"
);
}
);
width = 611;
},
{
layerId = "16ED1D51-D51B-4BA0-89FC-970B5AF72829";
paths = (
{
closed = 1;
nodes = (
"378 0 LINE",
"378 285 LINE",
"528 285 LINE",
"528 388 LINE",
"378 388 LINE",
"378 561 LINE",
"590 561 LINE",
"590 686 LINE",
"21 686 LINE",
"21 561 LINE",
"233 561 LINE",
"233 388 LINE",
"83 388 LINE",
"83 285 LINE",
"233 285 LINE",
"233 0 LINE"
);
}
);
width = 611;
}
);
leftKerningGroup = T;
note = Tbar;
rightKerningGroup = T;
unicode = 0166;
},
{
glyphname = U;
layers = (
{
anchors = (
{
name = bottom;
position = "{359, 0}";
},
{
name = ogonek;
position = "{463, 0}";
},
{
name = top;
position = "{361, 686}";
},
{
name = topright;
position = "{558, 686}";
}
);
layerId = "54B1AC83-0CA1-46BD-96DF-6FABA525BA97";
paths = (
{
closed = 1;
nodes = (
"537 -12 OFFCURVE",
"643 68 OFFCURVE",
"643 253 CURVE SMOOTH",
"643 686 LINE",
"548 686 LINE",
"548 248 LINE SMOOTH",
"548 130 OFFCURVE",
"478 69 OFFCURVE",
"360 69 CURVE SMOOTH",
"243 69 OFFCURVE",
"174 130 OFFCURVE",
"174 248 CURVE SMOOTH",
"174 686 LINE",
"79 686 LINE",
"79 253 LINE SMOOTH",
"79 68 OFFCURVE",
"185 -12 OFFCURVE",
"360 -12 CURVE SMOOTH"
);
}
);
width = 722;
},
{
anchors = (
{
name = bottom;
position = "{359, 0}";
},
{
name = ogonek;
position = "{465, 0}";
},
{
name = top;
position = "{361, 686}";
},
{
name = topright;
position = "{546, 686}";
}
);
layerId = "6BFFA46E-AB79-4C09-B73D-70680E42F436";
paths = (
{
closed = 1;
nodes = (
"539 -12 OFFCURVE",
"647 71 OFFCURVE",
"647 254 CURVE SMOOTH",
"647 686 LINE",
"536 686 LINE",
"536 252 LINE SMOOTH",
"536 140 OFFCURVE",
"471 82 OFFCURVE",
"360 82 CURVE SMOOTH",
"250 82 OFFCURVE",
"186 140 OFFCURVE",
"186 252 CURVE SMOOTH",
"186 686 LINE",
"75 686 LINE",
"75 254 LINE SMOOTH",
"75 71 OFFCURVE",
"183 -12 OFFCURVE",
"360 -12 CURVE SMOOTH"
);
}
);
width = 722;
},
{
anchors = (
{
name = bottom;
position = "{359, 0}";
},
{
name = ogonek;
position = "{464, 0}";
},
{
name = top;
position = "{361, 686}";
},
{
name = topright;
position = "{528, 686}";
}
);
layerId = "E736C715-D109-4716-A17A-2CB5528FE3B0";
paths = (
{
closed = 1;
nodes = (
"542 -12 OFFCURVE",
"651 75 OFFCURVE",
"651 254 CURVE SMOOTH",
"651 686 LINE",
"523 686 LINE",
"523 257 LINE SMOOTH",
"523 151 OFFCURVE",
"462 96 OFFCURVE",
"360 96 CURVE SMOOTH",
"258 96 OFFCURVE",
"199 151 OFFCURVE",
"199 257 CURVE SMOOTH",
"199 686 LINE",
"71 686 LINE",
"71 254 LINE SMOOTH",
"71 75 OFFCURVE",
"180 -12 OFFCURVE",
"360 -12 CURVE SMOOTH"
);
}
);
width = 722;
},
{
anchors = (
{
name = bottom;
position = "{359, 0}";
},
{
name = ogonek;
position = "{464, 0}";
},
{
name = top;
position = "{361, 686}";
},
{
name = topright;
position = "{540, 686}";
}
);
layerId = "16ED1D51-D51B-4BA0-89FC-970B5AF72829";
paths = (
{
closed = 1;
nodes = (
"544 -12 OFFCURVE",
"655 78 OFFCURVE",
"655 255 CURVE SMOOTH",
"655 686 LINE",
"510 686 LINE",
"510 262 LINE SMOOTH",
"510 162 OFFCURVE",
"454 111 OFFCURVE",
"360 111 CURVE SMOOTH",
"266 111 OFFCURVE",
"212 162 OFFCURVE",
"212 262 CURVE SMOOTH",
"212 686 LINE",
"67 686 LINE",
"67 255 LINE SMOOTH",
"67 78 OFFCURVE",
"177 -12 OFFCURVE",
"360 -12 CURVE SMOOTH"
);
}
);
width = 722;
}
);
leftKerningGroup = U;
note = U;
rightKerningGroup = U;
unicode = 0055;
},
{
glyphname = V;
layers = (
{
layerId = "54B1AC83-0CA1-46BD-96DF-6FABA525BA97";
paths = (
{
closed = 1;
nodes = (
"396 0 LINE",
"651 686 LINE",
"553 686 LINE",
"371 183 LINE SMOOTH",
"360 154 OFFCURVE",
"350 124 OFFCURVE",
"339 95 CURVE",
"334 95 LINE",
"323 126 OFFCURVE",
"311 156 OFFCURVE",
"300 187 CURVE SMOOTH",
"119 686 LINE",
"16 686 LINE",
"271 0 LINE"
);
}
);
width = 667;
},
{
layerId = "6BFFA46E-AB79-4C09-B73D-70680E42F436";
paths = (
{
closed = 1;
nodes = (
"402 0 LINE",
"654 686 LINE",
"540 686 LINE",
"376 226 LINE SMOOTH",
"365 194 OFFCURVE",
"347 139 OFFCURVE",
"339 117 CURVE",
"334 117 LINE",
"327 139 OFFCURVE",
"308 193 OFFCURVE",
"297 225 CURVE SMOOTH",
"132 686 LINE",
"12 686 LINE",
"265 0 LINE"
);
}
);
width = 667;
},
{
layerId = "E736C715-D109-4716-A17A-2CB5528FE3B0";
paths = (
{
closed = 1;
nodes = (
"408 0 LINE",
"658 686 LINE",
"526 686 LINE",
"380 268 LINE SMOOTH",
"368 235 OFFCURVE",
"343 153 OFFCURVE",
"340 143 CURVE",
"335 143 LINE",
"331 153 OFFCURVE",
"305 234 OFFCURVE",
"293 267 CURVE SMOOTH",
"146 686 LINE",
"8 686 LINE",
"259 0 LINE"
);
}
);
width = 667;
},
{
layerId = "16ED1D51-D51B-4BA0-89FC-970B5AF72829";
paths = (
{
closed = 1;
nodes = (
"414 0 LINE",
"662 686 LINE",
"511 686 LINE",
"383 310 LINE SMOOTH",
"371 276 OFFCURVE",
"340 168 OFFCURVE",
"340 168 CURVE SMOOTH",
"335 168 LINE SMOOTH",
"335 168 OFFCURVE",
"302 276 OFFCURVE",
"290 310 CURVE SMOOTH",
"161 686 LINE",
"4 686 LINE",
"252 0 LINE"
);
}
);
width = 667;
}
);
leftKerningGroup = V;
note = V;
rightKerningGroup = V;
unicode = 0056;
},
{
glyphname = W;
layers = (
{
anchors = (
{
name = top;
position = "{473, 686}";
}
);
layerId = "54B1AC83-0CA1-46BD-96DF-6FABA525BA97";
paths = (
{
closed = 1;
nodes = (
"340 0 LINE",
"448 481 LINE SMOOTH",
"456 519 OFFCURVE",
"468 593 OFFCURVE",
"468 593 CURVE",
"473 593 LINE",
"473 593 OFFCURVE",
"486 525 OFFCURVE",
"496 481 CURVE SMOOTH",
"604 0 LINE",
"735 0 LINE",
"933 686 LINE",
"838 686 LINE",
"705 202 LINE SMOOTH",
"698 178 OFFCURVE",
"678 97 OFFCURVE",
"678 97 CURVE SMOOTH",
"673 97 LINE SMOOTH",
"673 97 OFFCURVE",
"659 169 OFFCURVE",
"652 202 CURVE SMOOTH",
"542 686 LINE",
"406 686 LINE",
"300 202 LINE SMOOTH",
"297 188 OFFCURVE",
"280 97 OFFCURVE",
"280 97 CURVE SMOOTH",
"275 97 LINE SMOOTH",
"275 97 OFFCURVE",
"256 178 OFFCURVE",
"249 202 CURVE SMOOTH",
"111 686 LINE",
"11 686 LINE",
"209 0 LINE"
);
}
);
width = 944;
},
{
anchors = (
{
name = top;
position = "{472, 686}";
}
);
layerId = "6BFFA46E-AB79-4C09-B73D-70680E42F436";
paths = (
{
closed = 1;
nodes = (
"340 0 LINE",
"449 468 LINE SMOOTH",
"457 503 OFFCURVE",
"468 575 OFFCURVE",
"468 575 CURVE",
"473 575 LINE",
"473 575 OFFCURVE",
"484 509 OFFCURVE",
"494 468 CURVE SMOOTH",
"604 0 LINE",
"743 0 LINE",
"936 686 LINE",
"829 686 LINE",
"705 221 LINE SMOOTH",
"698 194 OFFCURVE",
"682 119 OFFCURVE",
"682 119 CURVE SMOOTH",
"677 119 LINE SMOOTH",
"677 119 OFFCURVE",
"664 190 OFFCURVE",
"657 221 CURVE SMOOTH",
"550 686 LINE",
"402 686 LINE",
"298 221 LINE SMOOTH",
"294 202 OFFCURVE",
"279 119 OFFCURVE",
"279 119 CURVE SMOOTH",
"274 119 LINE SMOOTH",
"274 119 OFFCURVE",
"258 195 OFFCURVE",
"251 221 CURVE SMOOTH",
"125 686 LINE",
"8 686 LINE",
"201 0 LINE"
);
}
);
width = 944;
},
{
anchors = (
{
name = top;
position = "{472, 686}";
}
);
layerId = "E736C715-D109-4716-A17A-2CB5528FE3B0";
paths = (
{
closed = 1;
nodes = (
"341 0 LINE",
"451 452 LINE SMOOTH",
"458 484 OFFCURVE",
"469 554 OFFCURVE",
"469 554 CURVE",
"473 554 LINE",
"473 554 OFFCURVE",
"483 490 OFFCURVE",
"492 452 CURVE SMOOTH",
"603 0 LINE",
"751 0 LINE",
"939 686 LINE",
"818 686 LINE",
"706 242 LINE SMOOTH",
"698 212 OFFCURVE",
"686 143 OFFCURVE",
"686 143 CURVE SMOOTH",
"681 143 LINE SMOOTH",
"681 143 OFFCURVE",
"669 213 OFFCURVE",
"663 242 CURVE SMOOTH",
"560 686 LINE",
"398 686 LINE",
"295 242 LINE SMOOTH",
"290 219 OFFCURVE",
"278 143 OFFCURVE",
"278 143 CURVE SMOOTH",
"273 143 LINE SMOOTH",
"273 143 OFFCURVE",
"261 215 OFFCURVE",
"254 242 CURVE SMOOTH",
"141 686 LINE",
"5 686 LINE",
"193 0 LINE"
);
}
);
width = 944;
},
{
anchors = (
{
name = top;
position = "{473, 686}";
}
);
layerId = "16ED1D51-D51B-4BA0-89FC-970B5AF72829";
paths = (
{
closed = 1;
nodes = (
"341 0 LINE",
"452 437 LINE SMOOTH",
"459 466 OFFCURVE",
"469 534 OFFCURVE",
"469 534 CURVE",
"473 534 LINE",
"473 534 OFFCURVE",
"481 472 OFFCURVE",
"490 437 CURVE SMOOTH",
"603 0 LINE",
"760 0 LINE",
"942 686 LINE",
"808 686 LINE",
"706 264 LINE SMOOTH",
"698 230 OFFCURVE",
"690 168 OFFCURVE",
"690 168 CURVE SMOOTH",
"685 168 LINE SMOOTH",
"685 168 OFFCURVE",
"675 237 OFFCURVE",
"669 264 CURVE SMOOTH",
"569 686 LINE",
"394 686 LINE",
"293 264 LINE SMOOTH",
"286 235 OFFCURVE",
"277 168 OFFCURVE",
"277 168 CURVE SMOOTH",
"272 168 LINE SMOOTH",
"272 168 OFFCURVE",
"263 234 OFFCURVE",
"256 264 CURVE SMOOTH",
"157 686 LINE",
"2 686 LINE",
"184 0 LINE"
);
}
);
width = 944;
}
);
leftKerningGroup = V;
note = W;
rightKerningGroup = V;
unicode = 0057;
},
{
glyphname = X;
layers = (
{
layerId = "54B1AC83-0CA1-46BD-96DF-6FABA525BA97";
paths = (
{
closed = 1;
nodes = (
"120 0 LINE",
"328 281 LINE",
"336 281 LINE",
"545 0 LINE",
"662 0 LINE",
"391 360 LINE",
"635 686 LINE",
"521 686 LINE",
"337 441 LINE",
"329 441 LINE",
"147 686 LINE",
"29 686 LINE",
"275 359 LINE",
"5 0 LINE"
);
}
);
width = 667;
},
{
layerId = "6BFFA46E-AB79-4C09-B73D-70680E42F436";
paths = (
{
closed = 1;
nodes = (
"133 0 LINE",
"327 274 LINE",
"334 274 LINE",
"528 0 LINE",
"663 0 LINE",
"402 361 LINE",
"638 686 LINE",
"508 686 LINE",
"339 448 LINE",
"331 448 LINE",
"163 686 LINE",
"27 686 LINE",
"263 359 LINE",
"3 0 LINE"
);
}
);
width = 667;
},
{
layerId = "E736C715-D109-4716-A17A-2CB5528FE3B0";
paths = (
{
closed = 1;
nodes = (
"149 0 LINE",
"325 266 LINE",
"331 266 LINE",
"510 0 LINE",
"665 0 LINE",
"415 361 LINE",
"641 686 LINE",
"494 686 LINE",
"340 456 LINE",
"334 456 LINE",
"180 686 LINE",
"24 686 LINE",
"250 360 LINE",
"2 0 LINE"
);
}
);
width = 667;
},
{
layerId = "16ED1D51-D51B-4BA0-89FC-970B5AF72829";
paths = (
{
closed = 1;
nodes = (
"164 0 LINE",
"324 258 LINE",
"329 258 LINE",
"491 0 LINE",
"666 0 LINE",
"428 362 LINE",
"644 686 LINE",
"480 686 LINE",
"342 464 LINE",
"337 464 LINE",
"198 686 LINE",
"22 686 LINE",
"237 360 LINE",
"0 0 LINE"
);
}
);
width = 667;
}
);
leftKerningGroup = X;
note = X;
rightKerningGroup = X;
unicode = 0058;
},
{
glyphname = Y;
layers = (
{
anchors = (
{
name = bottom;
position = "{336, 0}";
},
{
name = top;
position = "{338, 686}";
}
);
layerId = "54B1AC83-0CA1-46BD-96DF-6FABA525BA97";
paths = (
{
closed = 1;
nodes = (
"382 0 LINE",
"382 284 LINE",
"652 686 LINE",
"543 686 LINE",
"340 372 LINE",
"335 372 LINE",
"131 686 LINE",
"16 686 LINE",
"287 284 LINE",
"287 0 LINE"
);
}
);
width = 667;
},
{
anchors = (
{
name = bottom;
position = "{336, 0}";
},
{
name = top;
position = "{338, 686}";
}
);
layerId = "6BFFA46E-AB79-4C09-B73D-70680E42F436";
paths = (
{
closed = 1;
nodes = (
"390 0 LINE",
"390 282 LINE",
"657 686 LINE",
"533 686 LINE",
"340 382 LINE",
"335 382 LINE",
"141 686 LINE",
"11 686 LINE",
"279 282 LINE",
"279 0 LINE"
);
}
);
width = 667;
},
{
anchors = (
{
name = bottom;
position = "{336, 0}";
},
{
name = top;
position = "{338, 686}";
}
);
layerId = "E736C715-D109-4716-A17A-2CB5528FE3B0";
paths = (
{
closed = 1;
nodes = (
"398 0 LINE",
"398 279 LINE",
"662 686 LINE",
"521 686 LINE",
"341 394 LINE",
"336 394 LINE",
"153 686 LINE",
"6 686 LINE",
"271 279 LINE",
"271 0 LINE"
);
}
);
width = 667;
},
{
anchors = (
{
name = bottom;
position = "{336, 0}";
},
{
name = top;
position = "{338, 686}";
}
);
layerId = "16ED1D51-D51B-4BA0-89FC-970B5AF72829";
paths = (
{
closed = 1;
nodes = (
"407 0 LINE",
"407 277 LINE",
"667 686 LINE",
"510 686 LINE",
"341 406 LINE",
"336 406 LINE",
"165 686 LINE",
"0 686 LINE",
"262 277 LINE",
"262 0 LINE"
);
}
);
width = 667;
}
);
leftKerningGroup = Y;
note = Y;
rightKerningGroup = Y;
unicode = 0059;
},
{
glyphname = Z;
layers = (
{
anchors = (
{
name = top;
position = "{310, 686}";
}
);
layerId = "54B1AC83-0CA1-46BD-96DF-6FABA525BA97";
paths = (
{
closed = 1;
nodes = (
"589 0 LINE",
"589 83 LINE",
"167 83 LINE",
"580 637 LINE",
"580 686 LINE",
"49 686 LINE",
"49 603 LINE",
"435 603 LINE",
"23 49 LINE",
"23 0 LINE"
);
}
);
width = 611;
},
{
anchors = (
{
name = top;
position = "{310, 686}";
}
);
layerId = "6BFFA46E-AB79-4C09-B73D-70680E42F436";
paths = (
{
closed = 1;
nodes = (
"588 0 LINE",
"588 95 LINE",
"187 95 LINE",
"579 631 LINE",
"579 686 LINE",
"47 686 LINE",
"47 591 LINE",
"413 591 LINE",
"21 55 LINE",
"21 0 LINE"
);
}
);
width = 611;
},
{
anchors = (
{
name = top;
position = "{310, 686}";
}
);
layerId = "E736C715-D109-4716-A17A-2CB5528FE3B0";
paths = (
{
closed = 1;
nodes = (
"587 0 LINE",
"587 109 LINE",
"209 109 LINE",
"578 624 LINE",
"578 686 LINE",
"45 686 LINE",
"45 577 LINE",
"389 577 LINE",
"19 61 LINE",
"19 0 LINE"
);
}
);
width = 611;
},
{
anchors = (
{
name = top;
position = "{310, 686}";
}
);
layerId = "16ED1D51-D51B-4BA0-89FC-970B5AF72829";
paths = (
{
closed = 1;
nodes = (
"586 0 LINE",
"586 123 LINE",
"231 123 LINE",
"577 617 LINE",
"577 686 LINE",
"43 686 LINE",
"43 563 LINE",
"364 563 LINE",
"17 68 LINE",
"17 0 LINE"
);
}
);
width = 611;
}
);
leftKerningGroup = Z;
note = Z;
rightKerningGroup = Z;
unicode = 005A;
},
{
glyphname = Y.loclGUA;
layers = (
{
anchors = (
{
name = top;
position = "{327, 686}";
}
);
layerId = "54B1AC83-0CA1-46BD-96DF-6FABA525BA97";
paths = (
{
closed = 1;
nodes = (
"496 -12 OFFCURVE",
"588 63 OFFCURVE",
"588 253 CURVE SMOOTH",
"588 686 LINE",
"493 686 LINE",
"493 478 LINE SMOOTH",
"493 347 OFFCURVE",
"422 279 OFFCURVE",
"313 279 CURVE SMOOTH",
"222 279 OFFCURVE",
"174 326 OFFCURVE",
"174 418 CURVE SMOOTH",
"174 686 LINE",
"79 686 LINE",
"79 423 LINE SMOOTH",
"79 266 OFFCURVE",
"162 198 OFFCURVE",
"298 198 CURVE SMOOTH",
"384 198 OFFCURVE",
"449 228 OFFCURVE",
"486 294 CURVE",
"493 294 LINE",
"493 248 LINE SMOOTH",
"493 122 OFFCURVE",
"435 69 OFFCURVE",
"329 69 CURVE SMOOTH",
"241 69 OFFCURVE",
"174 103 OFFCURVE",
"174 168 CURVE",
"79 168 LINE",
"79 160 LINE SMOOTH",
"79 40 OFFCURVE",
"184 -12 OFFCURVE",
"327 -12 CURVE SMOOTH"
);
}
);
width = 667;
},
{
anchors = (
{
name = top;
position = "{327, 686}";
}
);
layerId = "6BFFA46E-AB79-4C09-B73D-70680E42F436";
paths = (
{
closed = 1;
nodes = (
"496 -12 OFFCURVE",
"592 68 OFFCURVE",
"592 253 CURVE SMOOTH",
"592 686 LINE",
"481 686 LINE",
"481 488 LINE SMOOTH",
"481 361 OFFCURVE",
"417 295 OFFCURVE",
"315 295 CURVE SMOOTH",
"231 295 OFFCURVE",
"186 339 OFFCURVE",
"186 425 CURVE SMOOTH",
"186 686 LINE",
"75 686 LINE",
"75 430 LINE SMOOTH",
"75 275 OFFCURVE",
"154 201 OFFCURVE",
"293 201 CURVE SMOOTH",
"376 201 OFFCURVE",
"439 229 OFFCURVE",
"475 292 CURVE",
"481 292 LINE",
"481 243 LINE SMOOTH",
"481 131 OFFCURVE",
"426 82 OFFCURVE",
"327 82 CURVE SMOOTH",
"244 82 OFFCURVE",
"186 112 OFFCURVE",
"186 168 CURVE",
"75 168 LINE",
"75 160 LINE SMOOTH",
"75 42 OFFCURVE",
"178 -12 OFFCURVE",
"325 -12 CURVE SMOOTH"
);
}
);
width = 667;
},
{
anchors = (
{
name = top;
position = "{327, 686}";
}
);
layerId = "E736C715-D109-4716-A17A-2CB5528FE3B0";
paths = (
{
closed = 1;
nodes = (
"495 -12 OFFCURVE",
"596 73 OFFCURVE",
"596 254 CURVE SMOOTH",
"596 686 LINE",
"468 686 LINE",
"468 500 LINE SMOOTH",
"468 377 OFFCURVE",
"412 313 OFFCURVE",
"318 313 CURVE SMOOTH",
"242 313 OFFCURVE",
"199 354 OFFCURVE",
"199 434 CURVE SMOOTH",
"199 686 LINE",
"71 686 LINE",
"71 437 LINE SMOOTH",
"71 286 OFFCURVE",
"146 205 OFFCURVE",
"288 205 CURVE SMOOTH",
"366 205 OFFCURVE",
"427 231 OFFCURVE",
"463 290 CURVE",
"468 290 LINE",
"468 238 LINE SMOOTH",
"468 142 OFFCURVE",
"415 96 OFFCURVE",
"324 96 CURVE SMOOTH",
"248 96 OFFCURVE",
"199 121 OFFCURVE",
"199 168 CURVE",
"71 168 LINE",
"71 161 LINE SMOOTH",
"71 44 OFFCURVE",
"170 -12 OFFCURVE",
"324 -12 CURVE SMOOTH"
);
}
);
width = 667;
},
{
anchors = (
{
name = top;
position = "{327, 686}";
}
);
background = {
components = (
{
name = H;
transform = "{1, 0, 0, 1, -54, 0}";
}
);
};
layerId = "16ED1D51-D51B-4BA0-89FC-970B5AF72829";
paths = (
{
closed = 1;
nodes = (
"495 -12 OFFCURVE",
"600 78 OFFCURVE",
"600 254 CURVE SMOOTH",
"600 686 LINE",
"455 686 LINE",
"455 512 LINE SMOOTH",
"455 393 OFFCURVE",
"407 331 OFFCURVE",
"320 331 CURVE SMOOTH",
"252 331 OFFCURVE",
"212 369 OFFCURVE",
"212 442 CURVE SMOOTH",
"212 686 LINE",
"67 686 LINE",
"67 445 LINE SMOOTH",
"67 296 OFFCURVE",
"137 208 OFFCURVE",
"282 208 CURVE SMOOTH",
"357 208 OFFCURVE",
"416 232 OFFCURVE",
"451 288 CURVE",
"455 288 LINE",
"455 232 LINE SMOOTH",
"455 152 OFFCURVE",
"405 111 OFFCURVE",
"322 111 CURVE SMOOTH",
"252 111 OFFCURVE",
"212 131 OFFCURVE",
"212 168 CURVE",
"67 168 LINE",
"67 161 LINE SMOOTH",
"67 46 OFFCURVE",
"163 -12 OFFCURVE",
"322 -12 CURVE SMOOTH"
);
}
);
width = 667;
}
);
leftKerningGroup = Y.loclGUA;
note = Y.loclGUA;
rightKerningGroup = Y.loclGUA;
},
{
glyphname = Cacute.loclPLK;
layers = (
{
background = {
paths = (
{
closed = 1;
nodes = (
"349 868 LINE",
"323 736 LINE",
"398 736 LINE",
"446 865 LINE",
"445 868 LINE"
);
},
{
closed = 1;
nodes = (
"553 -12 OFFCURVE",
"676 69 OFFCURVE",
"676 246 CURVE",
"583 246 LINE",
"583 127 OFFCURVE",
"504 69 OFFCURVE",
"381 69 CURVE SMOOTH",
"221 69 OFFCURVE",
"145 147 OFFCURVE",
"145 343 CURVE SMOOTH",
"145 345 LINE SMOOTH",
"146 540 OFFCURVE",
"222 617 OFFCURVE",
"381 617 CURVE SMOOTH",
"502 617 OFFCURVE",
"579 558 OFFCURVE",
"579 438 CURVE",
"676 438 LINE",
"676 613 OFFCURVE",
"553 698 OFFCURVE",
"381 698 CURVE SMOOTH",
"161 698 OFFCURVE",
"47 581 OFFCURVE",
"47 343 CURVE SMOOTH",
"47 105 OFFCURVE",
"161 -12 OFFCURVE",
"381 -12 CURVE SMOOTH"
);
}
);
};
components = (
{
name = C;
},
{
name = acute.loclPLK;
transform = "{1, 0, 0, 1, 319, 160}";
}
);
layerId = "54B1AC83-0CA1-46BD-96DF-6FABA525BA97";
width = 722;
},
{
background = {
paths = (
{
closed = 1;
nodes = (
"345 868 LINE",
"318 736 LINE",
"403 736 LINE",
"451 866 LINE",
"450 868 LINE"
);
},
{
closed = 1;
nodes = (
"551 -12 OFFCURVE",
"678 70 OFFCURVE",
"678 248 CURVE",
"569 248 LINE",
"569 138 OFFCURVE",
"495 82 OFFCURVE",
"380 82 CURVE SMOOTH",
"230 82 OFFCURVE",
"159 159 OFFCURVE",
"159 338 CURVE SMOOTH",
"159 349 LINE SMOOTH",
"160 526 OFFCURVE",
"230 604 OFFCURVE",
"380 604 CURVE SMOOTH",
"491 604 OFFCURVE",
"565 547 OFFCURVE",
"565 436 CURVE",
"678 436 LINE",
"678 613 OFFCURVE",
"550 698 OFFCURVE",
"379 698 CURVE SMOOTH",
"163 698 OFFCURVE",
"45 582 OFFCURVE",
"45 343 CURVE SMOOTH",
"45 101 OFFCURVE",
"163 -12 OFFCURVE",
"379 -12 CURVE SMOOTH"
);
}
);
};
components = (
{
name = C;
},
{
name = acute.loclPLK;
transform = "{1, 0, 0, 1, 318, 160}";
}
);
layerId = "6BFFA46E-AB79-4C09-B73D-70680E42F436";
width = 722;
},
{
background = {
paths = (
{
closed = 1;
nodes = (
"341 867 LINE",
"313 736 LINE",
"408 736 LINE",
"456 866 LINE",
"455 867 LINE"
);
},
{
closed = 1;
nodes = (
"549 -12 OFFCURVE",
"679 72 OFFCURVE",
"679 251 CURVE",
"553 251 LINE",
"553 151 OFFCURVE",
"484 96 OFFCURVE",
"378 96 CURVE SMOOTH",
"239 96 OFFCURVE",
"175 173 OFFCURVE",
"175 333 CURVE SMOOTH",
"175 353 LINE SMOOTH",
"175 510 OFFCURVE",
"240 590 OFFCURVE",
"378 590 CURVE SMOOTH",
"478 590 OFFCURVE",
"548 535 OFFCURVE",
"548 433 CURVE",
"679 433 LINE",
"679 612 OFFCURVE",
"547 698 OFFCURVE",
"376 698 CURVE SMOOTH",
"166 698 OFFCURVE",
"44 584 OFFCURVE",
"44 343 CURVE SMOOTH",
"44 96 OFFCURVE",
"166 -12 OFFCURVE",
"376 -12 CURVE SMOOTH"
);
}
);
};
components = (
{
name = C;
},
{
name = acute.loclPLK;
transform = "{1, 0, 0, 1, 315, 160}";
}
);
layerId = "E736C715-D109-4716-A17A-2CB5528FE3B0";
width = 722;
},
{
background = {
paths = (
{
closed = 1;
nodes = (
"337 867 LINE",
"308 736 LINE",
"413 736 LINE",
"461 867 LINE"
);
},
{
closed = 1;
nodes = (
"547 -12 OFFCURVE",
"681 73 OFFCURVE",
"681 254 CURVE",
"537 254 LINE",
"537 163 OFFCURVE",
"473 111 OFFCURVE",
"377 111 CURVE SMOOTH",
"249 111 OFFCURVE",
"191 187 OFFCURVE",
"191 328 CURVE SMOOTH",
"191 358 LINE SMOOTH",
"191 494 OFFCURVE",
"249 575 OFFCURVE",
"377 575 CURVE SMOOTH",
"466 575 OFFCURVE",
"532 523 OFFCURVE",
"532 431 CURVE",
"681 431 LINE",
"681 612 OFFCURVE",
"544 698 OFFCURVE",
"374 698 CURVE SMOOTH",
"168 698 OFFCURVE",
"42 585 OFFCURVE",
"42 343 CURVE SMOOTH",
"42 91 OFFCURVE",
"168 -12 OFFCURVE",
"374 -12 CURVE SMOOTH"
);
}
);
};
components = (
{
name = C;
},
{
name = acute.loclPLK;
transform = "{1, 0, 0, 1, 310, 160}";
}
);
layerId = "16ED1D51-D51B-4BA0-89FC-970B5AF72829";
width = 722;
}
);
leftKerningGroup = O;
note = Cacute.loclPLK;
rightKerningGroup = C;
},
{
glyphname = a;
layers = (
{
anchors = (
{
name = bottom;
position = "{264, 0}";
},
{
name = ogonek;
position = "{549, 4}";
},
{
name = top;
position = "{266, 526}";
}
);
layerId = "54B1AC83-0CA1-46BD-96DF-6FABA525BA97";
paths = (
{
closed = 1;
nodes = (
"285 -12 OFFCURVE",
"350 18 OFFCURVE",
"386 67 CURVE",
"393 67 LINE",
"403 22 OFFCURVE",
"435 -8 OFFCURVE",
"481 -8 CURVE SMOOTH",
"514 -8 OFFCURVE",
"538 -1 OFFCURVE",
"549 4 CURVE",
"549 61 LINE",
"509 61 LINE SMOOTH",
"491 61 OFFCURVE",
"474 71 OFFCURVE",
"474 96 CURVE SMOOTH",
"474 381 LINE SMOOTH",
"474 480 OFFCURVE",
"407 538 OFFCURVE",
"274 538 CURVE SMOOTH",
"149 538 OFFCURVE",
"61 488 OFFCURVE",
"61 392 CURVE SMOOTH",
"61 383 OFFCURVE",
"61 376 OFFCURVE",
"62 370 CURVE",
"147 370 LINE",
"147 382 LINE SMOOTH",
"147 422 OFFCURVE",
"172 465 OFFCURVE",
"266 465 CURVE SMOOTH",
"363 465 OFFCURVE",
"386 426 OFFCURVE",
"386 370 CURVE SMOOTH",
"386 312 LINE",
"184 312 OFFCURVE",
"36 281 OFFCURVE",
"36 136 CURVE SMOOTH",
"36 9 OFFCURVE",
"144 -12 OFFCURVE",
"210 -12 CURVE SMOOTH"
);
},
{
closed = 1;
nodes = (
"167 61 OFFCURVE",
"128 81 OFFCURVE",
"128 141 CURVE SMOOTH",
"128 223 OFFCURVE",
"232 239 OFFCURVE",
"386 239 CURVE",
"386 201 LINE SMOOTH",
"386 107 OFFCURVE",
"307 61 OFFCURVE",
"233 61 CURVE SMOOTH"
);
}
);
width = 556;
},
{
anchors = (
{
name = bottom;
position = "{268, 0}";
},
{
name = ogonek;
position = "{548, 4}";
},
{
name = top;
position = "{270, 526}";
}
);
layerId = "6BFFA46E-AB79-4C09-B73D-70680E42F436";
paths = (
{
closed = 1;
nodes = (
"283 -12 OFFCURVE",
"341 17 OFFCURVE",
"377 64 CURVE",
"384 64 LINE",
"394 19 OFFCURVE",
"429 -9 OFFCURVE",
"477 -9 CURVE SMOOTH",
"512 -9 OFFCURVE",
"536 -2 OFFCURVE",
"548 4 CURVE",
"548 73 LINE",
"512 73 LINE SMOOTH",
"494 73 OFFCURVE",
"477 83 OFFCURVE",
"477 108 CURVE SMOOTH",
"477 377 LINE SMOOTH",
"477 478 OFFCURVE",
"410 538 OFFCURVE",
"272 538 CURVE SMOOTH",
"146 538 OFFCURVE",
"59 486 OFFCURVE",
"59 392 CURVE SMOOTH",
"59 383 OFFCURVE",
"59 376 OFFCURVE",
"60 370 CURVE",
"160 370 LINE",
"160 383 LINE SMOOTH",
"160 417 OFFCURVE",
"182 455 OFFCURVE",
"268 455 CURVE SMOOTH",
"355 455 OFFCURVE",
"374 418 OFFCURVE",
"374 367 CURVE SMOOTH",
"374 315 LINE",
"176 315 OFFCURVE",
"34 280 OFFCURVE",
"34 136 CURVE SMOOTH",
"34 9 OFFCURVE",
"141 -12 OFFCURVE",
"204 -12 CURVE SMOOTH"
);
},
{
closed = 1;
nodes = (
"173 72 OFFCURVE",
"140 93 OFFCURVE",
"140 144 CURVE SMOOTH",
"140 221 OFFCURVE",
"239 237 OFFCURVE",
"374 237 CURVE",
"374 205 LINE SMOOTH",
"374 120 OFFCURVE",
"310 72 OFFCURVE",
"234 72 CURVE SMOOTH"
);
}
);
width = 556;
},
{
anchors = (
{
name = bottom;
position = "{271, 0}";
},
{
name = ogonek;
position = "{548, 4}";
},
{
name = top;
position = "{273, 526}";
}
);
layerId = "E736C715-D109-4716-A17A-2CB5528FE3B0";
paths = (
{
closed = 1;
nodes = (
"280 -12 OFFCURVE",
"331 17 OFFCURVE",
"366 60 CURVE",
"373 60 LINE",
"385 16 OFFCURVE",
"421 -11 OFFCURVE",
"473 -11 CURVE SMOOTH",
"509 -11 OFFCURVE",
"535 -2 OFFCURVE",
"548 4 CURVE",
"548 86 LINE",
"516 86 LINE SMOOTH",
"498 86 OFFCURVE",
"481 96 OFFCURVE",
"481 121 CURVE SMOOTH",
"481 372 LINE SMOOTH",
"481 477 OFFCURVE",
"413 538 OFFCURVE",
"271 538 CURVE SMOOTH",
"143 538 OFFCURVE",
"57 483 OFFCURVE",
"57 392 CURVE SMOOTH",
"57 383 OFFCURVE",
"57 376 OFFCURVE",
"58 370 CURVE",
"174 370 LINE",
"174 384 LINE SMOOTH",
"174 412 OFFCURVE",
"194 443 OFFCURVE",
"271 443 CURVE SMOOTH",
"345 443 OFFCURVE",
"361 408 OFFCURVE",
"361 363 CURVE SMOOTH",
"361 319 LINE",
"168 319 OFFCURVE",
"31 279 OFFCURVE",
"31 136 CURVE SMOOTH",
"31 8 OFFCURVE",
"138 -12 OFFCURVE",
"198 -12 CURVE SMOOTH"
);
},
{
closed = 1;
nodes = (
"181 84 OFFCURVE",
"154 106 OFFCURVE",
"154 148 CURVE SMOOTH",
"154 218 OFFCURVE",
"247 234 OFFCURVE",
"361 234 CURVE",
"361 210 LINE SMOOTH",
"361 134 OFFCURVE",
"314 84 OFFCURVE",
"234 84 CURVE SMOOTH"
);
}
);
width = 556;
},
{
anchors = (
{
name = bottom;
position = "{273, 0}";
},
{
name = ogonek;
position = "{547, 4}";
},
{
name = top;
position = "{275, 526}";
}
);
layerId = "16ED1D51-D51B-4BA0-89FC-970B5AF72829";
paths = (
{
closed = 1;
nodes = (
"277 -12 OFFCURVE",
"321 16 OFFCURVE",
"356 57 CURVE",
"362 57 LINE",
"375 13 OFFCURVE",
"414 -12 OFFCURVE",
"468 -12 CURVE SMOOTH",
"507 -12 OFFCURVE",
"533 -3 OFFCURVE",
"547 4 CURVE",
"547 100 LINE",
"519 100 LINE SMOOTH",
"501 100 OFFCURVE",
"484 110 OFFCURVE",
"484 135 CURVE SMOOTH",
"484 367 LINE SMOOTH",
"484 475 OFFCURVE",
"416 538 OFFCURVE",
"269 538 CURVE SMOOTH",
"140 538 OFFCURVE",
"55 480 OFFCURVE",
"55 392 CURVE SMOOTH",
"55 383 OFFCURVE",
"55 376 OFFCURVE",
"56 370 CURVE",
"188 370 LINE",
"188 385 LINE SMOOTH",
"188 406 OFFCURVE",
"206 432 OFFCURVE",
"273 432 CURVE SMOOTH",
"336 432 OFFCURVE",
"347 399 OFFCURVE",
"347 359 CURVE SMOOTH",
"347 322 LINE",
"159 322 OFFCURVE",
"29 278 OFFCURVE",
"29 136 CURVE SMOOTH",
"29 8 OFFCURVE",
"135 -12 OFFCURVE",
"192 -12 CURVE SMOOTH"
);
},
{
closed = 1;
nodes = (
"188 96 OFFCURVE",
"168 120 OFFCURVE",
"168 151 CURVE SMOOTH",
"168 216 OFFCURVE",
"255 231 OFFCURVE",
"347 231 CURVE",
"347 215 LINE SMOOTH",
"347 149 OFFCURVE",
"317 96 OFFCURVE",
"235 96 CURVE SMOOTH"
);
}
);
width = 556;
}
);
leftKerningGroup = a;
note = a;
rightKerningGroup = a;
unicode = 0061;
},
{
glyphname = ae;
layers = (
{
anchors = (
{
name = top;
position = "{446, 526}";
}
);
layerId = "54B1AC83-0CA1-46BD-96DF-6FABA525BA97";
paths = (
{
closed = 1;
nodes = (
"305 -12 OFFCURVE",
"384 20 OFFCURVE",
"432 77 CURVE",
"470 17 OFFCURVE",
"534 -12 OFFCURVE",
"629 -12 CURVE SMOOTH",
"752 -12 OFFCURVE",
"850 51 OFFCURVE",
"850 179 CURVE",
"764 179 LINE",
"764 94 OFFCURVE",
"703 61 OFFCURVE",
"629 61 CURVE SMOOTH",
"529 61 OFFCURVE",
"483 118 OFFCURVE",
"477 239 CURVE",
"850 239 LINE",
"850 283 LINE SMOOTH",
"850 466 OFFCURVE",
"772 538 OFFCURVE",
"629 538 CURVE SMOOTH",
"548 538 OFFCURVE",
"488 513 OFFCURVE",
"448 464 CURVE",
"416 511 OFFCURVE",
"358 538 OFFCURVE",
"274 538 CURVE SMOOTH",
"149 538 OFFCURVE",
"61 488 OFFCURVE",
"61 392 CURVE SMOOTH",
"61 383 OFFCURVE",
"61 376 OFFCURVE",
"62 370 CURVE",
"147 370 LINE",
"147 382 LINE SMOOTH",
"147 422 OFFCURVE",
"172 465 OFFCURVE",
"266 465 CURVE SMOOTH",
"363 465 OFFCURVE",
"388 426 OFFCURVE",
"388 370 CURVE SMOOTH",
"388 312 LINE",
"186 312 OFFCURVE",
"36 281 OFFCURVE",
"36 136 CURVE SMOOTH",
"36 9 OFFCURVE",
"150 -12 OFFCURVE",
"220 -12 CURVE SMOOTH"
);
},
{
closed = 1;
nodes = (
"167 61 OFFCURVE",
"128 81 OFFCURVE",
"128 141 CURVE SMOOTH",
"128 223 OFFCURVE",
"234 239 OFFCURVE",
"388 239 CURVE",
"388 201 LINE SMOOTH",
"388 96 OFFCURVE",
"307 61 OFFCURVE",
"233 61 CURVE SMOOTH"
);
},
{
closed = 1;
nodes = (
"489 421 OFFCURVE",
"535 465 OFFCURVE",
"629 465 CURVE SMOOTH",
"707 465 OFFCURVE",
"758 423 OFFCURVE",
"758 312 CURVE",
"479 312 LINE"
);
}
);
width = 889;
},
{
anchors = (
{
name = top;
position = "{446, 526}";
}
);
layerId = "6BFFA46E-AB79-4C09-B73D-70680E42F436";
paths = (
{
closed = 1;
nodes = (
"312 -12 OFFCURVE",
"385 18 OFFCURVE",
"431 71 CURVE",
"471 15 OFFCURVE",
"535 -12 OFFCURVE",
"627 -12 CURVE SMOOTH",
"753 -12 OFFCURVE",
"851 50 OFFCURVE",
"851 181 CURVE",
"750 181 LINE",
"750 103 OFFCURVE",
"696 71 OFFCURVE",
"627 71 CURVE SMOOTH",
"532 71 OFFCURVE",
"491 125 OFFCURVE",
"486 237 CURVE",
"851 237 LINE",
"851 277 LINE SMOOTH",
"851 462 OFFCURVE",
"773 538 OFFCURVE",
"627 538 CURVE SMOOTH",
"549 538 OFFCURVE",
"490 515 OFFCURVE",
"450 471 CURVE",
"416 514 OFFCURVE",
"358 538 OFFCURVE",
"276 538 CURVE SMOOTH",
"147 538 OFFCURVE",
"59 486 OFFCURVE",
"59 392 CURVE SMOOTH",
"59 383 OFFCURVE",
"59 376 OFFCURVE",
"60 370 CURVE",
"160 370 LINE",
"160 383 LINE SMOOTH",
"160 417 OFFCURVE",
"183 455 OFFCURVE",
"271 455 CURVE SMOOTH",
"361 455 OFFCURVE",
"383 418 OFFCURVE",
"383 367 CURVE SMOOTH",
"383 315 LINE",
"180 315 OFFCURVE",
"34 280 OFFCURVE",
"34 136 CURVE SMOOTH",
"34 9 OFFCURVE",
"154 -12 OFFCURVE",
"224 -12 CURVE SMOOTH"
);
},
{
closed = 1;
nodes = (
"174 72 OFFCURVE",
"140 93 OFFCURVE",
"140 144 CURVE SMOOTH",
"140 221 OFFCURVE",
"244 237 OFFCURVE",
"383 237 CURVE",
"383 205 LINE SMOOTH",
"383 112 OFFCURVE",
"316 72 OFFCURVE",
"237 72 CURVE SMOOTH"
);
},
{
closed = 1;
nodes = (
"498 413 OFFCURVE",
"540 455 OFFCURVE",
"627 455 CURVE SMOOTH",
"698 455 OFFCURVE",
"744 416 OFFCURVE",
"744 315 CURVE",
"488 315 LINE"
);
}
);
width = 889;
},
{
anchors = (
{
name = top;
position = "{446, 526}";
}
);
layerId = "E736C715-D109-4716-A17A-2CB5528FE3B0";
paths = (
{
closed = 1;
nodes = (
"321 -12 OFFCURVE",
"386 17 OFFCURVE",
"431 63 CURVE",
"471 12 OFFCURVE",
"535 -12 OFFCURVE",
"624 -12 CURVE SMOOTH",
"753 -12 OFFCURVE",
"853 50 OFFCURVE",
"853 184 CURVE",
"735 184 LINE",
"735 114 OFFCURVE",
"687 83 OFFCURVE",
"625 83 CURVE SMOOTH",
"536 83 OFFCURVE",
"501 133 OFFCURVE",
"497 234 CURVE",
"853 234 LINE",
"853 270 LINE SMOOTH",
"853 457 OFFCURVE",
"774 538 OFFCURVE",
"624 538 CURVE SMOOTH",
"550 538 OFFCURVE",
"493 518 OFFCURVE",
"452 479 CURVE",
"416 517 OFFCURVE",
"359 538 OFFCURVE",
"277 538 CURVE SMOOTH",
"146 538 OFFCURVE",
"57 483 OFFCURVE",
"57 392 CURVE SMOOTH",
"57 383 OFFCURVE",
"57 376 OFFCURVE",
"58 370 CURVE",
"174 370 LINE",
"174 384 LINE SMOOTH",
"174 412 OFFCURVE",
"196 443 OFFCURVE",
"277 443 CURVE SMOOTH",
"360 443 OFFCURVE",
"377 408 OFFCURVE",
"377 363 CURVE SMOOTH",
"377 319 LINE",
"174 319 OFFCURVE",
"31 279 OFFCURVE",
"31 136 CURVE SMOOTH",
"31 8 OFFCURVE",
"158 -12 OFFCURVE",
"228 -12 CURVE SMOOTH"
);
},
{
closed = 1;
nodes = (
"183 84 OFFCURVE",
"154 106 OFFCURVE",
"154 148 CURVE SMOOTH",
"154 218 OFFCURVE",
"256 234 OFFCURVE",
"377 234 CURVE",
"377 210 LINE SMOOTH",
"377 131 OFFCURVE",
"327 84 OFFCURVE",
"241 84 CURVE SMOOTH"
);
},
{
closed = 1;
nodes = (
"508 403 OFFCURVE",
"545 443 OFFCURVE",
"624 443 CURVE SMOOTH",
"687 443 OFFCURVE",
"728 408 OFFCURVE",
"728 319 CURVE",
"499 319 LINE"
);
}
);
width = 889;
},
{
anchors = (
{
name = top;
position = "{446, 526}";
}
);
layerId = "16ED1D51-D51B-4BA0-89FC-970B5AF72829";
paths = (
{
closed = 1;
nodes = (
"329 -12 OFFCURVE",
"387 15 OFFCURVE",
"430 56 CURVE",
"472 10 OFFCURVE",
"536 -12 OFFCURVE",
"621 -12 CURVE SMOOTH",
"754 -12 OFFCURVE",
"854 49 OFFCURVE",
"854 186 CURVE",
"719 186 LINE",
"719 125 OFFCURVE",
"679 94 OFFCURVE",
"623 94 CURVE SMOOTH",
"539 94 OFFCURVE",
"510 141 OFFCURVE",
"508 231 CURVE",
"854 231 LINE",
"854 263 LINE SMOOTH",
"854 452 OFFCURVE",
"775 538 OFFCURVE",
"621 538 CURVE SMOOTH",
"551 538 OFFCURVE",
"495 521 OFFCURVE",
"454 487 CURVE",
"416 520 OFFCURVE",
"359 538 OFFCURVE",
"279 538 CURVE SMOOTH",
"144 538 OFFCURVE",
"55 480 OFFCURVE",
"55 392 CURVE SMOOTH",
"55 383 OFFCURVE",
"55 376 OFFCURVE",
"56 370 CURVE",
"188 370 LINE",
"188 385 LINE SMOOTH",
"188 406 OFFCURVE",
"208 432 OFFCURVE",
"283 432 CURVE SMOOTH",
"358 432 OFFCURVE",
"371 399 OFFCURVE",
"371 359 CURVE SMOOTH",
"371 322 LINE",
"167 322 OFFCURVE",
"29 278 OFFCURVE",
"29 136 CURVE SMOOTH",
"29 8 OFFCURVE",
"163 -12 OFFCURVE",
"232 -12 CURVE SMOOTH"
);
},
{
closed = 1;
nodes = (
"191 96 OFFCURVE",
"168 120 OFFCURVE",
"168 151 CURVE SMOOTH",
"168 216 OFFCURVE",
"267 231 OFFCURVE",
"371 231 CURVE",
"371 215 LINE SMOOTH",
"371 149 OFFCURVE",
"337 96 OFFCURVE",
"245 96 CURVE SMOOTH"
);
},
{
closed = 1;
nodes = (
"518 394 OFFCURVE",
"551 431 OFFCURVE",
"621 431 CURVE SMOOTH",
"676 431 OFFCURVE",
"712 400 OFFCURVE",
"712 322 CURVE",
"510 322 LINE"
);
}
);
width = 889;
}
);
leftKerningGroup = a;
note = ae;
rightKerningGroup = e;
unicode = 00E6;
},
{
glyphname = b;
layers = (
{
layerId = "54B1AC83-0CA1-46BD-96DF-6FABA525BA97";
paths = (
{
closed = 1;
nodes = (
"442 -12 OFFCURVE",
"521 70 OFFCURVE",
"521 263 CURVE SMOOTH",
"521 454 OFFCURVE",
"440 538 OFFCURVE",
"321 538 CURVE SMOOTH",
"247 538 OFFCURVE",
"196 517 OFFCURVE",
"161 466 CURVE",
"155 466 LINE",
"155 723 LINE",
"67 723 LINE",
"67 0 LINE",
"133 0 LINE",
"144 71 LINE",
"150 71 LINE",
"185 16 OFFCURVE",
"245 -12 OFFCURVE",
"313 -12 CURVE SMOOTH"
);
},
{
closed = 1;
nodes = (
"194 61 OFFCURVE",
"155 132 OFFCURVE",
"155 259 CURVE SMOOTH",
"155 263 LINE SMOOTH",
"155 393 OFFCURVE",
"195 465 OFFCURVE",
"291 465 CURVE SMOOTH",
"390 465 OFFCURVE",
"430 413 OFFCURVE",
"430 263 CURVE SMOOTH",
"430 259 LINE SMOOTH",
"430 112 OFFCURVE",
"391 61 OFFCURVE",
"291 61 CURVE SMOOTH"
);
}
);
width = 556;
},
{
layerId = "6BFFA46E-AB79-4C09-B73D-70680E42F436";
paths = (
{
closed = 1;
nodes = (
"458 -12 OFFCURVE",
"537 71 OFFCURVE",
"537 263 CURVE SMOOTH",
"537 454 OFFCURVE",
"454 538 OFFCURVE",
"336 538 CURVE SMOOTH",
"263 538 OFFCURVE",
"211 515 OFFCURVE",
"177 466 CURVE",
"171 466 LINE",
"171 723 LINE",
"68 723 LINE",
"68 0 LINE",
"150 0 LINE",
"160 70 LINE",
"167 70 LINE",
"201 16 OFFCURVE",
"261 -12 OFFCURVE",
"329 -12 CURVE SMOOTH"
);
},
{
closed = 1;
nodes = (
"209 75 OFFCURVE",
"171 140 OFFCURVE",
"171 257 CURVE SMOOTH",
"171 265 LINE SMOOTH",
"171 384 OFFCURVE",
"209 451 OFFCURVE",
"300 451 CURVE SMOOTH",
"394 451 OFFCURVE",
"431 399 OFFCURVE",
"431 266 CURVE SMOOTH",
"431 257 LINE SMOOTH",
"431 126 OFFCURVE",
"395 75 OFFCURVE",
"300 75 CURVE SMOOTH"
);
}
);
width = 573;
},
{
layerId = "E736C715-D109-4716-A17A-2CB5528FE3B0";
paths = (
{
closed = 1;
nodes = (
"475 -12 OFFCURVE",
"556 72 OFFCURVE",
"556 264 CURVE SMOOTH",
"556 453 OFFCURVE",
"471 538 OFFCURVE",
"354 538 CURVE SMOOTH",
"282 538 OFFCURVE",
"228 514 OFFCURVE",
"196 465 CURVE",
"190 465 LINE",
"190 723 LINE",
"70 723 LINE",
"70 0 LINE",
"169 0 LINE",
"179 70 LINE",
"185 70 LINE",
"220 15 OFFCURVE",
"279 -12 OFFCURVE",
"346 -12 CURVE SMOOTH"
);
},
{
closed = 1;
nodes = (
"225 91 OFFCURVE",
"190 150 OFFCURVE",
"190 256 CURVE SMOOTH",
"190 268 LINE SMOOTH",
"190 375 OFFCURVE",
"226 435 OFFCURVE",
"310 435 CURVE SMOOTH",
"399 435 OFFCURVE",
"432 383 OFFCURVE",
"432 269 CURVE SMOOTH",
"432 256 LINE SMOOTH",
"432 143 OFFCURVE",
"399 91 OFFCURVE",
"310 91 CURVE SMOOTH"
);
}
);
width = 592;
},
{
layerId = "16ED1D51-D51B-4BA0-89FC-970B5AF72829";
paths = (
{
closed = 1;
nodes = (
"493 -12 OFFCURVE",
"574 73 OFFCURVE",
"574 264 CURVE SMOOTH",
"574 453 OFFCURVE",
"487 538 OFFCURVE",
"371 538 CURVE SMOOTH",
"300 538 OFFCURVE",
"245 512 OFFCURVE",
"214 465 CURVE",
"208 465 LINE",
"208 723 LINE",
"71 723 LINE",
"71 0 LINE",
"188 0 LINE",
"197 69 LINE",
"204 69 LINE",
"238 15 OFFCURVE",
"297 -12 OFFCURVE",
"364 -12 CURVE SMOOTH"
);
},
{
closed = 1;
nodes = (
"242 107 OFFCURVE",
"208 159 OFFCURVE",
"208 254 CURVE SMOOTH",
"208 270 LINE SMOOTH",
"208 365 OFFCURVE",
"242 419 OFFCURVE",
"320 419 CURVE SMOOTH",
"404 419 OFFCURVE",
"433 367 OFFCURVE",
"433 272 CURVE SMOOTH",
"433 254 LINE SMOOTH",
"433 159 OFFCURVE",
"404 107 OFFCURVE",
"320 107 CURVE SMOOTH"
);
}
);
width = 611;
}
);
leftKerningGroup = l;
note = b;
rightKerningGroup = b;
unicode = 0062;
},
{
glyphname = c;
layers = (
{
anchors = (
{
name = bottom;
position = "{251, 0}";
},
{
name = top;
position = "{267, 526}";
}
);
layerId = "54B1AC83-0CA1-46BD-96DF-6FABA525BA97";
paths = (
{
closed = 1;
nodes = (
"417 -12 OFFCURVE",
"475 85 OFFCURVE",
"475 195 CURVE",
"390 195 LINE",
"390 108 OFFCURVE",
"357 61 OFFCURVE",
"267 61 CURVE SMOOTH",
"168 61 OFFCURVE",
"126 117 OFFCURVE",
"126 259 CURVE SMOOTH",
"126 263 LINE SMOOTH",
"126 408 OFFCURVE",
"171 465 OFFCURVE",
"267 465 CURVE SMOOTH",
"359 465 OFFCURVE",
"385 422 OFFCURVE",
"385 331 CURVE",
"475 331 LINE",
"475 465 OFFCURVE",
"414 538 OFFCURVE",
"267 538 CURVE SMOOTH",
"109 538 OFFCURVE",
"35 452 OFFCURVE",
"35 263 CURVE SMOOTH",
"35 74 OFFCURVE",
"107 -12 OFFCURVE",
"267 -12 CURVE SMOOTH"
);
}
);
width = 500;
},
{
anchors = (
{
name = bottom;
position = "{262, 0}";
},
{
name = top;
position = "{273, 526}";
}
);
layerId = "6BFFA46E-AB79-4C09-B73D-70680E42F436";
paths = (
{
closed = 1;
nodes = (
"420 -12 OFFCURVE",
"488 76 OFFCURVE",
"488 196 CURVE",
"389 196 LINE",
"389 116 OFFCURVE",
"355 72 OFFCURVE",
"275 72 CURVE SMOOTH",
"181 72 OFFCURVE",
"142 128 OFFCURVE",
"142 258 CURVE SMOOTH",
"142 265 LINE SMOOTH",
"142 397 OFFCURVE",
"183 454 OFFCURVE",
"273 454 CURVE SMOOTH",
"355 454 OFFCURVE",
"384 413 OFFCURVE",
"384 330 CURVE",
"488 330 LINE",
"488 466 OFFCURVE",
"417 538 OFFCURVE",
"274 538 CURVE SMOOTH",
"113 538 OFFCURVE",
"36 452 OFFCURVE",
"36 263 CURVE SMOOTH",
"36 74 OFFCURVE",
"112 -12 OFFCURVE",
"274 -12 CURVE SMOOTH"
);
}
);
width = 517;
},
{
anchors = (
{
name = bottom;
position = "{269, 0}";
},
{
name = top;
position = "{279, 526}";
}
);
layerId = "E736C715-D109-4716-A17A-2CB5528FE3B0";
paths = (
{
closed = 1;
nodes = (
"423 -12 OFFCURVE",
"504 66 OFFCURVE",
"504 197 CURVE",
"388 197 LINE",
"388 125 OFFCURVE",
"352 85 OFFCURVE",
"284 85 CURVE SMOOTH",
"195 85 OFFCURVE",
"159 141 OFFCURVE",
"159 256 CURVE SMOOTH",
"159 268 LINE SMOOTH",
"159 384 OFFCURVE",
"196 441 OFFCURVE",
"279 441 CURVE SMOOTH",
"351 441 OFFCURVE",
"382 403 OFFCURVE",
"382 329 CURVE",
"504 329 LINE",
"504 468 OFFCURVE",
"421 538 OFFCURVE",
"281 538 CURVE SMOOTH",
"118 538 OFFCURVE",
"37 452 OFFCURVE",
"37 263 CURVE SMOOTH",
"37 74 OFFCURVE",
"117 -12 OFFCURVE",
"281 -12 CURVE SMOOTH"
);
}
);
width = 537;
},
{
anchors = (
{
name = bottom;
position = "{274, 0}";
},
{
name = top;
position = "{286, 526}";
}
);
layerId = "16ED1D51-D51B-4BA0-89FC-970B5AF72829";
paths = (
{
closed = 1;
nodes = (
"426 -12 OFFCURVE",
"519 56 OFFCURVE",
"519 198 CURVE",
"387 198 LINE",
"387 134 OFFCURVE",
"350 98 OFFCURVE",
"293 98 CURVE SMOOTH",
"210 98 OFFCURVE",
"177 154 OFFCURVE",
"177 255 CURVE SMOOTH",
"177 271 LINE SMOOTH",
"177 372 OFFCURVE",
"209 428 OFFCURVE",
"286 428 CURVE SMOOTH",
"346 428 OFFCURVE",
"381 393 OFFCURVE",
"381 328 CURVE",
"519 328 LINE",
"519 469 OFFCURVE",
"425 538 OFFCURVE",
"289 538 CURVE SMOOTH",
"123 538 OFFCURVE",
"38 452 OFFCURVE",
"38 263 CURVE SMOOTH",
"38 74 OFFCURVE",
"122 -12 OFFCURVE",
"289 -12 CURVE SMOOTH"
);
}
);
width = 556;
}
);
leftKerningGroup = o;
note = c;
rightKerningGroup = c;
unicode = 0063;
},
{
glyphname = d;
layers = (
{
anchors = (
{
name = center;
position = "{401, 617}";
},
{
name = topright;
position = "{539, 526}";
}
);
layerId = "54B1AC83-0CA1-46BD-96DF-6FABA525BA97";
paths = (
{
closed = 1;
nodes = (
"311 -12 OFFCURVE",
"371 16 OFFCURVE",
"406 71 CURVE",
"412 71 LINE",
"423 0 LINE",
"489 0 LINE",
"489 723 LINE",
"401 723 LINE",
"401 466 LINE",
"395 466 LINE",
"360 517 OFFCURVE",
"309 538 OFFCURVE",
"235 538 CURVE SMOOTH",
"116 538 OFFCURVE",
"35 454 OFFCURVE",
"35 263 CURVE SMOOTH",
"35 70 OFFCURVE",
"114 -12 OFFCURVE",
"243 -12 CURVE SMOOTH"
);
},
{
closed = 1;
nodes = (
"165 61 OFFCURVE",
"126 112 OFFCURVE",
"126 259 CURVE SMOOTH",
"126 263 LINE SMOOTH",
"126 413 OFFCURVE",
"166 465 OFFCURVE",
"265 465 CURVE SMOOTH",
"361 465 OFFCURVE",
"401 393 OFFCURVE",
"401 263 CURVE SMOOTH",
"401 259 LINE SMOOTH",
"401 132 OFFCURVE",
"362 61 OFFCURVE",
"265 61 CURVE SMOOTH"
);
}
);
width = 556;
},
{
anchors = (
{
name = center;
position = "{413, 617}";
},
{
name = topright;
position = "{555, 526}";
}
);
layerId = "6BFFA46E-AB79-4C09-B73D-70680E42F436";
paths = (
{
closed = 1;
nodes = (
"312 -12 OFFCURVE",
"372 16 OFFCURVE",
"406 70 CURVE",
"413 70 LINE",
"423 0 LINE",
"505 0 LINE",
"505 723 LINE",
"402 723 LINE",
"402 466 LINE",
"396 466 LINE",
"362 515 OFFCURVE",
"310 538 OFFCURVE",
"237 538 CURVE SMOOTH",
"118 538 OFFCURVE",
"36 454 OFFCURVE",
"36 263 CURVE SMOOTH",
"36 71 OFFCURVE",
"115 -12 OFFCURVE",
"244 -12 CURVE SMOOTH"
);
},
{
closed = 1;
nodes = (
"178 75 OFFCURVE",
"142 126 OFFCURVE",
"142 257 CURVE SMOOTH",
"142 266 LINE SMOOTH",
"142 399 OFFCURVE",
"179 451 OFFCURVE",
"273 451 CURVE SMOOTH",
"363 451 OFFCURVE",
"402 384 OFFCURVE",
"402 265 CURVE SMOOTH",
"402 257 LINE SMOOTH",
"402 140 OFFCURVE",
"364 75 OFFCURVE",
"273 75 CURVE SMOOTH"
);
}
);
width = 573;
},
{
anchors = (
{
name = center;
position = "{422, 617}";
},
{
name = topright;
position = "{572, 526}";
}
);
layerId = "E736C715-D109-4716-A17A-2CB5528FE3B0";
paths = (
{
closed = 1;
nodes = (
"313 -12 OFFCURVE",
"372 15 OFFCURVE",
"407 70 CURVE",
"413 70 LINE",
"423 0 LINE",
"522 0 LINE",
"522 723 LINE",
"402 723 LINE",
"402 465 LINE",
"396 465 LINE",
"364 514 OFFCURVE",
"310 538 OFFCURVE",
"238 538 CURVE SMOOTH",
"121 538 OFFCURVE",
"36 453 OFFCURVE",
"36 264 CURVE SMOOTH",
"36 72 OFFCURVE",
"117 -12 OFFCURVE",
"246 -12 CURVE SMOOTH"
);
},
{
closed = 1;
nodes = (
"192 91 OFFCURVE",
"160 143 OFFCURVE",
"160 256 CURVE SMOOTH",
"160 269 LINE SMOOTH",
"160 383 OFFCURVE",
"193 435 OFFCURVE",
"282 435 CURVE SMOOTH",
"366 435 OFFCURVE",
"402 375 OFFCURVE",
"402 268 CURVE SMOOTH",
"402 256 LINE SMOOTH",
"402 150 OFFCURVE",
"367 91 OFFCURVE",
"282 91 CURVE SMOOTH"
);
}
);
width = 592;
},
{
anchors = (
{
name = center;
position = "{439, 618}";
},
{
name = topright;
position = "{590, 526}";
}
);
layerId = "16ED1D51-D51B-4BA0-89FC-970B5AF72829";
paths = (
{
closed = 1;
nodes = (
"314 -12 OFFCURVE",
"373 15 OFFCURVE",
"407 69 CURVE",
"414 69 LINE",
"423 0 LINE",
"540 0 LINE",
"540 723 LINE",
"403 723 LINE",
"403 465 LINE",
"397 465 LINE",
"366 512 OFFCURVE",
"311 538 OFFCURVE",
"240 538 CURVE SMOOTH",
"124 538 OFFCURVE",
"37 453 OFFCURVE",
"37 264 CURVE SMOOTH",
"37 73 OFFCURVE",
"118 -12 OFFCURVE",
"247 -12 CURVE SMOOTH"
);
},
{
closed = 1;
nodes = (
"207 107 OFFCURVE",
"178 159 OFFCURVE",
"178 254 CURVE SMOOTH",
"178 272 LINE SMOOTH",
"178 367 OFFCURVE",
"207 419 OFFCURVE",
"291 419 CURVE SMOOTH",
"369 419 OFFCURVE",
"403 365 OFFCURVE",
"403 270 CURVE SMOOTH",
"403 254 LINE SMOOTH",
"403 159 OFFCURVE",
"369 107 OFFCURVE",
"291 107 CURVE SMOOTH"
);
}
);
width = 611;
}
);
leftKerningGroup = o;
note = d;
rightKerningGroup = l;
unicode = 0064;
},
{
glyphname = eth;
layers = (
{
layerId = "54B1AC83-0CA1-46BD-96DF-6FABA525BA97";
paths = (
{
closed = 1;
nodes = (
"437 -12 OFFCURVE",
"521 74 OFFCURVE",
"521 263 CURVE SMOOTH",
"521 408 OFFCURVE",
"459 522 OFFCURVE",
"367 619 CURVE",
"460 625 LINE",
"460 685 LINE",
"308 675 LINE",
"290 692 OFFCURVE",
"272 707 OFFCURVE",
"251 723 CURVE",
"153 723 LINE",
"151 719 LINE",
"175 701 OFFCURVE",
"198 685 OFFCURVE",
"219 668 CURVE",
"120 660 LINE",
"120 600 LINE",
"272 612 LINE",
"300 585 OFFCURVE",
"323 557 OFFCURVE",
"342 528 CURVE",
"341 527 LINE",
"318 533 OFFCURVE",
"293 538 OFFCURVE",
"264 538 CURVE SMOOTH",
"131 538 OFFCURVE",
"35 457 OFFCURVE",
"35 263 CURVE SMOOTH",
"35 74 OFFCURVE",
"119 -12 OFFCURVE",
"278 -12 CURVE SMOOTH"
);
},
{
closed = 1;
nodes = (
"172 61 OFFCURVE",
"126 120 OFFCURVE",
"126 263 CURVE SMOOTH",
"126 268 LINE SMOOTH",
"126 407 OFFCURVE",
"172 465 OFFCURVE",
"278 465 CURVE SMOOTH",
"383 465 OFFCURVE",
"430 409 OFFCURVE",
"430 264 CURVE SMOOTH",
"430 258 LINE SMOOTH",
"430 120 OFFCURVE",
"382 61 OFFCURVE",
"278 61 CURVE SMOOTH"
);
}
);
width = 556;
},
{
layerId = "6BFFA46E-AB79-4C09-B73D-70680E42F436";
paths = (
{
closed = 1;
nodes = (
"451 -12 OFFCURVE",
"537 74 OFFCURVE",
"537 262 CURVE SMOOTH",
"537 404 OFFCURVE",
"482 517 OFFCURVE",
"393 615 CURVE",
"486 621 LINE",
"486 685 LINE",
"332 675 LINE",
"314 692 OFFCURVE",
"295 707 OFFCURVE",
"274 723 CURVE",
"156 723 LINE",
"154 719 LINE",
"177 701 OFFCURVE",
"200 684 OFFCURVE",
"221 666 CURVE",
"121 659 LINE",
"121 595 LINE",
"277 607 LINE",
"304 579 OFFCURVE",
"326 552 OFFCURVE",
"344 523 CURVE",
"342 521 LINE",
"318 529 OFFCURVE",
"291 535 OFFCURVE",
"261 535 CURVE SMOOTH",
"125 535 OFFCURVE",
"36 447 OFFCURVE",
"36 262 CURVE SMOOTH",
"36 74 OFFCURVE",
"121 -12 OFFCURVE",
"286 -12 CURVE SMOOTH"
);
},
{
closed = 1;
nodes = (
"185 73 OFFCURVE",
"142 130 OFFCURVE",
"142 259 CURVE SMOOTH",
"142 268 LINE SMOOTH",
"142 394 OFFCURVE",
"185 450 OFFCURVE",
"286 450 CURVE SMOOTH",
"388 450 OFFCURVE",
"431 392 OFFCURVE",
"431 271 CURVE SMOOTH",
"431 259 LINE SMOOTH",
"431 130 OFFCURVE",
"388 73 OFFCURVE",
"286 73 CURVE SMOOTH"
);
}
);
width = 573;
},
{
layerId = "E736C715-D109-4716-A17A-2CB5528FE3B0";
paths = (
{
closed = 1;
nodes = (
"468 -12 OFFCURVE",
"555 73 OFFCURVE",
"555 260 CURVE SMOOTH",
"555 399 OFFCURVE",
"509 512 OFFCURVE",
"423 611 CURVE",
"515 617 LINE",
"515 686 LINE",
"358 674 LINE",
"340 691 OFFCURVE",
"321 707 OFFCURVE",
"299 723 CURVE",
"160 723 LINE",
"157 718 LINE",
"180 700 OFFCURVE",
"202 683 OFFCURVE",
"222 665 CURVE",
"122 657 LINE",
"122 589 LINE",
"283 601 LINE",
"308 573 OFFCURVE",
"329 546 OFFCURVE",
"347 518 CURVE",
"344 515 LINE",
"318 525 OFFCURVE",
"288 531 OFFCURVE",
"258 531 CURVE SMOOTH",
"119 531 OFFCURVE",
"37 435 OFFCURVE",
"37 260 CURVE SMOOTH",
"37 73 OFFCURVE",
"124 -12 OFFCURVE",
"296 -12 CURVE SMOOTH"
);
},
{
closed = 1;
nodes = (
"199 86 OFFCURVE",
"161 142 OFFCURVE",
"161 255 CURVE SMOOTH",
"161 267 LINE SMOOTH",
"161 379 OFFCURVE",
"199 433 OFFCURVE",
"296 433 CURVE SMOOTH",
"392 433 OFFCURVE",
"431 378 OFFCURVE",
"431 264 CURVE SMOOTH",
"431 255 LINE SMOOTH",
"431 142 OFFCURVE",
"392 86 OFFCURVE",
"296 86 CURVE SMOOTH"
);
}
);
width = 592;
},
{
layerId = "16ED1D51-D51B-4BA0-89FC-970B5AF72829";
paths = (
{
closed = 1;
nodes = (
"484 -12 OFFCURVE",
"573 73 OFFCURVE",
"573 259 CURVE SMOOTH",
"573 394 OFFCURVE",
"535 507 OFFCURVE",
"452 606 CURVE",
"544 613 LINE",
"544 686 LINE",
"385 674 LINE",
"367 691 OFFCURVE",
"347 707 OFFCURVE",
"325 723 CURVE",
"164 723 LINE",
"160 718 LINE",
"182 700 OFFCURVE",
"204 682 OFFCURVE",
"224 663 CURVE",
"123 656 LINE",
"123 583 LINE",
"289 595 LINE",
"312 567 OFFCURVE",
"332 540 OFFCURVE",
"350 513 CURVE",
"345 509 LINE",
"318 521 OFFCURVE",
"286 528 OFFCURVE",
"255 528 CURVE SMOOTH",
"112 528 OFFCURVE",
"38 424 OFFCURVE",
"38 259 CURVE SMOOTH",
"38 73 OFFCURVE",
"127 -12 OFFCURVE",
"305 -12 CURVE SMOOTH"
);
},
{
closed = 1;
nodes = (
"214 100 OFFCURVE",
"179 153 OFFCURVE",
"179 251 CURVE SMOOTH",
"179 267 LINE SMOOTH",
"179 364 OFFCURVE",
"214 416 OFFCURVE",
"305 416 CURVE SMOOTH",
"397 416 OFFCURVE",
"432 364 OFFCURVE",
"432 267 CURVE SMOOTH",
"432 251 LINE SMOOTH",
"432 153 OFFCURVE",
"397 100 OFFCURVE",
"305 100 CURVE SMOOTH"
);
}
);
width = 611;
}
);
leftKerningGroup = o;
note = eth;
rightKerningGroup = o;
unicode = 00F0;
},
{
glyphname = dcaron;
layers = (
{
background = {
paths = (
{
closed = 1;
nodes = (
"311 -12 OFFCURVE",
"371 16 OFFCURVE",
"406 71 CURVE",
"412 71 LINE",
"423 0 LINE",
"489 0 LINE",
"489 723 LINE",
"401 723 LINE",
"401 466 LINE",
"395 466 LINE",
"360 517 OFFCURVE",
"309 538 OFFCURVE",
"235 538 CURVE SMOOTH",
"116 538 OFFCURVE",
"35 454 OFFCURVE",
"35 263 CURVE SMOOTH",
"35 70 OFFCURVE",
"114 -12 OFFCURVE",
"243 -12 CURVE SMOOTH"
);
},
{
closed = 1;
nodes = (
"165 61 OFFCURVE",
"126 112 OFFCURVE",
"126 259 CURVE SMOOTH",
"126 263 LINE SMOOTH",
"126 413 OFFCURVE",
"166 465 OFFCURVE",
"265 465 CURVE SMOOTH",
"361 465 OFFCURVE",
"401 393 OFFCURVE",
"401 263 CURVE SMOOTH",
"401 259 LINE SMOOTH",
"401 132 OFFCURVE",
"362 61 OFFCURVE",
"265 61 CURVE SMOOTH"
);
},
{
closed = 1;
nodes = (
"588 489 LINE",
"629 601 LINE",
"629 685 LINE",
"544 685 LINE",
"544 594 LINE",
"578 594 LINE",
"544 489 LINE"
);
}
);
};
components = (
{
name = d;
},
{
name = caroncomb.alt;
transform = "{1, 0, 0, 1, 539, 0}";
}
);
layerId = "54B1AC83-0CA1-46BD-96DF-6FABA525BA97";
width = 556;
},
{
background = {
paths = (
{
closed = 1;
nodes = (
"312 -12 OFFCURVE",
"372 16 OFFCURVE",
"406 70 CURVE",
"413 70 LINE",
"423 0 LINE",
"505 0 LINE",
"505 723 LINE",
"402 723 LINE",
"402 466 LINE",
"396 466 LINE",
"362 515 OFFCURVE",
"310 538 OFFCURVE",
"237 538 CURVE SMOOTH",
"118 538 OFFCURVE",
"36 454 OFFCURVE",
"36 263 CURVE SMOOTH",
"36 71 OFFCURVE",
"115 -12 OFFCURVE",
"244 -12 CURVE SMOOTH"
);
},
{
closed = 1;
nodes = (
"178 75 OFFCURVE",
"142 126 OFFCURVE",
"142 257 CURVE SMOOTH",
"142 266 LINE SMOOTH",
"142 399 OFFCURVE",
"179 451 OFFCURVE",
"273 451 CURVE SMOOTH",
"363 451 OFFCURVE",
"402 384 OFFCURVE",
"402 265 CURVE SMOOTH",
"402 257 LINE SMOOTH",
"402 140 OFFCURVE",
"364 75 OFFCURVE",
"273 75 CURVE SMOOTH"
);
},
{
closed = 1;
nodes = (
"611 474 LINE",
"659 591 LINE",
"659 685 LINE",
"558 685 LINE",
"558 583 LINE",
"598 583 LINE",
"558 474 LINE"
);
}
);
};
components = (
{
name = d;
},
{
name = caroncomb.alt;
transform = "{1, 0, 0, 1, 555, 0}";
}
);
layerId = "6BFFA46E-AB79-4C09-B73D-70680E42F436";
width = 573;
},
{
background = {
paths = (
{
closed = 1;
nodes = (
"313 -12 OFFCURVE",
"372 15 OFFCURVE",
"407 70 CURVE",
"413 70 LINE",
"423 0 LINE",
"522 0 LINE",
"522 723 LINE",
"402 723 LINE",
"402 465 LINE",
"396 465 LINE",
"364 514 OFFCURVE",
"310 538 OFFCURVE",
"238 538 CURVE SMOOTH",
"121 538 OFFCURVE",
"36 453 OFFCURVE",
"36 264 CURVE SMOOTH",
"36 72 OFFCURVE",
"117 -12 OFFCURVE",
"246 -12 CURVE SMOOTH"
);
},
{
closed = 1;
nodes = (
"192 91 OFFCURVE",
"160 143 OFFCURVE",
"160 256 CURVE SMOOTH",
"160 269 LINE SMOOTH",
"160 383 OFFCURVE",
"193 435 OFFCURVE",
"282 435 CURVE SMOOTH",
"366 435 OFFCURVE",
"402 375 OFFCURVE",
"402 268 CURVE SMOOTH",
"402 256 LINE SMOOTH",
"402 150 OFFCURVE",
"367 91 OFFCURVE",
"282 91 CURVE SMOOTH"
);
},
{
closed = 1;
nodes = (
"639 456 LINE",
"696 580 LINE",
"696 684 LINE",
"576 684 LINE",
"576 569 LINE",
"624 569 LINE",
"576 456 LINE"
);
}
);
};
components = (
{
name = d;
},
{
name = caroncomb.alt;
transform = "{1, 0, 0, 1, 572, 0}";
}
);
layerId = "E736C715-D109-4716-A17A-2CB5528FE3B0";
width = 592;
},
{
background = {
paths = (
{
closed = 1;
nodes = (
"314 -12 OFFCURVE",
"373 15 OFFCURVE",
"407 69 CURVE",
"414 69 LINE",
"423 0 LINE",
"540 0 LINE",
"540 723 LINE",
"403 723 LINE",
"403 465 LINE",
"397 465 LINE",
"366 512 OFFCURVE",
"311 538 OFFCURVE",
"240 538 CURVE SMOOTH",
"124 538 OFFCURVE",
"37 453 OFFCURVE",
"37 264 CURVE SMOOTH",
"37 73 OFFCURVE",
"118 -12 OFFCURVE",
"247 -12 CURVE SMOOTH"
);
},
{
closed = 1;
nodes = (
"207 107 OFFCURVE",
"178 159 OFFCURVE",
"178 254 CURVE SMOOTH",
"178 272 LINE SMOOTH",
"178 367 OFFCURVE",
"207 419 OFFCURVE",
"291 419 CURVE SMOOTH",
"369 419 OFFCURVE",
"403 365 OFFCURVE",
"403 270 CURVE SMOOTH",
"403 254 LINE SMOOTH",
"403 159 OFFCURVE",
"369 107 OFFCURVE",
"291 107 CURVE SMOOTH"
);
},
{
closed = 1;
nodes = (
"663 440 LINE",
"729 569 LINE",
"729 684 LINE",
"591 684 LINE",
"591 557 LINE",
"646 557 LINE",
"591 440 LINE"
);
}
);
};
components = (
{
name = d;
},
{
name = caroncomb.alt;
transform = "{1, 0, 0, 1, 590, 0}";
}
);
layerId = "16ED1D51-D51B-4BA0-89FC-970B5AF72829";
width = 611;
}
);
leftKerningGroup = o;
note = dcaron;
rightKerningGroup = dcaron;
unicode = 010F;
},
{
glyphname = dcroat;
layers = (
{
background = {
paths = (
{
closed = 1;
nodes = (
"555 596 LINE",
"555 658 LINE",
"489 658 LINE",
"489 723 LINE",
"401 723 LINE",
"401 658 LINE",
"261 658 LINE",
"261 596 LINE",
"401 596 LINE",
"401 466 LINE",
"395 466 LINE",
"360 517 OFFCURVE",
"309 538 OFFCURVE",
"235 538 CURVE SMOOTH",
"116 538 OFFCURVE",
"35 454 OFFCURVE",
"35 263 CURVE SMOOTH",
"35 70 OFFCURVE",
"114 -12 OFFCURVE",
"243 -12 CURVE SMOOTH",
"311 -12 OFFCURVE",
"371 16 OFFCURVE",
"406 71 CURVE",
"412 71 LINE",
"423 0 LINE",
"489 0 LINE",
"489 596 LINE"
);
},
{
closed = 1;
nodes = (
"401 259 LINE SMOOTH",
"401 132 OFFCURVE",
"362 61 OFFCURVE",
"265 61 CURVE SMOOTH",
"165 61 OFFCURVE",
"126 112 OFFCURVE",
"126 259 CURVE SMOOTH",
"126 263 LINE SMOOTH",
"126 413 OFFCURVE",
"166 465 OFFCURVE",
"265 465 CURVE SMOOTH",
"361 465 OFFCURVE",
"401 393 OFFCURVE",
"401 263 CURVE SMOOTH"
);
}
);
};
components = (
{
name = d;
}
);
layerId = "54B1AC83-0CA1-46BD-96DF-6FABA525BA97";
paths = (
{
closed = 1;
nodes = (
"555 596 LINE",
"555 658 LINE",
"246 658 LINE",
"246 596 LINE"
);
}
);
width = 556;
},
{
background = {
paths = (
{
closed = 1;
nodes = (
"568 593 LINE",
"568 658 LINE",
"505 658 LINE",
"505 723 LINE",
"402 723 LINE",
"402 658 LINE",
"257 658 LINE",
"257 593 LINE",
"402 593 LINE",
"402 466 LINE",
"396 466 LINE",
"362 515 OFFCURVE",
"310 538 OFFCURVE",
"237 538 CURVE SMOOTH",
"118 538 OFFCURVE",
"36 454 OFFCURVE",
"36 263 CURVE SMOOTH",
"36 71 OFFCURVE",
"115 -12 OFFCURVE",
"244 -12 CURVE SMOOTH",
"312 -12 OFFCURVE",
"372 16 OFFCURVE",
"406 70 CURVE",
"413 70 LINE",
"423 0 LINE",
"505 0 LINE",
"505 593 LINE"
);
},
{
closed = 1;
nodes = (
"402 257 LINE SMOOTH",
"402 140 OFFCURVE",
"364 75 OFFCURVE",
"273 75 CURVE SMOOTH",
"178 75 OFFCURVE",
"142 126 OFFCURVE",
"142 257 CURVE SMOOTH",
"142 266 LINE SMOOTH",
"142 399 OFFCURVE",
"179 451 OFFCURVE",
"273 451 CURVE SMOOTH",
"363 451 OFFCURVE",
"402 384 OFFCURVE",
"402 265 CURVE SMOOTH"
);
}
);
};
components = (
{
name = d;
}
);
layerId = "6BFFA46E-AB79-4C09-B73D-70680E42F436";
paths = (
{
closed = 1;
nodes = (
"568 593 LINE",
"568 658 LINE",
"257 658 LINE",
"257 593 LINE"
);
}
);
width = 573;
},
{
background = {
paths = (
{
closed = 1;
nodes = (
"583 590 LINE",
"583 658 LINE",
"522 658 LINE",
"522 723 LINE",
"402 723 LINE",
"402 658 LINE",
"253 658 LINE",
"253 590 LINE",
"402 590 LINE",
"402 465 LINE",
"396 465 LINE",
"364 514 OFFCURVE",
"310 538 OFFCURVE",
"238 538 CURVE SMOOTH",
"121 538 OFFCURVE",
"36 453 OFFCURVE",
"36 264 CURVE SMOOTH",
"36 72 OFFCURVE",
"117 -12 OFFCURVE",
"246 -12 CURVE SMOOTH",
"313 -12 OFFCURVE",
"372 15 OFFCURVE",
"407 70 CURVE",
"413 70 LINE",
"423 0 LINE",
"522 0 LINE",
"522 590 LINE"
);
},
{
closed = 1;
nodes = (
"402 256 LINE SMOOTH",
"402 150 OFFCURVE",
"367 91 OFFCURVE",
"282 91 CURVE SMOOTH",
"192 91 OFFCURVE",
"160 143 OFFCURVE",
"160 256 CURVE SMOOTH",
"160 269 LINE SMOOTH",
"160 383 OFFCURVE",
"193 435 OFFCURVE",
"282 435 CURVE SMOOTH",
"366 435 OFFCURVE",
"402 375 OFFCURVE",
"402 268 CURVE SMOOTH"
);
}
);
};
components = (
{
name = d;
}
);
layerId = "E736C715-D109-4716-A17A-2CB5528FE3B0";
paths = (
{
closed = 1;
nodes = (
"583 590 LINE",
"583 658 LINE",
"253 658 LINE",
"253 590 LINE"
);
}
);
width = 592;
},
{
background = {
paths = (
{
closed = 1;
nodes = (
"598 587 LINE",
"598 658 LINE",
"540 658 LINE",
"540 723 LINE",
"403 723 LINE",
"403 658 LINE",
"249 658 LINE",
"249 587 LINE",
"403 587 LINE",
"403 465 LINE",
"397 465 LINE",
"366 512 OFFCURVE",
"311 538 OFFCURVE",
"240 538 CURVE SMOOTH",
"124 538 OFFCURVE",
"37 453 OFFCURVE",
"37 264 CURVE SMOOTH",
"37 73 OFFCURVE",
"118 -12 OFFCURVE",
"247 -12 CURVE SMOOTH",
"314 -12 OFFCURVE",
"373 15 OFFCURVE",
"407 69 CURVE",
"414 69 LINE",
"423 0 LINE",
"540 0 LINE",
"540 587 LINE"
);
},
{
closed = 1;
nodes = (
"403 254 LINE SMOOTH",
"403 159 OFFCURVE",
"369 107 OFFCURVE",
"291 107 CURVE SMOOTH",
"207 107 OFFCURVE",
"178 159 OFFCURVE",
"178 254 CURVE SMOOTH",
"178 272 LINE SMOOTH",
"178 367 OFFCURVE",
"207 419 OFFCURVE",
"291 419 CURVE SMOOTH",
"369 419 OFFCURVE",
"403 365 OFFCURVE",
"403 270 CURVE SMOOTH"
);
}
);
};
components = (
{
name = d;
}
);
layerId = "16ED1D51-D51B-4BA0-89FC-970B5AF72829";
paths = (
{
closed = 1;
nodes = (
"598 587 LINE",
"598 658 LINE",
"249 658 LINE",
"249 587 LINE"
);
}
);
width = 611;
}
);
leftKerningGroup = o;
note = dcroat;
rightKerningGroup = l;
unicode = 0111;
},
{
glyphname = e;
layers = (
{
anchors = (
{
name = bottom;
position = "{286, 0}";
},
{
name = ogonek;
position = "{379, 0}";
},
{
name = top;
position = "{282, 526}";
}
);
layerId = "54B1AC83-0CA1-46BD-96DF-6FABA525BA97";
paths = (
{
closed = 1;
nodes = (
"417 -12 OFFCURVE",
"517 51 OFFCURVE",
"517 179 CURVE",
"431 179 LINE",
"431 94 OFFCURVE",
"367 61 OFFCURVE",
"290 61 CURVE SMOOTH",
"185 61 OFFCURVE",
"136 118 OFFCURVE",
"130 239 CURVE",
"517 239 LINE",
"517 283 LINE SMOOTH",
"517 466 OFFCURVE",
"438 538 OFFCURVE",
"290 538 CURVE SMOOTH",
"122 538 OFFCURVE",
"39 452 OFFCURVE",
"39 263 CURVE SMOOTH",
"39 74 OFFCURVE",
"121 -12 OFFCURVE",
"290 -12 CURVE SMOOTH"
);
},
{
closed = 1;
nodes = (
"143 421 OFFCURVE",
"191 465 OFFCURVE",
"290 465 CURVE SMOOTH",
"371 465 OFFCURVE",
"425 423 OFFCURVE",
"425 312 CURVE",
"132 312 LINE"
);
}
);
width = 556;
},
{
anchors = (
{
name = bottom;
position = "{286, 0}";
},
{
name = ogonek;
position = "{380, 0}";
},
{
name = top;
position = "{282, 526}";
}
);
layerId = "6BFFA46E-AB79-4C09-B73D-70680E42F436";
paths = (
{
closed = 1;
nodes = (
"418 -12 OFFCURVE",
"518 50 OFFCURVE",
"518 181 CURVE",
"417 181 LINE",
"417 103 OFFCURVE",
"361 71 OFFCURVE",
"290 71 CURVE SMOOTH",
"191 71 OFFCURVE",
"149 125 OFFCURVE",
"144 237 CURVE",
"518 237 LINE",
"518 277 LINE SMOOTH",
"518 462 OFFCURVE",
"439 538 OFFCURVE",
"289 538 CURVE SMOOTH",
"121 538 OFFCURVE",
"38 452 OFFCURVE",
"38 263 CURVE SMOOTH",
"38 74 OFFCURVE",
"121 -12 OFFCURVE",
"289 -12 CURVE SMOOTH"
);
},
{
closed = 1;
nodes = (
"156 413 OFFCURVE",
"199 455 OFFCURVE",
"289 455 CURVE SMOOTH",
"362 455 OFFCURVE",
"411 416 OFFCURVE",
"411 315 CURVE",
"146 315 LINE"
);
}
);
width = 556;
},
{
anchors = (
{
name = bottom;
position = "{286, 0}";
},
{
name = ogonek;
position = "{380, 0}";
},
{
name = top;
position = "{282, 526}";
}
);
layerId = "E736C715-D109-4716-A17A-2CB5528FE3B0";
paths = (
{
closed = 1;
nodes = (
"420 -12 OFFCURVE",
"520 50 OFFCURVE",
"520 184 CURVE",
"402 184 LINE",
"402 114 OFFCURVE",
"353 83 OFFCURVE",
"290 83 CURVE SMOOTH",
"199 83 OFFCURVE",
"163 133 OFFCURVE",
"159 234 CURVE",
"520 234 LINE",
"520 270 LINE SMOOTH",
"520 457 OFFCURVE",
"441 538 OFFCURVE",
"289 538 CURVE SMOOTH",
"121 538 OFFCURVE",
"37 452 OFFCURVE",
"37 263 CURVE SMOOTH",
"37 74 OFFCURVE",
"120 -12 OFFCURVE",
"289 -12 CURVE SMOOTH"
);
},
{
closed = 1;
nodes = (
"170 403 OFFCURVE",
"209 443 OFFCURVE",
"289 443 CURVE SMOOTH",
"353 443 OFFCURVE",
"395 408 OFFCURVE",
"395 319 CURVE",
"161 319 LINE"
);
}
);
width = 556;
},
{
anchors = (
{
name = bottom;
position = "{286, 0}";
},
{
name = ogonek;
position = "{381, 0}";
},
{
name = top;
position = "{282, 526}";
}
);
layerId = "16ED1D51-D51B-4BA0-89FC-970B5AF72829";
paths = (
{
closed = 1;
nodes = (
"421 -12 OFFCURVE",
"521 49 OFFCURVE",
"521 186 CURVE",
"386 186 LINE",
"386 125 OFFCURVE",
"346 94 OFFCURVE",
"290 94 CURVE SMOOTH",
"206 94 OFFCURVE",
"177 141 OFFCURVE",
"175 231 CURVE",
"521 231 LINE",
"521 263 LINE SMOOTH",
"521 452 OFFCURVE",
"442 538 OFFCURVE",
"288 538 CURVE SMOOTH",
"120 538 OFFCURVE",
"36 452 OFFCURVE",
"36 263 CURVE SMOOTH",
"36 74 OFFCURVE",
"120 -12 OFFCURVE",
"288 -12 CURVE SMOOTH"
);
},
{
closed = 1;
nodes = (
"185 394 OFFCURVE",
"218 431 OFFCURVE",
"288 431 CURVE SMOOTH",
"343 431 OFFCURVE",
"379 400 OFFCURVE",
"379 322 CURVE",
"177 322 LINE"
);
}
);
width = 556;
}
);
leftKerningGroup = o;
note = e;
rightKerningGroup = e;
unicode = 0065;
},
{
glyphname = f;
layers = (
{
layerId = "54B1AC83-0CA1-46BD-96DF-6FABA525BA97";
paths = (
{
closed = 1;
nodes = (
"174 0 LINE",
"174 453 LINE",
"275 453 LINE",
"275 526 LINE",
"174 526 LINE",
"174 610 LINE SMOOTH",
"174 641 OFFCURVE",
"190 658 OFFCURVE",
"223 658 CURVE SMOOTH",
"275 658 LINE",
"275 719 LINE",
"257 726 OFFCURVE",
"227 731 OFFCURVE",
"200 731 CURVE SMOOTH",
"110 731 OFFCURVE",
"86 670 OFFCURVE",
"86 610 CURVE SMOOTH",
"86 526 LINE",
"9 526 LINE",
"9 453 LINE",
"86 453 LINE",
"86 0 LINE"
);
}
);
width = 278;
},
{
layerId = "6BFFA46E-AB79-4C09-B73D-70680E42F436";
paths = (
{
closed = 1;
nodes = (
"188 0 LINE",
"188 441 LINE",
"287 441 LINE",
"287 526 LINE",
"188 526 LINE",
"188 600 LINE SMOOTH",
"188 630 OFFCURVE",
"204 646 OFFCURVE",
"236 646 CURVE SMOOTH",
"287 646 LINE",
"287 718 LINE",
"268 725 OFFCURVE",
"236 731 OFFCURVE",
"208 731 CURVE SMOOTH",
"112 731 OFFCURVE",
"85 666 OFFCURVE",
"85 603 CURVE SMOOTH",
"85 526 LINE",
"9 526 LINE",
"9 441 LINE",
"85 441 LINE",
"85 0 LINE"
);
}
);
width = 295;
},
{
layerId = "E736C715-D109-4716-A17A-2CB5528FE3B0";
paths = (
{
closed = 1;
nodes = (
"205 0 LINE",
"205 428 LINE",
"300 428 LINE",
"300 526 LINE",
"205 526 LINE",
"205 588 LINE SMOOTH",
"205 617 OFFCURVE",
"220 633 OFFCURVE",
"250 633 CURVE SMOOTH",
"300 633 LINE",
"300 716 LINE",
"281 724 OFFCURVE",
"245 731 OFFCURVE",
"217 731 CURVE SMOOTH",
"114 731 OFFCURVE",
"85 662 OFFCURVE",
"85 594 CURVE SMOOTH",
"85 526 LINE",
"9 526 LINE",
"9 428 LINE",
"85 428 LINE",
"85 0 LINE"
);
}
);
width = 314;
},
{
layerId = "16ED1D51-D51B-4BA0-89FC-970B5AF72829";
paths = (
{
closed = 1;
nodes = (
"221 0 LINE",
"221 414 LINE",
"314 414 LINE",
"314 526 LINE",
"221 526 LINE",
"221 576 LINE SMOOTH",
"221 604 OFFCURVE",
"236 619 OFFCURVE",
"264 619 CURVE SMOOTH",
"314 619 LINE",
"314 715 LINE",
"293 723 OFFCURVE",
"255 731 OFFCURVE",
"226 731 CURVE SMOOTH",
"116 731 OFFCURVE",
"84 658 OFFCURVE",
"84 586 CURVE SMOOTH",
"84 526 LINE",
"9 526 LINE",
"9 414 LINE",
"84 414 LINE",
"84 0 LINE"
);
}
);
width = 333;
}
);
leftKerningGroup = f;
note = f;
rightKerningGroup = f;
unicode = 0066;
},
{
glyphname = g;
layers = (
{
anchors = (
{
name = top;
position = "{278, 526}";
}
);
layerId = "54B1AC83-0CA1-46BD-96DF-6FABA525BA97";
paths = (
{
closed = 1;
nodes = (
"373 -182 LINE SMOOTH",
"494 -182 OFFCURVE",
"539 -101 OFFCURVE",
"539 -30 CURVE SMOOTH",
"539 37 OFFCURVE",
"492 98 OFFCURVE",
"405 98 CURVE SMOOTH",
"194 98 LINE SMOOTH",
"156 98 OFFCURVE",
"138 117 OFFCURVE",
"138 141 CURVE SMOOTH",
"138 165 OFFCURVE",
"156 184 OFFCURVE",
"194 184 CURVE SMOOTH",
"278 184 LINE SMOOTH",
"409 184 OFFCURVE",
"492 248 OFFCURVE",
"492 361 CURVE SMOOTH",
"492 412 OFFCURVE",
"471 454 OFFCURVE",
"436 485 CURVE",
"498 499 OFFCURVE",
"538 548 OFFCURVE",
"538 611 CURVE",
"454 611 LINE",
"448 578 OFFCURVE",
"430 545 OFFCURVE",
"378 520 CURVE",
"348 532 OFFCURVE",
"314 538 OFFCURVE",
"278 538 CURVE SMOOTH",
"147 538 OFFCURVE",
"65 474 OFFCURVE",
"65 361 CURVE SMOOTH",
"65 303 OFFCURVE",
"94 256 OFFCURVE",
"136 225 CURVE",
"108 218 OFFCURVE",
"48 197 OFFCURVE",
"48 138 CURVE SMOOTH",
"48 100 OFFCURVE",
"74 73 OFFCURVE",
"103 57 CURVE",
"72 46 OFFCURVE",
"18 20 OFFCURVE",
"18 -55 CURVE SMOOTH",
"18 -155 OFFCURVE",
"97 -182 OFFCURVE",
"161 -182 CURVE SMOOTH"
);
},
{
closed = 1;
nodes = (
"131 -111 OFFCURVE",
"106 -85 OFFCURVE",
"106 -45 CURVE SMOOTH",
"106 -4 OFFCURVE",
"131 20 OFFCURVE",
"169 20 CURVE SMOOTH",
"388 20 LINE SMOOTH",
"426 20 OFFCURVE",
"452 -4 OFFCURVE",
"452 -45 CURVE SMOOTH",
"452 -85 OFFCURVE",
"419 -111 OFFCURVE",
"375 -111 CURVE SMOOTH",
"169 -111 LINE SMOOTH"
);
},
{
closed = 1;
nodes = (
"195 252 OFFCURVE",
"153 292 OFFCURVE",
"153 361 CURVE SMOOTH",
"153 430 OFFCURVE",
"195 470 OFFCURVE",
"279 470 CURVE SMOOTH",
"363 470 OFFCURVE",
"405 430 OFFCURVE",
"405 361 CURVE SMOOTH",
"405 292 OFFCURVE",
"363 252 OFFCURVE",
"279 252 CURVE SMOOTH"
);
}
);
width = 556;
},
{
anchors = (
{
name = top;
position = "{280, 526}";
}
);
layerId = "6BFFA46E-AB79-4C09-B73D-70680E42F436";
paths = (
{
closed = 1;
nodes = (
"382 -182 LINE SMOOTH",
"500 -182 OFFCURVE",
"558 -106 OFFCURVE",
"558 -27 CURVE SMOOTH",
"558 46 OFFCURVE",
"506 105 OFFCURVE",
"423 105 CURVE SMOOTH",
"203 105 LINE SMOOTH",
"171 105 OFFCURVE",
"155 122 OFFCURVE",
"155 144 CURVE SMOOTH",
"155 166 OFFCURVE",
"172 183 OFFCURVE",
"205 183 CURVE SMOOTH",
"288 183 LINE SMOOTH",
"424 183 OFFCURVE",
"506 249 OFFCURVE",
"506 360 CURVE SMOOTH",
"506 411 OFFCURVE",
"486 453 OFFCURVE",
"452 483 CURVE",
"516 498 OFFCURVE",
"557 545 OFFCURVE",
"557 612 CURVE",
"458 612 LINE",
"454 583 OFFCURVE",
"437 547 OFFCURVE",
"387 521 CURVE",
"357 532 OFFCURVE",
"323 538 OFFCURVE",
"286 538 CURVE SMOOTH",
"148 538 OFFCURVE",
"67 472 OFFCURVE",
"67 360 CURVE SMOOTH",
"67 301 OFFCURVE",
"95 254 OFFCURVE",
"139 223 CURVE",
"104 214 OFFCURVE",
"50 189 OFFCURVE",
"50 134 CURVE SMOOTH",
"50 97 OFFCURVE",
"74 70 OFFCURVE",
"104 54 CURVE",
"68 40 OFFCURVE",
"20 11 OFFCURVE",
"20 -57 CURVE SMOOTH",
"20 -148 OFFCURVE",
"93 -182 OFFCURVE",
"159 -182 CURVE SMOOTH"
);
},
{
closed = 1;
nodes = (
"147 -104 OFFCURVE",
"123 -80 OFFCURVE",
"123 -43 CURVE SMOOTH",
"123 -7 OFFCURVE",
"148 16 OFFCURVE",
"183 16 CURVE SMOOTH",
"394 16 LINE SMOOTH",
"430 16 OFFCURVE",
"455 -6 OFFCURVE",
"455 -43 CURVE SMOOTH",
"455 -80 OFFCURVE",
"424 -104 OFFCURVE",
"383 -104 CURVE SMOOTH",
"183 -104 LINE SMOOTH"
);
},
{
closed = 1;
nodes = (
"208 258 OFFCURVE",
"169 296 OFFCURVE",
"169 360 CURVE SMOOTH",
"169 425 OFFCURVE",
"208 462 OFFCURVE",
"286 462 CURVE SMOOTH",
"365 462 OFFCURVE",
"404 425 OFFCURVE",
"404 360 CURVE SMOOTH",
"404 296 OFFCURVE",
"365 258 OFFCURVE",
"286 258 CURVE SMOOTH"
);
}
);
width = 573;
},
{
anchors = (
{
name = top;
position = "{291, 526}";
}
);
layerId = "E736C715-D109-4716-A17A-2CB5528FE3B0";
paths = (
{
closed = 1;
nodes = (
"393 -182 LINE SMOOTH",
"506 -182 OFFCURVE",
"579 -112 OFFCURVE",
"579 -23 CURVE SMOOTH",
"579 56 OFFCURVE",
"523 113 OFFCURVE",
"444 113 CURVE SMOOTH",
"214 113 LINE SMOOTH",
"188 113 OFFCURVE",
"173 128 OFFCURVE",
"173 147 CURVE SMOOTH",
"173 168 OFFCURVE",
"190 181 OFFCURVE",
"218 181 CURVE SMOOTH",
"300 181 LINE SMOOTH",
"442 181 OFFCURVE",
"521 250 OFFCURVE",
"521 360 CURVE SMOOTH",
"521 409 OFFCURVE",
"502 451 OFFCURVE",
"469 482 CURVE",
"536 497 OFFCURVE",
"578 542 OFFCURVE",
"578 613 CURVE",
"462 613 LINE",
"460 589 OFFCURVE",
"446 550 OFFCURVE",
"398 522 CURVE",
"368 533 OFFCURVE",
"333 538 OFFCURVE",
"294 538 CURVE SMOOTH",
"150 538 OFFCURVE",
"68 469 OFFCURVE",
"68 360 CURVE SMOOTH",
"68 299 OFFCURVE",
"95 251 OFFCURVE",
"143 220 CURVE",
"99 209 OFFCURVE",
"52 180 OFFCURVE",
"52 130 CURVE SMOOTH",
"52 93 OFFCURVE",
"73 66 OFFCURVE",
"104 50 CURVE",
"64 32 OFFCURVE",
"22 1 OFFCURVE",
"22 -59 CURVE SMOOTH",
"22 -141 OFFCURVE",
"88 -182 OFFCURVE",
"157 -182 CURVE SMOOTH"
);
},
{
closed = 1;
nodes = (
"166 -95 OFFCURVE",
"143 -74 OFFCURVE",
"143 -42 CURVE SMOOTH",
"143 -11 OFFCURVE",
"166 11 OFFCURVE",
"199 11 CURVE SMOOTH",
"401 11 LINE SMOOTH",
"434 11 OFFCURVE",
"459 -8 OFFCURVE",
"459 -42 CURVE SMOOTH",
"459 -74 OFFCURVE",
"430 -95 OFFCURVE",
"393 -95 CURVE SMOOTH",
"199 -95 LINE SMOOTH"
);
},
{
closed = 1;
nodes = (
"223 266 OFFCURVE",
"188 300 OFFCURVE",
"188 360 CURVE SMOOTH",
"188 419 OFFCURVE",
"223 454 OFFCURVE",
"295 454 CURVE SMOOTH",
"366 454 OFFCURVE",
"402 419 OFFCURVE",
"402 360 CURVE SMOOTH",
"402 300 OFFCURVE",
"366 266 OFFCURVE",
"295 266 CURVE SMOOTH"
);
}
);
width = 592;
},
{
anchors = (
{
name = top;
position = "{302, 526}";
}
);
layerId = "16ED1D51-D51B-4BA0-89FC-970B5AF72829";
paths = (
{
closed = 1;
nodes = (
"404 -182 LINE SMOOTH",
"513 -182 OFFCURVE",
"600 -118 OFFCURVE",
"600 -20 CURVE SMOOTH",
"600 66 OFFCURVE",
"539 121 OFFCURVE",
"464 121 CURVE SMOOTH",
"225 121 LINE SMOOTH",
"205 121 OFFCURVE",
"192 134 OFFCURVE",
"192 150 CURVE SMOOTH",
"192 169 OFFCURVE",
"208 180 OFFCURVE",
"231 180 CURVE SMOOTH",
"311 180 LINE SMOOTH",
"459 180 OFFCURVE",
"537 251 OFFCURVE",
"537 359 CURVE SMOOTH",
"537 408 OFFCURVE",
"519 450 OFFCURVE",
"487 480 CURVE",
"556 496 OFFCURVE",
"600 539 OFFCURVE",
"600 614 CURVE",
"466 614 LINE",
"466 595 OFFCURVE",
"454 552 OFFCURVE",
"409 523 CURVE",
"379 533 OFFCURVE",
"343 538 OFFCURVE",
"303 538 CURVE SMOOTH",
"151 538 OFFCURVE",
"70 467 OFFCURVE",
"70 359 CURVE SMOOTH",
"70 297 OFFCURVE",
"96 248 OFFCURVE",
"147 217 CURVE",
"94 204 OFFCURVE",
"54 171 OFFCURVE",
"54 125 CURVE SMOOTH",
"54 89 OFFCURVE",
"73 62 OFFCURVE",
"105 46 CURVE",
"59 25 OFFCURVE",
"24 -9 OFFCURVE",
"24 -61 CURVE SMOOTH",
"24 -133 OFFCURVE",
"83 -182 OFFCURVE",
"155 -182 CURVE SMOOTH"
);
},
{
closed = 1;
nodes = (
"184 -87 OFFCURVE",
"162 -68 OFFCURVE",
"162 -40 CURVE SMOOTH",
"162 -14 OFFCURVE",
"185 6 OFFCURVE",
"215 6 CURVE SMOOTH",
"408 6 LINE SMOOTH",
"438 6 OFFCURVE",
"462 -10 OFFCURVE",
"462 -40 CURVE SMOOTH",
"462 -68 OFFCURVE",
"436 -87 OFFCURVE",
"402 -87 CURVE SMOOTH",
"215 -87 LINE SMOOTH"
);
},
{
closed = 1;
nodes = (
"238 273 OFFCURVE",
"206 305 OFFCURVE",
"206 359 CURVE SMOOTH",
"206 413 OFFCURVE",
"238 445 OFFCURVE",
"303 445 CURVE SMOOTH",
"368 445 OFFCURVE",
"401 413 OFFCURVE",
"401 359 CURVE SMOOTH",
"401 305 OFFCURVE",
"368 273 OFFCURVE",
"303 273 CURVE SMOOTH"
);
}
);
width = 611;
}
);
leftKerningGroup = g;
note = g;
rightKerningGroup = g;
unicode = 0067;
},
{
glyphname = h;
layers = (
{
anchors = (
{
name = bottom;
position = "{280, 0}";
},
{
name = center;
position = "{155, 627}";
},
{
name = top;
position = "{111, 686}";
}
);
layerId = "54B1AC83-0CA1-46BD-96DF-6FABA525BA97";
paths = (
{
closed = 1;
nodes = (
"155 0 LINE",
"155 311 LINE SMOOTH",
"155 408 OFFCURVE",
"221 465 OFFCURVE",
"295 465 CURVE SMOOTH",
"360 465 OFFCURVE",
"404 442 OFFCURVE",
"404 353 CURVE SMOOTH",
"404 0 LINE",
"492 0 LINE",
"492 359 LINE SMOOTH",
"492 490 OFFCURVE",
"427 538 OFFCURVE",
"328 538 CURVE SMOOTH",
"256 538 OFFCURVE",
"199 515 OFFCURVE",
"162 467 CURVE",
"155 467 LINE",
"155 723 LINE",
"67 723 LINE",
"67 0 LINE"
);
}
);
width = 556;
},
{
anchors = (
{
name = bottom;
position = "{290, 0}";
},
{
name = center;
position = "{165, 627}";
},
{
name = top;
position = "{121, 686}";
}
);
layerId = "6BFFA46E-AB79-4C09-B73D-70680E42F436";
paths = (
{
closed = 1;
nodes = (
"171 0 LINE",
"171 309 LINE SMOOTH",
"171 395 OFFCURVE",
"231 450 OFFCURVE",
"301 450 CURVE SMOOTH",
"364 450 OFFCURVE",
"405 427 OFFCURVE",
"405 344 CURVE SMOOTH",
"405 0 LINE",
"508 0 LINE",
"508 357 LINE SMOOTH",
"508 490 OFFCURVE",
"440 538 OFFCURVE",
"341 538 CURVE SMOOTH",
"268 538 OFFCURVE",
"214 512 OFFCURVE",
"178 466 CURVE",
"171 466 LINE",
"171 723 LINE",
"68 723 LINE",
"68 0 LINE"
);
}
);
width = 573;
},
{
anchors = (
{
name = bottom;
position = "{296, 0}";
},
{
name = center;
position = "{171, 627}";
},
{
name = top;
position = "{127, 686}";
}
);
layerId = "E736C715-D109-4716-A17A-2CB5528FE3B0";
paths = (
{
closed = 1;
nodes = (
"190 0 LINE",
"190 306 LINE SMOOTH",
"190 381 OFFCURVE",
"242 434 OFFCURVE",
"308 434 CURVE SMOOTH",
"368 434 OFFCURVE",
"405 409 OFFCURVE",
"405 334 CURVE SMOOTH",
"405 0 LINE",
"525 0 LINE",
"525 355 LINE SMOOTH",
"525 489 OFFCURVE",
"455 538 OFFCURVE",
"355 538 CURVE SMOOTH",
"282 538 OFFCURVE",
"230 508 OFFCURVE",
"197 466 CURVE",
"190 466 LINE",
"190 723 LINE",
"70 723 LINE",
"70 0 LINE"
);
}
);
width = 592;
},
{
anchors = (
{
name = bottom;
position = "{307, 0}";
},
{
name = center;
position = "{182, 627}";
},
{
name = top;
position = "{140, 686}";
}
);
layerId = "16ED1D51-D51B-4BA0-89FC-970B5AF72829";
paths = (
{
closed = 1;
nodes = (
"208 0 LINE",
"208 304 LINE SMOOTH",
"208 367 OFFCURVE",
"253 417 OFFCURVE",
"315 417 CURVE SMOOTH",
"372 417 OFFCURVE",
"406 392 OFFCURVE",
"406 324 CURVE SMOOTH",
"406 0 LINE",
"543 0 LINE",
"543 353 LINE SMOOTH",
"543 489 OFFCURVE",
"470 538 OFFCURVE",
"369 538 CURVE SMOOTH",
"296 538 OFFCURVE",
"247 504 OFFCURVE",
"215 465 CURVE",
"208 465 LINE",
"208 723 LINE",
"71 723 LINE",
"71 0 LINE"
);
}
);
width = 611;
}
);
leftKerningGroup = l;
note = h;
rightKerningGroup = n;
unicode = 0068;
},
{
glyphname = hbar;
layers = (
{
background = {
paths = (
{
closed = 1;
nodes = (
"67 596 LINE",
"67 0 LINE",
"155 0 LINE",
"155 311 LINE SMOOTH",
"155 408 OFFCURVE",
"221 465 OFFCURVE",
"295 465 CURVE SMOOTH",
"360 465 OFFCURVE",
"404 442 OFFCURVE",
"404 353 CURVE SMOOTH",
"404 0 LINE",
"492 0 LINE",
"492 359 LINE SMOOTH",
"492 490 OFFCURVE",
"427 538 OFFCURVE",
"328 538 CURVE SMOOTH",
"256 538 OFFCURVE",
"199 515 OFFCURVE",
"162 467 CURVE",
"155 467 LINE",
"155 596 LINE",
"295 596 LINE",
"295 658 LINE",
"155 658 LINE",
"155 723 LINE",
"67 723 LINE",
"67 658 LINE",
"1 658 LINE",
"1 596 LINE"
);
}
);
};
components = (
{
name = h;
}
);
layerId = "54B1AC83-0CA1-46BD-96DF-6FABA525BA97";
paths = (
{
closed = 1;
nodes = (
"309 596 LINE",
"309 658 LINE",
"0 658 LINE",
"0 596 LINE"
);
}
);
width = 556;
},
{
background = {
paths = (
{
closed = 1;
nodes = (
"68 593 LINE",
"68 0 LINE",
"171 0 LINE",
"171 309 LINE SMOOTH",
"171 395 OFFCURVE",
"231 450 OFFCURVE",
"301 450 CURVE SMOOTH",
"364 450 OFFCURVE",
"405 427 OFFCURVE",
"405 344 CURVE SMOOTH",
"405 0 LINE",
"508 0 LINE",
"508 357 LINE SMOOTH",
"508 490 OFFCURVE",
"440 538 OFFCURVE",
"341 538 CURVE SMOOTH",
"268 538 OFFCURVE",
"214 512 OFFCURVE",
"178 466 CURVE",
"171 466 LINE",
"171 593 LINE",
"316 593 LINE",
"316 658 LINE",
"171 658 LINE",
"171 723 LINE",
"68 723 LINE",
"68 658 LINE",
"5 658 LINE",
"5 593 LINE"
);
}
);
};
components = (
{
alignment = -1;
name = h;
}
);
layerId = "6BFFA46E-AB79-4C09-B73D-70680E42F436";
paths = (
{
closed = 1;
nodes = (
"311 593 LINE",
"311 658 LINE",
"0 658 LINE",
"0 593 LINE"
);
}
);
width = 573;
},
{
background = {
paths = (
{
closed = 1;
nodes = (
"70 590 LINE",
"70 0 LINE",
"190 0 LINE",
"190 306 LINE SMOOTH",
"190 381 OFFCURVE",
"242 434 OFFCURVE",
"308 434 CURVE SMOOTH",
"368 434 OFFCURVE",
"405 409 OFFCURVE",
"405 334 CURVE SMOOTH",
"405 0 LINE",
"525 0 LINE",
"525 355 LINE SMOOTH",
"525 489 OFFCURVE",
"455 538 OFFCURVE",
"355 538 CURVE SMOOTH",
"282 538 OFFCURVE",
"230 508 OFFCURVE",
"197 466 CURVE",
"190 466 LINE",
"190 590 LINE",
"339 590 LINE",
"339 658 LINE",
"190 658 LINE",
"190 723 LINE",
"70 723 LINE",
"70 658 LINE",
"9 658 LINE",
"9 590 LINE"
);
}
);
};
components = (
{
alignment = -1;
name = h;
}
);
layerId = "E736C715-D109-4716-A17A-2CB5528FE3B0";
paths = (
{
closed = 1;
nodes = (
"330 590 LINE",
"330 658 LINE",
"0 658 LINE",
"0 590 LINE"
);
}
);
width = 592;
},
{
background = {
paths = (
{
closed = 1;
nodes = (
"71 587 LINE",
"71 0 LINE",
"208 0 LINE",
"208 304 LINE SMOOTH",
"208 367 OFFCURVE",
"253 417 OFFCURVE",
"315 417 CURVE SMOOTH",
"372 417 OFFCURVE",
"406 392 OFFCURVE",
"406 324 CURVE SMOOTH",
"406 0 LINE",
"543 0 LINE",
"543 353 LINE SMOOTH",
"543 489 OFFCURVE",
"470 538 OFFCURVE",
"369 538 CURVE SMOOTH",
"296 538 OFFCURVE",
"247 504 OFFCURVE",
"215 465 CURVE",
"208 465 LINE",
"208 587 LINE",
"362 587 LINE",
"362 658 LINE",
"208 658 LINE",
"208 723 LINE",
"71 723 LINE",
"71 658 LINE",
"13 658 LINE",
"13 587 LINE"
);
}
);
};
components = (
{
alignment = -1;
name = h;
}
);
layerId = "16ED1D51-D51B-4BA0-89FC-970B5AF72829";
paths = (
{
closed = 1;
nodes = (
"349 587 LINE",
"349 658 LINE",
"0 658 LINE",
"0 587 LINE"
);
}
);
width = 611;
}
);
leftKerningGroup = h;
note = hbar;
rightKerningGroup = n;
unicode = 0127;
},
{
glyphname = i;
layers = (
{
background = {
paths = (
{
closed = 1;
nodes = (
"155 0 LINE",
"155 526 LINE",
"67 526 LINE",
"67 0 LINE"
);
},
{
closed = 1;
nodes = (
"155 625 LINE",
"155 723 LINE",
"67 723 LINE",
"67 625 LINE"
);
}
);
};
components = (
{
name = idotless;
}
);
layerId = "54B1AC83-0CA1-46BD-96DF-6FABA525BA97";
paths = (
{
closed = 1;
nodes = (
"154 628 LINE",
"154 723 LINE",
"67 723 LINE",
"67 628 LINE"
);
}
);
width = 222;
},
{
background = {
paths = (
{
closed = 1;
nodes = (
"171 0 LINE",
"171 526 LINE",
"68 526 LINE",
"68 0 LINE"
);
},
{
closed = 1;
nodes = (
"171 617 LINE",
"171 723 LINE",
"68 723 LINE",
"68 617 LINE"
);
}
);
};
components = (
{
name = idotless;
}
);
layerId = "6BFFA46E-AB79-4C09-B73D-70680E42F436";
paths = (
{
closed = 1;
nodes = (
"170 618 LINE",
"170 723 LINE",
"68 723 LINE",
"68 618 LINE"
);
}
);
width = 239;
},
{
background = {
paths = (
{
closed = 1;
nodes = (
"190 0 LINE",
"190 526 LINE",
"70 526 LINE",
"70 0 LINE"
);
},
{
closed = 1;
nodes = (
"190 608 LINE",
"190 723 LINE",
"70 723 LINE",
"70 608 LINE"
);
}
);
};
components = (
{
name = idotless;
}
);
layerId = "E736C715-D109-4716-A17A-2CB5528FE3B0";
paths = (
{
closed = 1;
nodes = (
"188 605 LINE",
"188 723 LINE",
"70 723 LINE",
"70 605 LINE"
);
}
);
width = 259;
},
{
components = (
{
name = idotless;
}
);
layerId = "16ED1D51-D51B-4BA0-89FC-970B5AF72829";
paths = (
{
closed = 1;
nodes = (
"207 593 LINE",
"207 723 LINE",
"70 723 LINE",
"70 593 LINE"
);
}
);
width = 278;
}
);
leftKerningGroup = i;
note = i;
rightKerningGroup = i;
unicode = 0069;
},
{
glyphname = idotless;
layers = (
{
anchors = (
{
name = bottom;
position = "{111, 0}";
},
{
name = ogonek;
position = "{141, 0}";
},
{
name = top;
position = "{111, 526}";
}
);
layerId = "54B1AC83-0CA1-46BD-96DF-6FABA525BA97";
paths = (
{
closed = 1;
nodes = (
"155 0 LINE",
"155 526 LINE",
"67 526 LINE",
"67 0 LINE"
);
}
);
width = 222;
},
{
anchors = (
{
name = bottom;
position = "{120, 0}";
},
{
name = ogonek;
position = "{155, 0}";
},
{
name = top;
position = "{118, 526}";
}
);
layerId = "6BFFA46E-AB79-4C09-B73D-70680E42F436";
paths = (
{
closed = 1;
nodes = (
"171 0 LINE",
"171 526 LINE",
"68 526 LINE",
"68 0 LINE"
);
}
);
width = 239;
},
{
anchors = (
{
name = bottom;
position = "{131, 0}";
},
{
name = ogonek;
position = "{167, 0}";
},
{
name = top;
position = "{129, 526}";
}
);
layerId = "E736C715-D109-4716-A17A-2CB5528FE3B0";
paths = (
{
closed = 1;
nodes = (
"190 0 LINE",
"190 526 LINE",
"70 526 LINE",
"70 0 LINE"
);
}
);
width = 259;
},
{
anchors = (
{
name = bottom;
position = "{138, 0}";
},
{
name = ogonek;
position = "{178, 0}";
},
{
name = top;
position = "{137, 526}";
}
);
layerId = "16ED1D51-D51B-4BA0-89FC-970B5AF72829";
paths = (
{
closed = 1;
nodes = (
"207 0 LINE",
"207 526 LINE",
"70 526 LINE",
"70 0 LINE"
);
}
);
width = 278;
}
);
leftKerningGroup = i;
note = dotlessi;
rightKerningGroup = i;
unicode = 0131;
},
{
glyphname = j;
layers = (
{
layerId = "54B1AC83-0CA1-46BD-96DF-6FABA525BA97";
paths = (
{
closed = 1;
nodes = (
"130 -182 OFFCURVE",
"155 -121 OFFCURVE",
"155 -61 CURVE SMOOTH",
"155 526 LINE",
"67 526 LINE",
"67 -65 LINE SMOOTH",
"67 -96 OFFCURVE",
"51 -113 OFFCURVE",
"20 -113 CURVE SMOOTH",
"-24 -113 LINE",
"-24 -170 LINE",
"-7 -176 OFFCURVE",
"21 -182 OFFCURVE",
"45 -182 CURVE SMOOTH"
);
},
{
closed = 1;
nodes = (
"155 625 LINE",
"155 723 LINE",
"67 723 LINE",
"67 625 LINE"
);
}
);
width = 222;
},
{
layerId = "6BFFA46E-AB79-4C09-B73D-70680E42F436";
paths = (
{
closed = 1;
nodes = (
"144 -182 OFFCURVE",
"171 -118 OFFCURVE",
"171 -55 CURVE SMOOTH",
"171 526 LINE",
"68 526 LINE",
"68 -53 LINE SMOOTH",
"68 -83 OFFCURVE",
"53 -100 OFFCURVE",
"22 -100 CURVE SMOOTH",
"-24 -100 LINE",
"-24 -169 LINE",
"-5 -175 OFFCURVE",
"27 -182 OFFCURVE",
"53 -182 CURVE SMOOTH"
);
},
{
closed = 1;
nodes = (
"171 617 LINE",
"171 723 LINE",
"68 723 LINE",
"68 617 LINE"
);
}
);
width = 239;
},
{
layerId = "E736C715-D109-4716-A17A-2CB5528FE3B0";
paths = (
{
closed = 1;
nodes = (
"161 -182 OFFCURVE",
"190 -114 OFFCURVE",
"190 -48 CURVE SMOOTH",
"190 526 LINE",
"70 526 LINE",
"70 -40 LINE SMOOTH",
"70 -69 OFFCURVE",
"54 -85 OFFCURVE",
"25 -85 CURVE SMOOTH",
"-24 -85 LINE",
"-24 -167 LINE",
"-4 -175 OFFCURVE",
"33 -182 OFFCURVE",
"61 -182 CURVE SMOOTH"
);
},
{
closed = 1;
nodes = (
"190 608 LINE",
"190 723 LINE",
"70 723 LINE",
"70 608 LINE"
);
}
);
width = 259;
},
{
layerId = "16ED1D51-D51B-4BA0-89FC-970B5AF72829";
paths = (
{
closed = 1;
nodes = (
"177 -182 OFFCURVE",
"208 -111 OFFCURVE",
"208 -41 CURVE SMOOTH",
"208 526 LINE",
"71 526 LINE",
"71 -27 LINE SMOOTH",
"71 -55 OFFCURVE",
"56 -70 OFFCURVE",
"28 -70 CURVE SMOOTH",
"-24 -70 LINE",
"-24 -166 LINE",
"-2 -174 OFFCURVE",
"39 -182 OFFCURVE",
"70 -182 CURVE SMOOTH"
);
},
{
closed = 1;
nodes = (
"208 599 LINE",
"208 723 LINE",
"71 723 LINE",
"71 599 LINE"
);
}
);
width = 278;
}
);
leftKerningGroup = j;
note = j;
rightKerningGroup = i;
unicode = 006A;
},
{
glyphname = jdotless;
layers = (
{
anchors = (
{
name = top;
position = "{111, 526}";
}
);
layerId = "54B1AC83-0CA1-46BD-96DF-6FABA525BA97";
paths = (
{
closed = 1;
nodes = (
"130 -182 OFFCURVE",
"155 -121 OFFCURVE",
"155 -61 CURVE SMOOTH",
"155 526 LINE",
"67 526 LINE",
"67 -65 LINE SMOOTH",
"67 -96 OFFCURVE",
"51 -113 OFFCURVE",
"20 -113 CURVE SMOOTH",
"-24 -113 LINE",
"-24 -170 LINE",
"-7 -176 OFFCURVE",
"21 -182 OFFCURVE",
"45 -182 CURVE SMOOTH"
);
}
);
width = 222;
},
{
anchors = (
{
name = top;
position = "{119, 526}";
}
);
layerId = "6BFFA46E-AB79-4C09-B73D-70680E42F436";
paths = (
{
closed = 1;
nodes = (
"144 -182 OFFCURVE",
"171 -118 OFFCURVE",
"171 -55 CURVE SMOOTH",
"171 526 LINE",
"68 526 LINE",
"68 -53 LINE SMOOTH",
"68 -83 OFFCURVE",
"53 -100 OFFCURVE",
"22 -100 CURVE SMOOTH",
"-24 -100 LINE",
"-24 -169 LINE",
"-5 -175 OFFCURVE",
"27 -182 OFFCURVE",
"53 -182 CURVE SMOOTH"
);
}
);
width = 239;
},
{
anchors = (
{
name = top;
position = "{129, 526}";
}
);
layerId = "E736C715-D109-4716-A17A-2CB5528FE3B0";
paths = (
{
closed = 1;
nodes = (
"161 -182 OFFCURVE",
"190 -114 OFFCURVE",
"190 -48 CURVE SMOOTH",
"190 526 LINE",
"70 526 LINE",
"70 -40 LINE SMOOTH",
"70 -69 OFFCURVE",
"54 -85 OFFCURVE",
"25 -85 CURVE SMOOTH",
"-24 -85 LINE",
"-24 -167 LINE",
"-4 -175 OFFCURVE",
"33 -182 OFFCURVE",
"61 -182 CURVE SMOOTH"
);
}
);
width = 259;
},
{
anchors = (
{
name = top;
position = "{135, 526}";
}
);
layerId = "16ED1D51-D51B-4BA0-89FC-970B5AF72829";
paths = (
{
closed = 1;
nodes = (
"177 -182 OFFCURVE",
"208 -111 OFFCURVE",
"208 -41 CURVE SMOOTH",
"208 526 LINE",
"71 526 LINE",
"71 -27 LINE SMOOTH",
"71 -55 OFFCURVE",
"56 -70 OFFCURVE",
"28 -70 CURVE SMOOTH",
"-24 -70 LINE",
"-24 -166 LINE",
"-2 -174 OFFCURVE",
"39 -182 OFFCURVE",
"70 -182 CURVE SMOOTH"
);
}
);
width = 278;
}
);
leftKerningGroup = j;
note = uni0237;
rightKerningGroup = j;
unicode = 0237;
},
{
glyphname = jacute;
layers = (
{
background = {
paths = (
{
closed = 1;
nodes = (
"408 -182 OFFCURVE",
"433 -121 OFFCURVE",
"433 -61 CURVE SMOOTH",
"433 526 LINE",
"345 526 LINE",
"345 -65 LINE SMOOTH",
"345 -96 OFFCURVE",
"329 -113 OFFCURVE",
"298 -113 CURVE SMOOTH",
"254 -113 LINE",
"254 -170 LINE",
"271 -176 OFFCURVE",
"299 -182 OFFCURVE",
"323 -182 CURVE SMOOTH"
);
},
{
closed = 1;
nodes = (
"183 0 LINE",
"183 526 LINE",
"95 526 LINE",
"95 0 LINE"
);
},
{
closed = 1;
nodes = (
"172 591 LINE",
"280 720 LINE",
"279 723 LINE",
"183 723 LINE",
"97 591 LINE"
);
},
{
closed = 1;
nodes = (
"420 591 LINE",
"528 720 LINE",
"527 723 LINE",
"431 723 LINE",
"345 591 LINE"
);
}
);
};
components = (
{
name = idotless;
},
{
name = acutecomb;
transform = "{1, 0, 0, 1, 75, 0}";
},
{
name = jdotless;
transform = "{1, 0, 0, 1, 222, 0}";
},
{
name = acutecomb;
transform = "{1, 0, 0, 1, 297, 0}";
}
);
layerId = "54B1AC83-0CA1-46BD-96DF-6FABA525BA97";
width = 444;
},
{
background = {
paths = (
{
closed = 1;
nodes = (
"455 -182 OFFCURVE",
"486 -111 OFFCURVE",
"486 -41 CURVE SMOOTH",
"486 526 LINE",
"349 526 LINE",
"349 -27 LINE SMOOTH",
"349 -55 OFFCURVE",
"334 -70 OFFCURVE",
"306 -70 CURVE SMOOTH",
"254 -70 LINE",
"254 -166 LINE",
"276 -174 OFFCURVE",
"317 -182 OFFCURVE",
"348 -182 CURVE SMOOTH"
);
},
{
closed = 1;
nodes = (
"208 0 LINE",
"208 526 LINE",
"71 526 LINE",
"71 0 LINE"
);
},
{
closed = 1;
nodes = (
"179 591 LINE",
"287 720 LINE",
"286 723 LINE",
"153 723 LINE",
"74 591 LINE"
);
},
{
closed = 1;
nodes = (
"456 591 LINE",
"564 720 LINE",
"563 723 LINE",
"430 723 LINE",
"351 591 LINE"
);
}
);
};
components = (
{
name = idotless;
},
{
name = acutecomb;
transform = "{1, 0, 0, 1, 87, 0}";
},
{
name = jdotless;
transform = "{1, 0, 0, 1, 278, 0}";
},
{
name = acutecomb;
transform = "{1, 0, 0, 1, 363, 0}";
}
);
layerId = "16ED1D51-D51B-4BA0-89FC-970B5AF72829";
width = 556;
},
{
background = {
paths = (
{
closed = 1;
nodes = (
"439 -182 OFFCURVE",
"468 -114 OFFCURVE",
"468 -48 CURVE SMOOTH",
"468 526 LINE",
"348 526 LINE",
"348 -40 LINE SMOOTH",
"348 -69 OFFCURVE",
"332 -85 OFFCURVE",
"303 -85 CURVE SMOOTH",
"254 -85 LINE",
"254 -167 LINE",
"274 -175 OFFCURVE",
"311 -182 OFFCURVE",
"339 -182 CURVE SMOOTH"
);
},
{
closed = 1;
nodes = (
"199 0 LINE",
"199 526 LINE",
"79 526 LINE",
"79 0 LINE"
);
},
{
closed = 1;
nodes = (
"171 591 LINE",
"279 720 LINE",
"278 723 LINE",
"157 723 LINE",
"76 591 LINE"
);
},
{
closed = 1;
nodes = (
"440 591 LINE",
"548 720 LINE",
"547 723 LINE",
"426 723 LINE",
"345 591 LINE"
);
}
);
};
components = (
{
name = idotless;
},
{
name = acutecomb;
transform = "{1, 0, 0, 1, 86, 0}";
},
{
name = jdotless;
transform = "{1, 0, 0, 1, 259, 0}";
},
{
name = acutecomb;
transform = "{1, 0, 0, 1, 345, 0}";
}
);
layerId = "E736C715-D109-4716-A17A-2CB5528FE3B0";
width = 518;
},
{
background = {
paths = (
{
closed = 1;
nodes = (
"422 -182 OFFCURVE",
"449 -118 OFFCURVE",
"449 -55 CURVE SMOOTH",
"449 526 LINE",
"346 526 LINE",
"346 -53 LINE SMOOTH",
"346 -83 OFFCURVE",
"331 -100 OFFCURVE",
"300 -100 CURVE SMOOTH",
"254 -100 LINE",
"254 -169 LINE",
"273 -175 OFFCURVE",
"305 -182 OFFCURVE",
"331 -182 CURVE SMOOTH"
);
},
{
closed = 1;
nodes = (
"191 0 LINE",
"191 526 LINE",
"88 526 LINE",
"88 0 LINE"
);
},
{
closed = 1;
nodes = (
"177 591 LINE",
"285 720 LINE",
"284 723 LINE",
"177 723 LINE",
"93 591 LINE"
);
},
{
closed = 1;
nodes = (
"430 591 LINE",
"538 720 LINE",
"537 723 LINE",
"430 723 LINE",
"346 591 LINE"
);
}
);
};
components = (
{
name = idotless;
},
{
name = acutecomb;
transform = "{1, 0, 0, 1, 78, 0}";
},
{
name = jdotless;
transform = "{1, 0, 0, 1, 239, 0}";
},
{
name = acutecomb;
transform = "{1, 0, 0, 1, 318, 0}";
}
);
layerId = "6BFFA46E-AB79-4C09-B73D-70680E42F436";
width = 478;
}
);
leftKerningGroup = i;
rightKerningGroup = j;
},
{
glyphname = k;
layers = (
{
anchors = (
{
name = bottom;
position = "{265, 0}";
}
);
layerId = "54B1AC83-0CA1-46BD-96DF-6FABA525BA97";
paths = (
{
closed = 1;
nodes = (
"155 0 LINE",
"155 165 LINE",
"251 256 LINE",
"395 0 LINE",
"497 0 LINE",
"306 319 LINE",
"487 526 LINE",
"378 526 LINE",
"155 268 LINE",
"155 723 LINE",
"67 723 LINE",
"67 0 LINE"
);
}
);
width = 500;
},
{
anchors = (
{
name = bottom;
position = "{274, 0}";
}
);
layerId = "6BFFA46E-AB79-4C09-B73D-70680E42F436";
paths = (
{
closed = 1;
nodes = (
"171 0 LINE",
"171 162 LINE",
"259 246 LINE",
"394 0 LINE",
"513 0 LINE",
"324 321 LINE",
"503 526 LINE",
"379 526 LINE",
"171 283 LINE",
"171 723 LINE",
"68 723 LINE",
"68 0 LINE"
);
}
);
width = 517;
},
{
anchors = (
{
name = bottom;
position = "{286, 0}";
}
);
layerId = "E736C715-D109-4716-A17A-2CB5528FE3B0";
paths = (
{
closed = 1;
nodes = (
"190 0 LINE",
"190 158 LINE",
"269 234 LINE",
"394 0 LINE",
"532 0 LINE",
"345 322 LINE",
"522 526 LINE",
"381 526 LINE",
"190 300 LINE",
"190 723 LINE",
"70 723 LINE",
"70 0 LINE"
);
}
);
width = 537;
},
{
anchors = (
{
name = bottom;
position = "{297, 0}";
}
);
layerId = "16ED1D51-D51B-4BA0-89FC-970B5AF72829";
paths = (
{
closed = 1;
nodes = (
"208 0 LINE",
"208 155 LINE",
"278 223 LINE",
"393 0 LINE",
"550 0 LINE",
"366 324 LINE",
"540 526 LINE",
"382 526 LINE",
"208 317 LINE",
"208 723 LINE",
"71 723 LINE",
"71 0 LINE"
);
}
);
width = 556;
}
);
leftKerningGroup = l;
note = k;
rightKerningGroup = k;
unicode = 006B;
},
{
glyphname = kgreenlandic;
layers = (
{
layerId = "54B1AC83-0CA1-46BD-96DF-6FABA525BA97";
paths = (
{
closed = 1;
nodes = (
"155 0 LINE",
"155 165 LINE",
"251 256 LINE",
"395 0 LINE",
"497 0 LINE",
"306 319 LINE",
"487 526 LINE",
"378 526 LINE",
"155 268 LINE",
"155 526 LINE",
"67 526 LINE",
"67 0 LINE"
);
}
);
width = 500;
},
{
layerId = "6BFFA46E-AB79-4C09-B73D-70680E42F436";
paths = (
{
closed = 1;
nodes = (
"171 0 LINE",
"171 162 LINE",
"259 246 LINE",
"394 0 LINE",
"513 0 LINE",
"324 321 LINE",
"503 526 LINE",
"379 526 LINE",
"171 283 LINE",
"171 526 LINE",
"68 526 LINE",
"68 0 LINE"
);
}
);
width = 517;
},
{
layerId = "E736C715-D109-4716-A17A-2CB5528FE3B0";
paths = (
{
closed = 1;
nodes = (
"190 0 LINE",
"190 158 LINE",
"269 234 LINE",
"394 0 LINE",
"532 0 LINE",
"345 322 LINE",
"522 526 LINE",
"381 526 LINE",
"190 300 LINE",
"190 526 LINE",
"70 526 LINE",
"70 0 LINE"
);
}
);
width = 537;
},
{
layerId = "16ED1D51-D51B-4BA0-89FC-970B5AF72829";
paths = (
{
closed = 1;
nodes = (
"208 0 LINE",
"208 155 LINE",
"278 223 LINE",
"393 0 LINE",
"550 0 LINE",
"366 324 LINE",
"540 526 LINE",
"382 526 LINE",
"208 317 LINE",
"208 526 LINE",
"71 526 LINE",
"71 0 LINE"
);
}
);
width = 556;
}
);
leftKerningGroup = n;
note = kgreenlandic;
rightKerningGroup = k;
unicode = 0138;
},
{
glyphname = l;
layers = (
{
anchors = (
{
name = bottom;
position = "{112, 0}";
},
{
name = center;
position = "{255, 360}";
},
{
name = top;
position = "{112, 700}";
},
{
name = topright;
position = "{205, 526}";
}
);
layerId = "54B1AC83-0CA1-46BD-96DF-6FABA525BA97";
paths = (
{
closed = 1;
nodes = (
"155 0 LINE",
"155 723 LINE",
"67 723 LINE",
"67 0 LINE"
);
}
);
width = 222;
},
{
anchors = (
{
name = bottom;
position = "{121, 0}";
},
{
name = center;
position = "{279, 360}";
},
{
name = top;
position = "{120, 700}";
},
{
name = topright;
position = "{221, 526}";
}
);
layerId = "6BFFA46E-AB79-4C09-B73D-70680E42F436";
paths = (
{
closed = 1;
nodes = (
"171 0 LINE",
"171 723 LINE",
"68 723 LINE",
"68 0 LINE"
);
}
);
width = 239;
},
{
anchors = (
{
name = bottom;
position = "{132, 0}";
},
{
name = center;
position = "{302, 360}";
},
{
name = top;
position = "{130, 700}";
},
{
name = topright;
position = "{240, 526}";
}
);
layerId = "E736C715-D109-4716-A17A-2CB5528FE3B0";
paths = (
{
closed = 1;
nodes = (
"190 0 LINE",
"190 723 LINE",
"70 723 LINE",
"70 0 LINE"
);
}
);
width = 259;
},
{
anchors = (
{
name = bottom;
position = "{139, 0}";
},
{
name = center;
position = "{325, 360}";
},
{
name = top;
position = "{140, 700}";
},
{
name = topright;
position = "{258, 526}";
}
);
layerId = "16ED1D51-D51B-4BA0-89FC-970B5AF72829";
paths = (
{
closed = 1;
nodes = (
"208 0 LINE",
"208 723 LINE",
"71 723 LINE",
"71 0 LINE"
);
}
);
width = 278;
}
);
leftKerningGroup = l;
note = l;
rightKerningGroup = l;
unicode = 006C;
},
{
glyphname = lcaron;
layers = (
{
background = {
paths = (
{
closed = 1;
nodes = (
"155 0 LINE",
"155 723 LINE",
"67 723 LINE",
"67 0 LINE"
);
},
{
closed = 1;
nodes = (
"251 490 LINE",
"292 602 LINE",
"292 686 LINE",
"207 686 LINE",
"207 595 LINE",
"241 595 LINE",
"207 490 LINE"
);
}
);
};
components = (
{
name = l;
},
{
name = caroncomb.alt;
transform = "{1, 0, 0, 1, 205, 0}";
}
);
layerId = "54B1AC83-0CA1-46BD-96DF-6FABA525BA97";
width = 222;
},
{
background = {
paths = (
{
closed = 1;
nodes = (
"171 0 LINE",
"171 723 LINE",
"68 723 LINE",
"68 0 LINE"
);
},
{
closed = 1;
nodes = (
"276 474 LINE",
"324 591 LINE",
"324 685 LINE",
"223 685 LINE",
"223 583 LINE",
"263 583 LINE",
"223 474 LINE"
);
}
);
};
components = (
{
name = l;
},
{
name = caroncomb.alt;
transform = "{1, 0, 0, 1, 221, 0}";
}
);
layerId = "6BFFA46E-AB79-4C09-B73D-70680E42F436";
width = 239;
},
{
background = {
paths = (
{
closed = 1;
nodes = (
"190 0 LINE",
"190 723 LINE",
"70 723 LINE",
"70 0 LINE"
);
},
{
closed = 1;
nodes = (
"305 459 LINE",
"362 583 LINE",
"362 687 LINE",
"242 687 LINE",
"242 572 LINE",
"290 572 LINE",
"242 459 LINE"
);
}
);
};
components = (
{
name = l;
},
{
name = caroncomb.alt;
transform = "{1, 0, 0, 1, 240, 0}";
}
);
layerId = "E736C715-D109-4716-A17A-2CB5528FE3B0";
width = 259;
},
{
background = {
paths = (
{
closed = 1;
nodes = (
"208 0 LINE",
"208 723 LINE",
"71 723 LINE",
"71 0 LINE"
);
},
{
closed = 1;
nodes = (
"332 442 LINE",
"398 571 LINE",
"398 686 LINE",
"260 686 LINE",
"260 559 LINE",
"315 559 LINE",
"260 442 LINE"
);
}
);
};
components = (
{
name = l;
},
{
name = caroncomb.alt;
transform = "{1, 0, 0, 1, 258, 0}";
}
);
layerId = "16ED1D51-D51B-4BA0-89FC-970B5AF72829";
width = 278;
}
);
leftKerningGroup = h;
note = lcaron;
rightKerningGroup = dcaron;
unicode = 013E;
},
{
glyphname = ldot;
layers = (
{
background = {
paths = (
{
closed = 1;
nodes = (
"155 0 LINE",
"155 723 LINE",
"67 723 LINE",
"67 0 LINE"
);
},
{
closed = 1;
nodes = (
"306 333 LINE",
"306 441 LINE",
"206 441 LINE",
"206 333 LINE"
);
}
);
};
components = (
{
name = l;
},
{
alignment = 1;
name = periodcentered.loclCAT;
transform = "{1, 0, 0, 1, 185, 3}";
}
);
layerId = "54B1AC83-0CA1-46BD-96DF-6FABA525BA97";
width = 222;
},
{
background = {
paths = (
{
closed = 1;
nodes = (
"171 0 LINE",
"171 723 LINE",
"68 723 LINE",
"68 0 LINE"
);
},
{
closed = 1;
nodes = (
"334 329 LINE",
"334 446 LINE",
"222 446 LINE",
"222 329 LINE"
);
}
);
};
components = (
{
name = l;
},
{
name = periodcentered.loclCAT;
transform = "{1, 0, 0, 1, 203, 3}";
}
);
layerId = "6BFFA46E-AB79-4C09-B73D-70680E42F436";
width = 239;
},
{
background = {
paths = (
{
closed = 1;
nodes = (
"190 0 LINE",
"190 723 LINE",
"70 723 LINE",
"70 0 LINE"
);
},
{
closed = 1;
nodes = (
"364 323 LINE",
"364 450 LINE",
"239 450 LINE",
"239 323 LINE"
);
}
);
};
components = (
{
name = l;
},
{
name = periodcentered.loclCAT;
transform = "{1, 0, 0, 1, 219, 3}";
}
);
layerId = "E736C715-D109-4716-A17A-2CB5528FE3B0";
width = 259;
},
{
background = {
paths = (
{
closed = 1;
nodes = (
"208 0 LINE",
"208 723 LINE",
"71 723 LINE",
"71 0 LINE"
);
},
{
closed = 1;
nodes = (
"395 319 LINE",
"395 456 LINE",
"257 456 LINE",
"257 319 LINE"
);
}
);
};
components = (
{
name = l;
},
{
name = periodcentered.loclCAT;
transform = "{1, 0, 0, 1, 236, 2}";
}
);
layerId = "16ED1D51-D51B-4BA0-89FC-970B5AF72829";
width = 278;
}
);
leftKerningGroup = h;
note = ldot;
rightKerningGroup = ldot;
unicode = 0140;
},
{
glyphname = lslash;
layers = (
{
background = {
paths = (
{
closed = 1;
nodes = (
"67 283 LINE",
"67 0 LINE",
"155 0 LINE",
"155 356 LINE",
"221 411 LINE",
"221 488 LINE",
"155 433 LINE",
"155 723 LINE",
"67 723 LINE",
"67 360 LINE",
"0 304 LINE",
"0 227 LINE"
);
}
);
};
components = (
{
name = l;
}
);
layerId = "54B1AC83-0CA1-46BD-96DF-6FABA525BA97";
paths = (
{
closed = 1;
nodes = (
"221 413 LINE",
"221 490 LINE",
"0 306 LINE",
"0 229 LINE"
);
}
);
width = 222;
},
{
background = {
paths = (
{
closed = 1;
nodes = (
"68 273 LINE",
"68 0 LINE",
"171 0 LINE",
"171 352 LINE",
"238 405 LINE",
"238 490 LINE",
"171 437 LINE",
"171 723 LINE",
"68 723 LINE",
"68 358 LINE",
"0 304 LINE",
"0 219 LINE"
);
}
);
};
components = (
{
name = l;
}
);
layerId = "6BFFA46E-AB79-4C09-B73D-70680E42F436";
paths = (
{
closed = 1;
nodes = (
"238 410 LINE",
"238 495 LINE",
"0 309 LINE",
"0 224 LINE"
);
}
);
width = 239;
},
{
background = {
paths = (
{
closed = 1;
nodes = (
"70 261 LINE",
"70 0 LINE",
"190 0 LINE",
"190 348 LINE",
"258 399 LINE",
"258 492 LINE",
"190 441 LINE",
"190 723 LINE",
"70 723 LINE",
"70 355 LINE",
"0 304 LINE",
"0 211 LINE"
);
}
);
};
components = (
{
name = l;
}
);
layerId = "E736C715-D109-4716-A17A-2CB5528FE3B0";
paths = (
{
closed = 1;
nodes = (
"259 406 LINE",
"259 499 LINE",
"1 311 LINE",
"1 218 LINE"
);
}
);
width = 259;
},
{
background = {
paths = (
{
closed = 1;
nodes = (
"71 250 LINE",
"71 0 LINE",
"208 0 LINE",
"208 344 LINE",
"278 392 LINE",
"278 494 LINE",
"208 446 LINE",
"208 723 LINE",
"71 723 LINE",
"71 352 LINE",
"0 304 LINE",
"0 202 LINE"
);
}
);
};
components = (
{
name = l;
}
);
layerId = "16ED1D51-D51B-4BA0-89FC-970B5AF72829";
paths = (
{
closed = 1;
nodes = (
"276 403 LINE",
"276 505 LINE",
"-2 315 LINE",
"-2 213 LINE"
);
}
);
width = 278;
}
);
leftKerningGroup = l;
note = lslash;
rightKerningGroup = l;
unicode = 0142;
},
{
glyphname = m;
layers = (
{
layerId = "54B1AC83-0CA1-46BD-96DF-6FABA525BA97";
paths = (
{
closed = 1;
nodes = (
"155 0 LINE",
"155 311 LINE SMOOTH",
"155 408 OFFCURVE",
"214 465 OFFCURVE",
"282 465 CURVE SMOOTH",
"335 465 OFFCURVE",
"374 444 OFFCURVE",
"374 363 CURVE SMOOTH",
"374 0 LINE",
"462 0 LINE",
"462 311 LINE SMOOTH",
"462 408 OFFCURVE",
"519 465 OFFCURVE",
"587 465 CURVE SMOOTH",
"640 465 OFFCURVE",
"681 444 OFFCURVE",
"681 363 CURVE SMOOTH",
"681 0 LINE",
"769 0 LINE",
"769 379 LINE SMOOTH",
"769 496 OFFCURVE",
"706 538 OFFCURVE",
"614 538 CURVE SMOOTH",
"550 538 OFFCURVE",
"488 510 OFFCURVE",
"451 455 CURVE",
"445 455 LINE",
"421 514 OFFCURVE",
"371 538 OFFCURVE",
"309 538 CURVE SMOOTH",
"243 538 OFFCURVE",
"188 512 OFFCURVE",
"151 455 CURVE",
"144 455 LINE",
"134 526 LINE",
"67 526 LINE",
"67 0 LINE"
);
}
);
width = 833;
},
{
layerId = "6BFFA46E-AB79-4C09-B73D-70680E42F436";
paths = (
{
closed = 1;
nodes = (
"171 0 LINE",
"171 309 LINE SMOOTH",
"171 395 OFFCURVE",
"224 450 OFFCURVE",
"288 450 CURVE SMOOTH",
"339 450 OFFCURVE",
"375 428 OFFCURVE",
"375 351 CURVE SMOOTH",
"375 0 LINE",
"478 0 LINE",
"478 309 LINE SMOOTH",
"478 395 OFFCURVE",
"529 450 OFFCURVE",
"593 450 CURVE SMOOTH",
"644 450 OFFCURVE",
"682 428 OFFCURVE",
"682 351 CURVE SMOOTH",
"682 0 LINE",
"785 0 LINE",
"785 371 LINE SMOOTH",
"785 494 OFFCURVE",
"719 538 OFFCURVE",
"627 538 CURVE SMOOTH",
"560 538 OFFCURVE",
"502 507 OFFCURVE",
"466 456 CURVE",
"460 456 LINE",
"435 514 OFFCURVE",
"385 538 OFFCURVE",
"323 538 CURVE SMOOTH",
"256 538 OFFCURVE",
"203 508 OFFCURVE",
"168 456 CURVE",
"161 456 LINE",
"151 526 LINE",
"68 526 LINE",
"68 0 LINE"
);
}
);
width = 850;
},
{
layerId = "E736C715-D109-4716-A17A-2CB5528FE3B0";
paths = (
{
closed = 1;
nodes = (
"190 0 LINE",
"190 306 LINE SMOOTH",
"190 381 OFFCURVE",
"236 434 OFFCURVE",
"294 434 CURVE SMOOTH",
"343 434 OFFCURVE",
"377 410 OFFCURVE",
"377 338 CURVE SMOOTH",
"377 0 LINE",
"497 0 LINE",
"497 306 LINE SMOOTH",
"497 381 OFFCURVE",
"541 434 OFFCURVE",
"600 434 CURVE SMOOTH",
"649 434 OFFCURVE",
"683 410 OFFCURVE",
"683 338 CURVE SMOOTH",
"683 0 LINE",
"803 0 LINE",
"803 362 LINE SMOOTH",
"803 491 OFFCURVE",
"735 538 OFFCURVE",
"642 538 CURVE SMOOTH",
"572 538 OFFCURVE",
"517 503 OFFCURVE",
"484 456 CURVE",
"476 456 LINE",
"450 515 OFFCURVE",
"400 538 OFFCURVE",
"339 538 CURVE SMOOTH",
"270 538 OFFCURVE",
"219 504 OFFCURVE",
"186 456 CURVE",
"179 456 LINE",
"169 526 LINE",
"70 526 LINE",
"70 0 LINE"
);
}
);
width = 870;
},
{
layerId = "16ED1D51-D51B-4BA0-89FC-970B5AF72829";
paths = (
{
closed = 1;
nodes = (
"208 0 LINE",
"208 304 LINE SMOOTH",
"208 367 OFFCURVE",
"247 417 OFFCURVE",
"301 417 CURVE SMOOTH",
"348 417 OFFCURVE",
"378 392 OFFCURVE",
"378 324 CURVE SMOOTH",
"378 0 LINE",
"515 0 LINE",
"515 304 LINE SMOOTH",
"515 367 OFFCURVE",
"553 417 OFFCURVE",
"607 417 CURVE SMOOTH",
"654 417 OFFCURVE",
"684 392 OFFCURVE",
"684 324 CURVE SMOOTH",
"684 0 LINE",
"821 0 LINE",
"821 353 LINE SMOOTH",
"821 489 OFFCURVE",
"750 538 OFFCURVE",
"657 538 CURVE SMOOTH",
"583 538 OFFCURVE",
"533 500 OFFCURVE",
"501 457 CURVE",
"493 457 LINE",
"466 515 OFFCURVE",
"416 538 OFFCURVE",
"355 538 CURVE SMOOTH",
"284 538 OFFCURVE",
"236 500 OFFCURVE",
"205 457 CURVE",
"198 457 LINE",
"188 526 LINE",
"71 526 LINE",
"71 0 LINE"
);
}
);
width = 889;
}
);
leftKerningGroup = n;
note = m;
rightKerningGroup = n;
unicode = 006D;
},
{
glyphname = n;
layers = (
{
anchors = (
{
name = bottom;
position = "{287, 0}";
},
{
name = top;
position = "{286, 526}";
},
{
name = topright;
position = "{99, 526}";
}
);
layerId = "54B1AC83-0CA1-46BD-96DF-6FABA525BA97";
paths = (
{
closed = 1;
nodes = (
"155 0 LINE",
"155 311 LINE SMOOTH",
"155 408 OFFCURVE",
"221 465 OFFCURVE",
"295 465 CURVE SMOOTH",
"360 465 OFFCURVE",
"404 442 OFFCURVE",
"404 353 CURVE SMOOTH",
"404 0 LINE",
"492 0 LINE",
"492 359 LINE SMOOTH",
"492 490 OFFCURVE",
"428 538 OFFCURVE",
"328 538 CURVE SMOOTH",
"256 538 OFFCURVE",
"192 514 OFFCURVE",
"151 455 CURVE",
"144 455 LINE",
"134 526 LINE",
"67 526 LINE",
"67 0 LINE"
);
}
);
width = 556;
},
{
anchors = (
{
name = bottom;
position = "{299, 0}";
},
{
name = top;
position = "{298, 526}";
},
{
name = topright;
position = "{111, 526}";
}
);
layerId = "6BFFA46E-AB79-4C09-B73D-70680E42F436";
paths = (
{
closed = 1;
nodes = (
"171 0 LINE",
"171 309 LINE SMOOTH",
"171 395 OFFCURVE",
"231 450 OFFCURVE",
"301 450 CURVE SMOOTH",
"364 450 OFFCURVE",
"405 427 OFFCURVE",
"405 344 CURVE SMOOTH",
"405 0 LINE",
"508 0 LINE",
"508 357 LINE SMOOTH",
"508 490 OFFCURVE",
"441 538 OFFCURVE",
"341 538 CURVE SMOOTH",
"267 538 OFFCURVE",
"206 510 OFFCURVE",
"168 456 CURVE",
"161 456 LINE",
"151 526 LINE",
"68 526 LINE",
"68 0 LINE"
);
}
);
width = 573;
},
{
anchors = (
{
name = bottom;
position = "{311, 0}";
},
{
name = top;
position = "{310, 526}";
},
{
name = topright;
position = "{123, 526}";
}
);
layerId = "E736C715-D109-4716-A17A-2CB5528FE3B0";
paths = (
{
closed = 1;
nodes = (
"190 0 LINE",
"190 306 LINE SMOOTH",
"190 381 OFFCURVE",
"242 434 OFFCURVE",
"308 434 CURVE SMOOTH",
"368 434 OFFCURVE",
"405 409 OFFCURVE",
"405 334 CURVE SMOOTH",
"405 0 LINE",
"525 0 LINE",
"525 355 LINE SMOOTH",
"525 489 OFFCURVE",
"455 538 OFFCURVE",
"355 538 CURVE SMOOTH",
"279 538 OFFCURVE",
"223 505 OFFCURVE",
"186 456 CURVE",
"179 456 LINE",
"169 526 LINE",
"70 526 LINE",
"70 0 LINE"
);
}
);
width = 592;
},
{
anchors = (
{
name = bottom;
position = "{320, 0}";
},
{
name = top;
position = "{319, 526}";
},
{
name = topright;
position = "{132, 526}";
}
);
layerId = "16ED1D51-D51B-4BA0-89FC-970B5AF72829";
paths = (
{
closed = 1;
nodes = (
"208 0 LINE",
"208 304 LINE SMOOTH",
"208 367 OFFCURVE",
"253 417 OFFCURVE",
"315 417 CURVE SMOOTH",
"372 417 OFFCURVE",
"406 392 OFFCURVE",
"406 324 CURVE SMOOTH",
"406 0 LINE",
"543 0 LINE",
"543 353 LINE SMOOTH",
"543 489 OFFCURVE",
"470 538 OFFCURVE",
"369 538 CURVE SMOOTH",
"291 538 OFFCURVE",
"239 500 OFFCURVE",
"205 457 CURVE",
"198 457 LINE",
"188 526 LINE",
"71 526 LINE",
"71 0 LINE"
);
}
);
width = 611;
}
);
leftKerningGroup = n;
note = n;
rightKerningGroup = n;
unicode = 006E;
},
{
glyphname = napostrophe;
layers = (
{
background = {
paths = (
{
closed = 1;
nodes = (
"104 595 LINE",
"70 490 LINE",
"114 490 LINE",
"155 602 LINE",
"155 686 LINE",
"70 686 LINE",
"70 595 LINE"
);
},
{
closed = 1;
nodes = (
"185 526 LINE",
"185 0 LINE",
"273 0 LINE",
"273 311 LINE SMOOTH",
"273 408 OFFCURVE",
"339 465 OFFCURVE",
"413 465 CURVE SMOOTH",
"478 465 OFFCURVE",
"522 442 OFFCURVE",
"522 353 CURVE SMOOTH",
"522 0 LINE",
"610 0 LINE",
"610 359 LINE SMOOTH",
"610 490 OFFCURVE",
"546 538 OFFCURVE",
"446 538 CURVE SMOOTH",
"374 538 OFFCURVE",
"310 514 OFFCURVE",
"269 455 CURVE",
"262 455 LINE",
"252 526 LINE"
);
}
);
};
components = (
{
name = n;
},
{
alignment = -1;
name = apostrophemod;
transform = "{1, 0, 0, 1, -20, -37}";
}
);
layerId = "54B1AC83-0CA1-46BD-96DF-6FABA525BA97";
width = 556;
},
{
components = (
{
name = n;
},
{
alignment = -1;
name = apostrophemod;
transform = "{1, 0, 0, 1, -30, -37}";
}
);
layerId = "6BFFA46E-AB79-4C09-B73D-70680E42F436";
width = 573;
},
{
components = (
{
name = n;
},
{
alignment = -1;
name = apostrophemod;
transform = "{1, 0, 0, 1, -45, -37}";
}
);
layerId = "E736C715-D109-4716-A17A-2CB5528FE3B0";
width = 592;
},
{
components = (
{
name = n;
},
{
alignment = -1;
name = apostrophemod;
transform = "{1, 0, 0, 1, -55, -37}";
}
);
layerId = "16ED1D51-D51B-4BA0-89FC-970B5AF72829";
width = 611;
}
);
leftKerningGroup = n;
note = napostrophe;
rightKerningGroup = n;
unicode = 0149;
},
